<svg xmlns="http://www.w3.org/2000/svg" width="32" height="32" viewBox="0 0 24 24"><path d="M19.953 5.672c-1.906-1.53-4.918-1.79-5.047-1.8a.48.48 0 0 0-.473.281c-.004.012-.07.164-.145.398 1.258.21 2.805.64 4.207 1.508a.48.48 0 0 1-.254.887c-.086 0-.172-.023-.254-.074-2.402-1.492-5.4-1.566-5.988-1.566S8.414 5.38 6.012 6.87a.48.48 0 0 1-.66-.152c-.14-.227-.07-.52.156-.66C6.906 5.19 8.453 4.762 9.71 4.55l-.145-.398c-.082-.184-.273-.3-.473-.28-.13.012-3.14.27-5.07 1.824C3.016 6.625 1 12.074 1 16.78a.49.49 0 0 0 .063.238c1.39 2.445 5.184 3.082 6.05 3.113.168 0 .313-.074.402-.2l.875-1.203c-2.36-.61-3.566-1.645-3.633-1.703-.2-.176-.22-.477-.043-.676s.477-.22.672-.043c.03.027 2.25 1.9 6.613 1.9 4.37 0 6.6-1.895 6.613-1.9.2-.172.5-.156.672.043s.156.5-.04.672c-.07.063-1.277 1.098-3.637 1.707l.875 1.203c.1.125.234.195.387.195.883-.027 4.676-.664 6.066-3.11.04-.074.063-.152.063-.238 0-4.707-2.016-10.156-3.047-11.11zM8.89 14.87c-.922 0-1.672-.86-1.672-1.914s.746-1.914 1.672-1.914 1.676.86 1.676 1.914-.75 1.914-1.676 1.914zm6.22 0c-.926 0-1.676-.86-1.676-1.914s.75-1.914 1.676-1.914 1.672.86 1.672 1.914-.75 1.914-1.672 1.914zm0 0" fill="rgb(100%,100%,100%)"/></svg>