<?xml version="1.0" encoding="UTF-8"?>
<svg xmlns="http://www.w3.org/2000/svg" xmlns:xlink="http://www.w3.org/1999/xlink" width="24pt" height="24pt" viewBox="0 0 24 24" version="1.1">
<g id="surface629474">
<path style=" stroke:none;fill-rule:nonzero;fill:rgb(100%,100%,100%);fill-opacity:1;" d="M 19.953125 5.671875 C 18.046875 4.140625 15.035156 3.882812 14.90625 3.871094 C 14.707031 3.855469 14.515625 3.96875 14.433594 4.152344 C 14.429688 4.164062 14.363281 4.316406 14.289062 4.550781 C 15.546875 4.761719 17.09375 5.191406 18.496094 6.058594 C 18.71875 6.199219 18.789062 6.492188 18.648438 6.71875 C 18.558594 6.863281 18.402344 6.945312 18.242188 6.945312 C 18.15625 6.945312 18.070312 6.921875 17.988281 6.871094 C 15.585938 5.378906 12.578125 5.304688 12 5.304688 C 11.421875 5.304688 8.414062 5.378906 6.011719 6.871094 C 5.785156 7.011719 5.492188 6.941406 5.351562 6.71875 C 5.210938 6.492188 5.28125 6.199219 5.507812 6.058594 C 6.90625 5.191406 8.453125 4.761719 9.710938 4.550781 C 9.636719 4.3125 9.570312 4.164062 9.566406 4.152344 C 9.484375 3.96875 9.292969 3.851562 9.09375 3.871094 C 8.964844 3.882812 5.953125 4.140625 4.023438 5.695312 C 3.015625 6.625 1 12.074219 1 16.78125 C 1 16.867188 1.023438 16.949219 1.0625 17.019531 C 2.453125 19.464844 6.246094 20.101562 7.113281 20.132812 C 7.117188 20.132812 7.121094 20.132812 7.128906 20.132812 C 7.28125 20.132812 7.425781 20.058594 7.515625 19.933594 L 8.390625 18.730469 C 6.03125 18.121094 4.824219 17.085938 4.757812 17.027344 C 4.558594 16.851562 4.539062 16.550781 4.714844 16.351562 C 4.890625 16.152344 5.191406 16.132812 5.386719 16.308594 C 5.417969 16.335938 7.636719 18.21875 12 18.21875 C 16.371094 18.21875 18.589844 16.324219 18.613281 16.308594 C 18.8125 16.136719 19.113281 16.152344 19.285156 16.351562 C 19.460938 16.550781 19.441406 16.851562 19.246094 17.023438 C 19.175781 17.085938 17.96875 18.121094 15.609375 18.730469 L 16.484375 19.933594 C 16.574219 20.058594 16.71875 20.128906 16.871094 20.128906 C 16.878906 20.128906 16.882812 20.128906 16.886719 20.128906 C 17.753906 20.101562 21.546875 19.464844 22.9375 17.019531 C 22.976562 16.945312 23 16.867188 23 16.78125 C 23 12.074219 20.984375 6.625 19.953125 5.671875 Z M 8.890625 14.871094 C 7.96875 14.871094 7.21875 14.011719 7.21875 12.957031 C 7.21875 11.902344 7.964844 11.042969 8.890625 11.042969 C 9.816406 11.042969 10.566406 11.902344 10.566406 12.957031 C 10.566406 14.011719 9.816406 14.871094 8.890625 14.871094 Z M 15.109375 14.871094 C 14.183594 14.871094 13.433594 14.011719 13.433594 12.957031 C 13.433594 11.902344 14.183594 11.042969 15.109375 11.042969 C 16.03125 11.042969 16.78125 11.902344 16.78125 12.957031 C 16.78125 14.011719 16.03125 14.871094 15.109375 14.871094 Z M 15.109375 14.871094 "/>
</g>
</svg>
