<svg xmlns="http://www.w3.org/2000/svg" width="32" height="32" viewBox="0 0 24 24"><path d="M10.898 2.102c-4.598.5-8.297 4.2-8.797 8.7-.602 5 2.5 9.3 6.898 10.7v-2.3s-.398.102-.898.102c-1.402 0-2-1.2-2.102-1.902-.102-.398-.3-.7-.602-1C5.102 16.3 5 16.3 5 16.2c0-.2.3-.2.398-.2.602 0 1.102.7 1.3 1 .5.8 1.102 1 1.402 1 .398 0 .7-.102.898-.2.102-.7.398-1.402 1-1.8-2.3-.5-4-1.8-4-4 0-1.102.5-2.2 1.2-3-.098-.2-.2-.7-.2-1.398 0-.402 0-1 .3-1.602 0 0 1.398 0 2.8 1.3.5-.2 1.2-.3 1.898-.3s1.398.102 2 .3C15.3 6 16.8 6 16.8 6c.2.602.2 1.2.2 1.602 0 .797-.102 1.2-.2 1.398.7.8 1.2 1.8 1.2 3 0 2.2-1.7 3.5-4 4 .602.5 1 1.398 1 2.3v3.3c4.102-1.3 7-5.102 7-9.5 0-6-5.102-10.703-11.102-10zm0 0" fill="rgb(100%,100%,100%)"/></svg>