<svg xmlns="http://www.w3.org/2000/svg" width="32" height="32" viewBox="0 0 24 24"><path d="M24 4.3c-.898.398-1.8.7-2.8.8 1-.602 1.8-1.602 2.2-2.703-1 .602-2 1-3.098 1.203-1-1-2.3-1.602-3.7-1.602a4.91 4.91 0 0 0-4.902 4.898c0 .402 0 .8.102 1.102C7.7 7.8 4.102 5.898 1.7 2.898c-.5.703-.7 1.602-.7 2.5 0 1.703.898 3.203 2.2 4.102-.8-.102-1.598-.3-2.2-.602V9c0 2.398 1.7 4.398 3.898 4.8-.398.098-.797.2-1.297.2-.3 0-.602 0-.902-.102.602 2 2.402 3.402 4.602 3.402-1.7 1.3-3.8 2.098-6.102 2.098-.398 0-.8 0-1.2-.098 2.2 1.398 4.8 2.2 7.5 2.2 9.102 0 14-7.5 14-14v-.602c1-.7 1.8-1.598 2.5-2.598" fill="rgb(100%,100%,100%)"/></svg>