<svg viewBox="0 0 2054 363" fill="none" xmlns="http://www.w3.org/2000/svg">
<path d="M31.5 254.5V207L43.5 214L62 199H73.5L103.5 220.5L132.5 188.5L131 209V220.5L127 234L123.5 236.5V254.5L119.5 262V278.5L111 286.5L103.5 292L106.5 307L108.5 330.5H103.5L92.5 332.5L90.5 346.5L81.5 356.5L66 342L51 349.5L49 328.5L45.5 324.5L30 315.5L31.5 310V298L34.5 294V284.5L24.5 269.5L31.5 254.5Z" fill="white"/>
<path d="M39 17.5L26.5 51.5L42 73.5H123L130 45L118.5 12.5L104 50.5L76.5 11L62.5 56L39 17.5Z" fill="#0A4481"/>
<path d="M17.5 90.5V107C40.667 116.833 96 129 132 99C132.336 98.72 132.669 98.44 133 98.16V90.5H17.5ZM44.5 67.44L17.5 31V90.5H133V67.44L131 43L129 32.5L122 61.5L104.5 31L84.5 72L63 37L44.5 67.44Z" fill="#0091FF"/>
<path d="M61 159C61 175.845 47.345 189.5 30.5 189.5C13.655 189.5 0 175.845 0 159C0 142.155 13.655 128.5 30.5 128.5C47.345 128.5 61 142.155 61 159ZM125 163C125 179.845 111.345 193.5 94.5 193.5C77.655 193.5 64 179.845 64 163C64 146.155 77.655 132.5 94.5 132.5C111.345 132.5 125 146.155 125 163Z" fill="#544E4E"/>
<path d="M66.783 150.254L59.491 149.5L59.94 167L64.5 168L66.783 150.254Z" fill="#544E4E"/>
<path d="M27 180.5C38.598 180.5 48 171.098 48 159.5C48 147.902 38.598 138.5 27 138.5C15.402 138.5 6 147.902 6 159.5C6 171.098 15.402 180.5 27 180.5Z" fill="#C9CFCF"/>
<path d="M91 184.5C102.598 184.5 112 175.098 112 163.5C112 151.902 102.598 142.5 91 142.5C79.402 142.5 70 151.902 70 163.5C70 175.098 79.402 184.5 91 184.5Z" fill="#C9CFCF"/>
<path d="M328.391 291L283.859 127.364H329.776L355.131 237.307H356.622L383.043 127.364H428.107L454.953 236.668H456.338L481.267 127.364H527.077L482.652 291H434.605L406.48 188.088H404.456L376.331 291H328.391ZM551.287 291V127.364H596.67V291H551.287ZM574.085 106.27C567.338 106.27 561.549 104.033 556.72 99.5582C551.961 95.0128 549.582 89.5795 549.582 83.2585C549.582 77.0085 551.961 71.6463 556.72 67.1719C561.549 62.6264 567.338 60.3537 574.085 60.3537C580.832 60.3537 586.585 62.6264 591.343 67.1719C596.173 71.6463 598.588 77.0085 598.588 83.2585C598.588 89.5795 596.173 95.0128 591.343 99.5582C586.585 104.033 580.832 106.27 574.085 106.27ZM769.175 174.026L727.627 176.582C726.917 173.031 725.39 169.835 723.046 166.994C720.702 164.082 717.613 161.774 713.778 160.07C710.013 158.294 705.504 157.406 700.248 157.406C693.217 157.406 687.286 158.898 682.457 161.881C677.627 164.793 675.212 168.699 675.212 173.599C675.212 177.506 676.775 180.808 679.9 183.507C683.025 186.206 688.387 188.372 695.987 190.006L725.603 195.972C741.512 199.239 753.373 204.494 761.185 211.739C768.998 218.983 772.904 228.5 772.904 240.29C772.904 251.014 769.744 260.425 763.423 268.521C757.173 276.618 748.579 282.939 737.641 287.484C726.775 291.959 714.239 294.196 700.035 294.196C678.373 294.196 661.114 289.686 648.259 280.666C635.475 271.575 627.982 259.217 625.781 243.592L670.418 241.249C671.768 247.854 675.035 252.896 680.219 256.376C685.404 259.786 692.045 261.49 700.141 261.49C708.096 261.49 714.488 259.963 719.317 256.909C724.218 253.784 726.704 249.771 726.775 244.871C726.704 240.751 724.964 237.378 721.555 234.75C718.146 232.051 712.89 229.991 705.788 228.571L677.45 222.925C661.469 219.729 649.573 214.189 641.761 206.305C634.019 198.422 630.148 188.372 630.148 176.156C630.148 165.645 632.989 156.589 638.671 148.99C644.424 141.391 652.485 135.531 662.854 131.412C673.295 127.293 685.511 125.233 699.502 125.233C720.17 125.233 736.434 129.601 748.295 138.337C760.227 147.072 767.187 158.969 769.175 174.026ZM876.056 294.196C859.223 294.196 844.735 290.787 832.59 283.969C820.516 277.08 811.212 267.349 804.678 254.778C798.144 242.136 794.877 227.186 794.877 209.928C794.877 193.095 798.144 178.322 804.678 165.609C811.212 152.896 820.409 142.989 832.27 135.886C844.202 128.784 858.194 125.233 874.245 125.233C885.04 125.233 895.09 126.973 904.394 130.453C913.769 133.862 921.936 139.011 928.897 145.901C935.928 152.79 941.397 161.455 945.303 171.895C949.209 182.264 951.162 194.409 951.162 208.33V220.794H812.988V192.669H908.442C908.442 186.135 907.022 180.347 904.181 175.304C901.34 170.261 897.398 166.32 892.355 163.479C887.384 160.567 881.596 159.111 874.99 159.111C868.101 159.111 861.993 160.709 856.667 163.905C851.411 167.03 847.292 171.256 844.309 176.582C841.326 181.838 839.799 187.697 839.728 194.161V220.901C839.728 228.997 841.219 235.993 844.202 241.888C847.256 247.783 851.553 252.328 857.093 255.524C862.632 258.72 869.202 260.318 876.801 260.318C881.844 260.318 886.461 259.608 890.651 258.188C894.841 256.767 898.428 254.636 901.411 251.795C904.394 248.955 906.667 245.474 908.229 241.355L950.203 244.125C948.073 254.21 943.705 263.017 937.1 270.545C930.566 278.003 922.114 283.827 911.745 288.017C901.446 292.136 889.55 294.196 876.056 294.196ZM1054.71 294.196C1038.17 294.196 1023.85 290.68 1011.78 283.649C999.777 276.547 990.509 266.675 983.975 254.033C977.441 241.32 974.174 226.582 974.174 209.821C974.174 192.918 977.441 178.145 983.975 165.503C990.509 152.79 999.777 142.918 1011.78 135.886C1023.85 128.784 1038.17 125.233 1054.71 125.233C1071.26 125.233 1085.54 128.784 1097.54 135.886C1109.61 142.918 1118.92 152.79 1125.45 165.503C1131.99 178.145 1135.25 192.918 1135.25 209.821C1135.25 226.582 1131.99 241.32 1125.45 254.033C1118.92 266.675 1109.61 276.547 1097.54 283.649C1085.54 290.68 1071.26 294.196 1054.71 294.196ZM1054.93 259.04C1062.45 259.04 1068.74 256.909 1073.78 252.648C1078.83 248.315 1082.63 242.42 1085.18 234.963C1087.81 227.506 1089.12 219.018 1089.12 209.501C1089.12 199.984 1087.81 191.497 1085.18 184.04C1082.63 176.582 1078.83 170.687 1073.78 166.355C1068.74 162.023 1062.45 159.857 1054.93 159.857C1047.33 159.857 1040.94 162.023 1035.75 166.355C1030.64 170.687 1026.77 176.582 1024.14 184.04C1021.58 191.497 1020.3 199.984 1020.3 209.501C1020.3 219.018 1021.58 227.506 1024.14 234.963C1026.77 242.42 1030.64 248.315 1035.75 252.648C1040.94 256.909 1047.33 259.04 1054.93 259.04ZM1210.15 72.8182V291H1164.76V72.8182H1210.15ZM1306.8 293.663C1294.37 293.663 1283.11 290.467 1273.03 284.075C1263.01 277.612 1255.06 268.131 1249.16 255.631C1243.34 243.06 1240.43 227.648 1240.43 209.395C1240.43 190.645 1243.45 175.055 1249.48 162.626C1255.52 150.126 1263.55 140.787 1273.56 134.608C1283.65 128.358 1294.69 125.233 1306.69 125.233C1315.86 125.233 1323.49 126.795 1329.6 129.92C1335.78 132.974 1340.75 136.81 1344.51 141.426C1348.35 145.972 1351.26 150.446 1353.25 154.849H1354.63V72.8182H1399.91V291H1355.17V264.793H1353.25C1351.12 269.338 1348.1 273.848 1344.19 278.322C1340.36 282.726 1335.35 286.384 1329.17 289.295C1323.06 292.207 1315.61 293.663 1306.8 293.663ZM1321.18 257.548C1328.5 257.548 1334.68 255.56 1339.72 251.582C1344.83 247.534 1348.74 241.888 1351.44 234.643C1354.21 227.399 1355.59 218.912 1355.59 209.182C1355.59 199.452 1354.24 191 1351.54 183.827C1348.85 176.653 1344.94 171.114 1339.83 167.207C1334.71 163.301 1328.5 161.348 1321.18 161.348C1313.72 161.348 1307.44 163.372 1302.33 167.42C1297.21 171.469 1293.34 177.08 1290.71 184.253C1288.09 191.426 1286.77 199.736 1286.77 209.182C1286.77 218.699 1288.09 227.115 1290.71 234.43C1293.41 241.675 1297.28 247.357 1302.33 251.476C1307.44 255.524 1313.72 257.548 1321.18 257.548ZM1437.22 291V127.364H1480.48V156.234H1482.39C1485.8 146.646 1491.49 139.082 1499.44 133.543C1507.39 128.003 1516.91 125.233 1527.99 125.233C1539.21 125.233 1548.77 128.038 1556.65 133.649C1564.53 139.189 1569.79 146.717 1572.42 156.234H1574.12C1577.46 146.859 1583.5 139.366 1592.23 133.756C1601.04 128.074 1611.44 125.233 1623.45 125.233C1638.72 125.233 1651.11 130.098 1660.63 139.828C1670.21 149.487 1675.01 163.195 1675.01 180.95V291H1629.73V189.899C1629.73 180.808 1627.32 173.99 1622.49 169.445C1617.66 164.899 1611.62 162.626 1604.38 162.626C1596.14 162.626 1589.71 165.254 1585.09 170.51C1580.48 175.695 1578.17 182.548 1578.17 191.071V291H1534.17V188.94C1534.17 180.915 1531.86 174.523 1527.25 169.764C1522.7 165.006 1516.7 162.626 1509.24 162.626C1504.2 162.626 1499.65 163.905 1495.6 166.462C1491.63 168.947 1488.47 172.463 1486.12 177.009C1483.78 181.483 1482.61 186.739 1482.61 192.776V291H1437.22ZM1757.52 294.089C1747.08 294.089 1737.77 292.278 1729.61 288.656C1721.44 284.963 1714.98 279.53 1710.22 272.357C1705.53 265.112 1703.19 256.092 1703.19 245.297C1703.19 236.206 1704.86 228.571 1708.19 222.392C1711.53 216.213 1716.08 211.241 1721.83 207.477C1727.58 203.713 1734.12 200.872 1741.43 198.955C1748.82 197.037 1756.56 195.688 1764.66 194.906C1774.17 193.912 1781.84 192.989 1787.67 192.136C1793.49 191.213 1797.72 189.864 1800.35 188.088C1802.97 186.312 1804.29 183.685 1804.29 180.205V179.565C1804.29 172.818 1802.16 167.598 1797.9 163.905C1793.7 160.212 1787.74 158.365 1780 158.365C1771.83 158.365 1765.33 160.176 1760.5 163.798C1755.67 167.349 1752.48 171.824 1750.91 177.222L1708.94 173.812C1711.07 163.869 1715.26 155.276 1721.51 148.031C1727.76 140.716 1735.82 135.105 1745.69 131.199C1755.64 127.222 1767.14 125.233 1780.21 125.233C1789.3 125.233 1798 126.298 1806.31 128.429C1814.69 130.56 1822.11 133.862 1828.58 138.337C1835.11 142.811 1840.26 148.564 1844.02 155.595C1847.79 162.555 1849.67 170.901 1849.67 180.631V291H1806.63V268.308H1805.35C1802.72 273.422 1799.21 277.932 1794.81 281.838C1790.4 285.673 1785.11 288.692 1778.93 290.893C1772.75 293.024 1765.62 294.089 1757.52 294.089ZM1770.52 262.768C1777.19 262.768 1783.09 261.455 1788.2 258.827C1793.31 256.128 1797.33 252.506 1800.24 247.96C1803.15 243.415 1804.61 238.266 1804.61 232.513V215.148C1803.19 216.071 1801.23 216.923 1798.75 217.705C1796.33 218.415 1793.6 219.089 1790.54 219.729C1787.49 220.297 1784.44 220.83 1781.38 221.327C1778.33 221.753 1775.56 222.143 1773.07 222.499C1767.75 223.28 1763.09 224.523 1759.12 226.227C1755.14 227.932 1752.05 230.24 1749.85 233.152C1747.65 235.993 1746.55 239.544 1746.55 243.805C1746.55 249.984 1748.78 254.707 1753.26 257.974C1757.8 261.17 1763.56 262.768 1770.52 262.768ZM1930.26 196.398V291H1884.88V127.364H1928.13V156.234H1930.05C1933.67 146.717 1939.75 139.189 1948.27 133.649C1956.79 128.038 1967.12 125.233 1979.27 125.233C1990.63 125.233 2000.54 127.719 2008.99 132.69C2017.44 137.662 2024.01 144.764 2028.7 153.997C2033.39 163.159 2035.73 174.097 2035.73 186.81V291H1990.35V194.906C1990.42 184.892 1987.86 177.08 1982.68 171.469C1977.49 165.787 1970.36 162.946 1961.27 162.946C1955.16 162.946 1949.76 164.26 1945.07 166.888C1940.46 169.516 1936.83 173.351 1934.21 178.393C1931.65 183.365 1930.33 189.366 1930.26 196.398Z" fill="white"/>
</svg>
