<svg viewBox="0 0 673 346" fill="none" xmlns="http://www.w3.org/2000/svg">
<path d="M31.5 243.5V196L43.5 203L62 188H73.5L103.5 209.5L132.5 177.5L131 198V209.5L127 223L123.5 225.5V243.5L119.5 251V267.5L111 275.5L103.5 281L106.5 296L108.5 319.5H103.5L92.5 321.5L90.5 335.5L81.5 345.5L66 331L51 338.5L49 317.5L45.5 313.5L30 304.5L31.5 299V287L34.5 283V273.5L24.5 258.5L31.5 243.5Z" fill="white"/>
<path d="M39 6.5L26.5 40.5L42 62.5H123L130 34L118.5 1.5L104 39.5L76.5 0L62.5 45L39 6.5Z" fill="#0A4481"/>
<path d="M17.5 79.5V96C40.667 105.833 96 118 132 88C132.336 87.72 132.669 87.44 133 87.16V79.5H17.5ZM44.5 56.44L17.5 20V79.5H133V56.44L131 32L129 21.5L122 50.5L104.5 20L84.5 61L63 26L44.5 56.44Z" fill="#0091FF"/>
<path d="M61 148C61 164.845 47.345 178.5 30.5 178.5C13.655 178.5 0 164.845 0 148C0 131.155 13.655 117.5 30.5 117.5C47.345 117.5 61 131.155 61 148ZM125 152C125 168.845 111.345 182.5 94.5 182.5C77.655 182.5 64 168.845 64 152C64 135.155 77.655 121.5 94.5 121.5C111.345 121.5 125 135.155 125 152Z" fill="#544E4E"/>
<path d="M66.783 139.254L59.491 138.5L59.94 156L64.5 157L66.783 139.254Z" fill="#544E4E"/>
<path d="M27 169.5C38.598 169.5 48 160.098 48 148.5C48 136.902 38.598 127.5 27 127.5C15.402 127.5 6 136.902 6 148.5C6 160.098 15.402 169.5 27 169.5Z" fill="#C9CFCF"/>
<path d="M91 173.5C102.598 173.5 112 164.098 112 152.5C112 140.902 102.598 131.5 91 131.5C79.402 131.5 70 140.902 70 152.5C70 164.098 79.402 173.5 91 173.5Z" fill="#C9CFCF"/>
<path d="M289.343 54.2H316.623L333.123 161.34L345.443 54.2H375.363L352.263 196.54H317.283L302.983 109.2L288.683 196.54H253.703L230.603 54.2H260.523L272.843 161.34L289.343 54.2ZM423.11 54.2V196.54H392.31V54.2H423.11ZM525.001 91.6H495.741V80.38C495.741 79.207 495.301 78.18 494.421 77.3C493.687 76.42 492.734 75.98 491.561 75.98H479.461C478.287 75.98 477.261 76.42 476.381 77.3C475.647 78.18 475.281 79.207 475.281 80.38V105.68C475.281 106.853 475.647 107.88 476.381 108.76C477.261 109.64 478.287 110.08 479.461 110.08H499.261C517.447 110.373 526.541 120.053 526.541 139.12V169.7C526.541 189.06 517.447 198.74 499.261 198.74H473.301C455.114 198.74 446.021 189.06 446.021 169.7V154.96H475.281V170.8C475.281 171.973 475.647 173 476.381 173.88C477.261 174.76 478.287 175.2 479.461 175.2H493.101C494.274 175.2 495.227 174.76 495.961 173.88C496.841 173 497.281 171.973 497.281 170.8V142.86C497.281 141.687 496.841 140.66 495.961 139.78C495.227 138.9 494.274 138.46 493.101 138.46H473.301C455.114 138.46 446.021 128.78 446.021 109.42V81.04C446.021 61.68 455.114 52 473.301 52H497.721C515.907 52 525.001 61.68 525.001 81.04V91.6ZM577.583 171.02H611.683V196.54H546.783V54.2H611.683V79.28H577.583V112.72H609.483V136.92H577.583V171.02Z" fill="white"/>
<path d="M290.052 273.11C290.052 277.672 289.33 281.865 287.885 285.69C286.44 289.487 284.4 292.759 281.765 295.508C279.13 298.256 275.956 300.395 272.245 301.925C268.561 303.427 264.481 304.178 260.005 304.178C255.528 304.178 251.448 303.427 247.765 301.925C244.081 300.395 240.922 298.256 238.287 295.508C235.652 292.759 233.612 289.487 232.167 285.69C230.722 281.865 230 277.672 230 273.11C230 268.548 230.722 264.369 232.167 260.573C233.612 256.748 235.652 253.461 238.287 250.713C240.922 247.936 244.081 245.783 247.765 244.253C251.448 242.723 255.528 241.958 260.005 241.958C264.481 241.958 268.561 242.723 272.245 244.253C275.956 245.783 279.13 247.936 281.765 250.713C284.4 253.461 286.44 256.748 287.885 260.573C289.33 264.369 290.052 268.548 290.052 273.11ZM281.595 273.11C281.595 269.37 281.085 266.013 280.065 263.038C279.045 260.063 277.6 257.555 275.73 255.515C273.86 253.447 271.593 251.86 268.93 250.755C266.266 249.65 263.291 249.098 260.005 249.098C256.746 249.098 253.786 249.65 251.122 250.755C248.459 251.86 246.178 253.447 244.28 255.515C242.41 257.555 240.965 260.063 239.945 263.038C238.925 266.013 238.415 269.37 238.415 273.11C238.415 276.85 238.925 280.208 239.945 283.183C240.965 286.129 242.41 288.637 244.28 290.705C246.178 292.745 248.459 294.318 251.122 295.423C253.786 296.499 256.746 297.038 260.005 297.038C263.291 297.038 266.266 296.499 268.93 295.423C271.593 294.318 273.86 292.745 275.73 290.705C277.6 288.637 279.045 286.129 280.065 283.183C281.085 280.208 281.595 276.85 281.595 273.11ZM336.401 296.613V303.54H301.849V242.638H310.051V296.613H336.401ZM398.296 273.11C398.296 277.672 397.573 281.823 396.128 285.563C394.683 289.303 392.643 292.504 390.008 295.168C387.373 297.831 384.2 299.899 380.488 301.373C376.805 302.818 372.725 303.54 368.248 303.54H345.511V242.638H368.248C372.725 242.638 376.805 243.374 380.488 244.848C384.2 246.293 387.373 248.361 390.008 251.053C392.643 253.716 394.683 256.918 396.128 260.658C397.573 264.398 398.296 268.548 398.296 273.11ZM389.838 273.11C389.838 269.37 389.328 266.027 388.308 263.08C387.288 260.133 385.843 257.64 383.973 255.6C382.103 253.56 379.837 252.002 377.173 250.925C374.51 249.848 371.535 249.31 368.248 249.31H353.756V296.868H368.248C371.535 296.868 374.51 296.329 377.173 295.253C379.837 294.176 382.103 292.632 383.973 290.62C385.843 288.58 387.288 286.087 388.308 283.14C389.328 280.193 389.838 276.85 389.838 273.11ZM495.289 242.638V303.54H488.064V258.788C488.064 258.193 488.079 257.555 488.107 256.875C488.164 256.195 488.22 255.501 488.277 254.793L467.367 292.873C466.715 294.148 465.724 294.785 464.392 294.785H463.202C461.87 294.785 460.879 294.148 460.227 292.873L438.892 254.623C439.062 256.124 439.147 257.513 439.147 258.788V303.54H431.922V242.638H437.999C438.736 242.638 439.303 242.708 439.699 242.85C440.096 242.992 440.479 243.388 440.847 244.04L461.884 281.525C462.224 282.205 462.55 282.913 462.862 283.65C463.202 284.387 463.514 285.138 463.797 285.903C464.08 285.138 464.378 284.387 464.689 283.65C465.001 282.885 465.341 282.163 465.709 281.483L486.364 244.04C486.704 243.388 487.073 242.992 487.469 242.85C487.894 242.708 488.475 242.638 489.212 242.638H495.289ZM543.205 280.93L533.642 256.153C533.322 255.311 533.024 254.461 532.75 253.603C532.425 252.563 532.127 251.514 531.857 250.458C531.262 252.753 530.653 254.665 530.03 256.195L520.467 280.93H543.205ZM560.375 303.54H554C553.263 303.54 552.668 303.356 552.215 302.988C551.759 302.617 551.408 302.133 551.195 301.585L545.5 286.88H518.172L512.477 301.585C512.307 302.095 511.981 302.548 511.5 302.945C511.018 303.342 510.423 303.54 509.715 303.54H503.34L527.692 242.638H536.022L560.375 303.54ZM617.729 242.638V303.54H613.607C612.955 303.54 612.403 303.427 611.949 303.2C611.524 302.973 611.099 302.591 610.674 302.053L575.442 256.153C575.498 256.861 575.541 257.555 575.569 258.235C575.598 258.915 575.612 259.553 575.612 260.148V303.54H568.387V242.638H572.637C573.005 242.638 573.317 242.666 573.572 242.723C573.827 242.751 574.053 242.822 574.252 242.935C574.45 243.02 574.648 243.162 574.847 243.36C575.045 243.53 575.258 243.757 575.484 244.04L610.717 289.898C610.66 289.161 610.603 288.453 610.547 287.773C610.519 287.107 610.505 286.441 610.504 285.775V242.638H617.729Z" fill="white"/>
</svg>
