<svg viewBox="0 0 12 12" fill="none" xmlns="http://www.w3.org/2000/svg">
<rect x="2" y="3.59998" width="7.2" height="4.8" fill="white"/>
<path d="M11 6.00002L9.78 4.61002L9.95 2.77002L8.145 2.36002L7.2 0.77002L5.5 1.50002L3.8 0.77002L2.855 2.36002L1.05 2.76502L1.22 4.60502L0 6.00002L1.22 7.39002L1.05 9.23502L2.855 9.64502L3.8 11.235L5.5 10.5L7.2 11.23L8.145 9.64002L9.95 9.23002L9.78 7.39002L11 6.00002ZM4.5 8.50002L2.5 6.50002L3.205 5.79502L4.5 7.08502L7.795 3.79002L8.5 4.50002L4.5 8.50002Z" fill="#0087FE"/>
</svg>
