<svg viewBox="0 0 200 65" fill="none" xmlns="http://www.w3.org/2000/svg">
<rect x="0.5" y="0.5" width="199" height="64" rx="7.5" fill="white" fill-opacity="0.03" stroke="#2F3849"/>
<path d="M26.4879 16.9091V30H24.1165V19.2166H24.0398L20.978 21.1726V18.9993L24.2315 16.9091H26.4879ZM29.5753 27.571V25.6854L35.13 16.9091H36.7024V19.5938H35.7436L32.0043 25.5192V25.6214H39.7578V27.571H29.5753ZM35.8203 30V26.9957L35.8459 26.152V16.9091H38.0831V30H35.8203ZM45.9581 30V23.4545H47.2322V30H45.9581ZM46.6016 22.4446C46.38 22.4446 46.1896 22.3707 46.0305 22.223C45.8743 22.0724 45.7962 21.8935 45.7962 21.6861C45.7962 21.4759 45.8743 21.2969 46.0305 21.1491C46.1896 20.9986 46.38 20.9233 46.6016 20.9233C46.8232 20.9233 47.0121 20.9986 47.1683 21.1491C47.3274 21.2969 47.407 21.4759 47.407 21.6861C47.407 21.8935 47.3274 22.0724 47.1683 22.223C47.0121 22.3707 46.8232 22.4446 46.6016 22.4446ZM50.2205 26.1136V30H48.9464V23.4545H50.1694V24.5199H50.2504C50.4009 24.1733 50.6367 23.8949 50.9577 23.6847C51.2816 23.4744 51.6893 23.3693 52.1808 23.3693C52.6268 23.3693 53.0174 23.4631 53.3526 23.6506C53.6879 23.8352 53.9478 24.1108 54.1325 24.4773C54.3171 24.8437 54.4094 25.2969 54.4094 25.8366V30H53.1353V25.9901C53.1353 25.5156 53.0117 25.1449 52.7646 24.8778C52.5174 24.608 52.1779 24.473 51.7461 24.473C51.4506 24.473 51.1879 24.5369 50.9577 24.6648C50.7305 24.7926 50.5501 24.9801 50.4165 25.2273C50.2859 25.4716 50.2205 25.767 50.2205 26.1136ZM58.0231 30.1449C57.6083 30.1449 57.2333 30.0682 56.8981 29.9148C56.5629 29.7585 56.2972 29.5327 56.1012 29.2372C55.908 28.9418 55.8114 28.5795 55.8114 28.1506C55.8114 27.7812 55.8825 27.4773 56.0245 27.2386C56.1665 27 56.3583 26.8111 56.5998 26.6719C56.8413 26.5327 57.1112 26.4276 57.4094 26.3565C57.7077 26.2855 58.0117 26.2315 58.3214 26.1946C58.7134 26.1491 59.0316 26.1122 59.2759 26.0838C59.5202 26.0526 59.6978 26.0028 59.8086 25.9347C59.9194 25.8665 59.9748 25.7557 59.9748 25.6023V25.5724C59.9748 25.2003 59.8697 24.9119 59.6594 24.7074C59.4521 24.5028 59.1424 24.4006 58.7305 24.4006C58.3015 24.4006 57.9634 24.4957 57.7163 24.6861C57.4719 24.8736 57.3029 25.0824 57.2092 25.3125L56.0117 25.0398C56.1538 24.642 56.3612 24.321 56.6339 24.0767C56.9094 23.8295 57.2262 23.6506 57.5842 23.5398C57.9421 23.4261 58.3185 23.3693 58.7134 23.3693C58.9748 23.3693 59.2518 23.4006 59.5444 23.4631C59.8398 23.5227 60.1154 23.6335 60.3711 23.7955C60.6296 23.9574 60.8413 24.1889 61.006 24.4901C61.1708 24.7884 61.2532 25.1761 61.2532 25.6534V30H60.0089V29.1051H59.9577C59.8754 29.2699 59.7518 29.4318 59.587 29.5909C59.4222 29.75 59.2106 29.8821 58.9521 29.9872C58.6935 30.0923 58.3839 30.1449 58.0231 30.1449ZM58.3001 29.1222C58.6523 29.1222 58.9535 29.0526 59.2035 28.9134C59.4563 28.7741 59.6481 28.5923 59.7788 28.3679C59.9123 28.1406 59.979 27.8977 59.979 27.6392V26.7955C59.9336 26.8409 59.8455 26.8835 59.7148 26.9233C59.587 26.9602 59.4407 26.9929 59.2759 27.0213C59.1112 27.0469 58.9506 27.071 58.7944 27.0938C58.6381 27.1136 58.5075 27.1307 58.4023 27.1449C58.1552 27.1761 57.9293 27.2287 57.7248 27.3026C57.5231 27.3764 57.3612 27.483 57.239 27.6222C57.1197 27.7585 57.06 27.9403 57.06 28.1676C57.06 28.483 57.1765 28.7216 57.4094 28.8835C57.6424 29.0426 57.9393 29.1222 58.3001 29.1222ZM65.7074 30.1321C65.0739 30.1321 64.5284 29.9886 64.071 29.7017C63.6165 29.4119 63.267 29.0128 63.0227 28.5043C62.7784 27.9957 62.6562 27.4134 62.6562 26.7571C62.6562 26.0923 62.7812 25.5057 63.0312 24.9972C63.2812 24.4858 63.6335 24.0866 64.0881 23.7997C64.5426 23.5128 65.0781 23.3693 65.6946 23.3693C66.1918 23.3693 66.6349 23.4616 67.0241 23.6463C67.4134 23.8281 67.7273 24.0838 67.9659 24.4134C68.2074 24.7429 68.3509 25.1278 68.3963 25.5682H67.1562C67.0881 25.2614 66.9318 24.9972 66.6875 24.7756C66.446 24.554 66.1222 24.4432 65.7159 24.4432C65.3608 24.4432 65.0497 24.5369 64.7827 24.7244C64.5185 24.9091 64.3125 25.1733 64.1648 25.517C64.017 25.858 63.9432 26.2614 63.9432 26.7273C63.9432 27.2045 64.0156 27.6165 64.1605 27.9631C64.3054 28.3097 64.5099 28.5781 64.7741 28.7685C65.0412 28.9588 65.3551 29.054 65.7159 29.054C65.9574 29.054 66.1761 29.0099 66.3722 28.9219C66.571 28.831 66.7372 28.7017 66.8707 28.5341C67.0071 28.3665 67.1023 28.1648 67.1562 27.929H68.3963C68.3509 28.3523 68.2131 28.7301 67.983 29.0625C67.7528 29.3949 67.4446 29.6562 67.0582 29.8466C66.6747 30.0369 66.2244 30.1321 65.7074 30.1321ZM72.8143 23.4545V24.4773H69.239V23.4545H72.8143ZM70.1978 21.8864H71.4719V28.0781C71.4719 28.3253 71.5089 28.5114 71.5827 28.6364C71.6566 28.7585 71.7518 28.8423 71.8683 28.8878C71.9876 28.9304 72.1168 28.9517 72.256 28.9517C72.3583 28.9517 72.4478 28.9446 72.5245 28.9304C72.6012 28.9162 72.6609 28.9048 72.7035 28.8963L72.9336 29.9489C72.8597 29.9773 72.7546 30.0057 72.6183 30.0341C72.4819 30.0653 72.3114 30.0824 72.1069 30.0852C71.7717 30.0909 71.4592 30.0312 71.1694 29.9062C70.8796 29.7812 70.6452 29.5881 70.4663 29.3267C70.2873 29.0653 70.1978 28.7372 70.1978 28.3423V21.8864ZM74.2237 30V23.4545H75.4979V30H74.2237ZM74.8672 22.4446C74.6456 22.4446 74.4553 22.3707 74.2962 22.223C74.1399 22.0724 74.0618 21.8935 74.0618 21.6861C74.0618 21.4759 74.1399 21.2969 74.2962 21.1491C74.4553 20.9986 74.6456 20.9233 74.8672 20.9233C75.0888 20.9233 75.2777 20.9986 75.4339 21.1491C75.593 21.2969 75.6726 21.4759 75.6726 21.6861C75.6726 21.8935 75.593 22.0724 75.4339 22.223C75.2777 22.3707 75.0888 22.4446 74.8672 22.4446ZM82.8114 23.4545L80.4379 30H79.0742L76.6964 23.4545H78.0643L79.7219 28.4915H79.7901L81.4435 23.4545H82.8114ZM86.6072 30.1321C85.9624 30.1321 85.407 29.9943 84.9411 29.7188C84.478 29.4403 84.12 29.0497 83.8672 28.5469C83.6172 28.0412 83.4922 27.4489 83.4922 26.7699C83.4922 26.0994 83.6172 25.5085 83.8672 24.9972C84.12 24.4858 84.4723 24.0866 84.924 23.7997C85.3786 23.5128 85.9098 23.3693 86.5178 23.3693C86.8871 23.3693 87.245 23.4304 87.5916 23.5526C87.9382 23.6747 88.2493 23.8665 88.5249 24.1278C88.8004 24.3892 89.0178 24.7287 89.1768 25.1463C89.3359 25.5611 89.4155 26.0653 89.4155 26.6591V27.1108H84.2124V26.1562H88.1669C88.1669 25.821 88.0987 25.5241 87.9624 25.2656C87.826 25.0043 87.6342 24.7983 87.3871 24.6477C87.1428 24.4972 86.8558 24.4219 86.5263 24.4219C86.1683 24.4219 85.8558 24.5099 85.5888 24.6861C85.3246 24.8594 85.12 25.0866 84.9751 25.3679C84.8331 25.6463 84.7621 25.9489 84.7621 26.2756V27.0213C84.7621 27.4588 84.8388 27.831 84.9922 28.1378C85.1484 28.4446 85.3658 28.679 85.6442 28.8409C85.9226 29 86.2479 29.0795 86.62 29.0795C86.8615 29.0795 87.0817 29.0455 87.2805 28.9773C87.4794 28.9062 87.6513 28.8011 87.7962 28.6619C87.9411 28.5227 88.0518 28.3509 88.1286 28.1463L89.3345 28.3636C89.2379 28.7187 89.0646 29.0298 88.8146 29.2969C88.5675 29.5611 88.2564 29.767 87.8814 29.9148C87.5092 30.0597 87.0845 30.1321 86.6072 30.1321ZM94.005 30V23.4545H95.228V24.5199H95.3089C95.4453 24.1591 95.6683 23.8778 95.978 23.6761C96.2876 23.4716 96.6584 23.3693 97.0902 23.3693C97.5277 23.3693 97.8942 23.4716 98.1896 23.6761C98.4879 23.8807 98.7081 24.1619 98.8501 24.5199H98.9183C99.0746 24.1705 99.3232 23.892 99.6641 23.6847C100.005 23.4744 100.411 23.3693 100.883 23.3693C101.477 23.3693 101.961 23.5554 102.336 23.9276C102.714 24.2997 102.903 24.8608 102.903 25.6108V30H101.629V25.7301C101.629 25.2869 101.508 24.9659 101.266 24.767C101.025 24.5682 100.737 24.4688 100.401 24.4688C99.9865 24.4688 99.6641 24.5966 99.4339 24.8523C99.2038 25.1051 99.0888 25.4304 99.0888 25.8281V30H97.8189V25.6491C97.8189 25.294 97.7081 25.0085 97.4865 24.7926C97.2649 24.5767 96.9766 24.4688 96.6214 24.4688C96.38 24.4688 96.157 24.5327 95.9524 24.6605C95.7507 24.7855 95.5874 24.9602 95.4624 25.1847C95.3402 25.4091 95.2791 25.669 95.2791 25.9645V30H94.005ZM107.431 30.1321C106.787 30.1321 106.231 29.9943 105.765 29.7188C105.302 29.4403 104.944 29.0497 104.691 28.5469C104.441 28.0412 104.316 27.4489 104.316 26.7699C104.316 26.0994 104.441 25.5085 104.691 24.9972C104.944 24.4858 105.297 24.0866 105.748 23.7997C106.203 23.5128 106.734 23.3693 107.342 23.3693C107.711 23.3693 108.069 23.4304 108.416 23.5526C108.762 23.6747 109.074 23.8665 109.349 24.1278C109.625 24.3892 109.842 24.7287 110.001 25.1463C110.16 25.5611 110.24 26.0653 110.24 26.6591V27.1108H105.037V26.1562H108.991C108.991 25.821 108.923 25.5241 108.787 25.2656C108.65 25.0043 108.458 24.7983 108.211 24.6477C107.967 24.4972 107.68 24.4219 107.35 24.4219C106.993 24.4219 106.68 24.5099 106.413 24.6861C106.149 24.8594 105.944 25.0866 105.799 25.3679C105.657 25.6463 105.586 25.9489 105.586 26.2756V27.0213C105.586 27.4588 105.663 27.831 105.816 28.1378C105.973 28.4446 106.19 28.679 106.468 28.8409C106.747 29 107.072 29.0795 107.444 29.0795C107.686 29.0795 107.906 29.0455 108.105 28.9773C108.304 28.9062 108.475 28.8011 108.62 28.6619C108.765 28.5227 108.876 28.3509 108.953 28.1463L110.159 28.3636C110.062 28.7187 109.889 29.0298 109.639 29.2969C109.392 29.5611 109.081 29.767 108.706 29.9148C108.333 30.0597 107.909 30.1321 107.431 30.1321ZM111.653 30V23.4545H112.876V24.5199H112.957C113.094 24.1591 113.317 23.8778 113.626 23.6761C113.936 23.4716 114.307 23.3693 114.739 23.3693C115.176 23.3693 115.543 23.4716 115.838 23.6761C116.136 23.8807 116.357 24.1619 116.499 24.5199H116.567C116.723 24.1705 116.972 23.892 117.312 23.6847C117.653 23.4744 118.06 23.3693 118.531 23.3693C119.125 23.3693 119.609 23.5554 119.984 23.9276C120.362 24.2997 120.551 24.8608 120.551 25.6108V30H119.277V25.7301C119.277 25.2869 119.156 24.9659 118.915 24.767C118.673 24.5682 118.385 24.4688 118.05 24.4688C117.635 24.4688 117.312 24.5966 117.082 24.8523C116.852 25.1051 116.737 25.4304 116.737 25.8281V30H115.467V25.6491C115.467 25.294 115.357 25.0085 115.135 24.7926C114.913 24.5767 114.625 24.4688 114.27 24.4688C114.028 24.4688 113.805 24.5327 113.601 24.6605C113.399 24.7855 113.236 24.9602 113.111 25.1847C112.989 25.4091 112.928 25.669 112.928 25.9645V30H111.653ZM122.361 30V21.2727H123.635V24.5156H123.712C123.786 24.3793 123.892 24.2216 124.032 24.0426C124.171 23.8636 124.364 23.7074 124.611 23.5739C124.858 23.4375 125.185 23.3693 125.591 23.3693C126.12 23.3693 126.591 23.5028 127.006 23.7699C127.421 24.0369 127.746 24.4219 127.982 24.9247C128.221 25.4276 128.34 26.0327 128.34 26.7401C128.34 27.4474 128.222 28.054 127.986 28.5597C127.75 29.0625 127.426 29.4503 127.015 29.723C126.603 29.9929 126.132 30.1278 125.604 30.1278C125.206 30.1278 124.881 30.0611 124.628 29.9276C124.378 29.794 124.182 29.6378 124.04 29.4588C123.898 29.2798 123.789 29.1207 123.712 28.9815H123.605V30H122.361ZM123.61 26.7273C123.61 27.1875 123.676 27.5909 123.81 27.9375C123.944 28.2841 124.137 28.5554 124.39 28.7514C124.642 28.9446 124.952 29.0412 125.319 29.0412C125.699 29.0412 126.017 28.9403 126.273 28.7386C126.529 28.5341 126.722 28.2571 126.853 27.9077C126.986 27.5582 127.053 27.1648 127.053 26.7273C127.053 26.2955 126.988 25.9077 126.857 25.5639C126.729 25.2202 126.536 24.9489 126.277 24.75C126.022 24.5511 125.702 24.4517 125.319 24.4517C124.949 24.4517 124.637 24.5469 124.381 24.7372C124.128 24.9276 123.936 25.1932 123.806 25.5341C123.675 25.875 123.61 26.2727 123.61 26.7273ZM132.592 30.1321C131.947 30.1321 131.391 29.9943 130.925 29.7188C130.462 29.4403 130.104 29.0497 129.852 28.5469C129.602 28.0412 129.477 27.4489 129.477 26.7699C129.477 26.0994 129.602 25.5085 129.852 24.9972C130.104 24.4858 130.457 24.0866 130.908 23.7997C131.363 23.5128 131.894 23.3693 132.502 23.3693C132.871 23.3693 133.229 23.4304 133.576 23.5526C133.923 23.6747 134.234 23.8665 134.509 24.1278C134.785 24.3892 135.002 24.7287 135.161 25.1463C135.32 25.5611 135.4 26.0653 135.4 26.6591V27.1108H130.197V26.1562H134.151C134.151 25.821 134.083 25.5241 133.947 25.2656C133.81 25.0043 133.619 24.7983 133.371 24.6477C133.127 24.4972 132.84 24.4219 132.511 24.4219C132.153 24.4219 131.84 24.5099 131.573 24.6861C131.309 24.8594 131.104 25.0866 130.96 25.3679C130.817 25.6463 130.746 25.9489 130.746 26.2756V27.0213C130.746 27.4588 130.823 27.831 130.977 28.1378C131.133 28.4446 131.35 28.679 131.629 28.8409C131.907 29 132.232 29.0795 132.604 29.0795C132.846 29.0795 133.066 29.0455 133.265 28.9773C133.464 28.9062 133.636 28.8011 133.781 28.6619C133.925 28.5227 134.036 28.3509 134.113 28.1463L135.319 28.3636C135.222 28.7187 135.049 29.0298 134.799 29.2969C134.552 29.5611 134.241 29.767 133.866 29.9148C133.494 30.0597 133.069 30.1321 132.592 30.1321ZM136.814 30V23.4545H138.045V24.4943H138.113C138.233 24.142 138.443 23.8651 138.744 23.6634C139.048 23.4588 139.392 23.3565 139.775 23.3565C139.855 23.3565 139.949 23.3594 140.056 23.3651C140.167 23.3707 140.254 23.3778 140.316 23.3864V24.6051C140.265 24.5909 140.174 24.5753 140.044 24.5582C139.913 24.5384 139.782 24.5284 139.652 24.5284C139.35 24.5284 139.082 24.5923 138.846 24.7202C138.613 24.8452 138.429 25.0199 138.292 25.2443C138.156 25.4659 138.088 25.7187 138.088 26.0028V30H136.814ZM146.324 25.0526L145.169 25.2571C145.121 25.1094 145.044 24.9687 144.939 24.8352C144.837 24.7017 144.697 24.5923 144.521 24.5071C144.345 24.4219 144.125 24.3793 143.861 24.3793C143.5 24.3793 143.199 24.4602 142.957 24.6222C142.716 24.7812 142.595 24.9872 142.595 25.2401C142.595 25.4588 142.676 25.6349 142.838 25.7685C143 25.902 143.261 26.0114 143.622 26.0966L144.662 26.3352C145.264 26.4744 145.713 26.6889 146.009 26.9787C146.304 27.2685 146.452 27.6449 146.452 28.108C146.452 28.5 146.338 28.8494 146.111 29.1562C145.886 29.4602 145.572 29.6989 145.169 29.8722C144.768 30.0455 144.304 30.1321 143.776 30.1321C143.043 30.1321 142.445 29.9759 141.982 29.6634C141.518 29.348 141.234 28.9006 141.129 28.321L142.361 28.1335C142.438 28.4545 142.595 28.6974 142.834 28.8622C143.072 29.0241 143.384 29.1051 143.767 29.1051C144.185 29.1051 144.518 29.0185 144.768 28.8452C145.018 28.669 145.143 28.4545 145.143 28.2017C145.143 27.9972 145.067 27.8253 144.913 27.6861C144.763 27.5469 144.531 27.4418 144.219 27.3707L143.111 27.1278C142.5 26.9886 142.048 26.767 141.756 26.4631C141.466 26.1591 141.321 25.7741 141.321 25.3082C141.321 24.9219 141.429 24.5838 141.645 24.294C141.861 24.0043 142.159 23.7784 142.54 23.6165C142.92 23.4517 143.357 23.3693 143.848 23.3693C144.555 23.3693 145.112 23.5227 145.518 23.8295C145.925 24.1335 146.193 24.5412 146.324 25.0526Z" fill="white"/>
<path d="M21.9531 40V48H20.7852V40H21.9531ZM25.2705 48.1328C24.8903 48.1328 24.5465 48.0625 24.2393 47.9219C23.932 47.7786 23.6885 47.5716 23.5088 47.3008C23.3317 47.0299 23.2432 46.6979 23.2432 46.3047C23.2432 45.9661 23.3083 45.6875 23.4385 45.4687C23.5687 45.25 23.7445 45.0768 23.9658 44.9492C24.1872 44.8216 24.4346 44.7253 24.708 44.6602C24.9814 44.5951 25.2601 44.5456 25.5439 44.5117C25.9033 44.4701 26.195 44.4362 26.4189 44.4102C26.6429 44.3815 26.8057 44.3359 26.9072 44.2734C27.0088 44.2109 27.0596 44.1094 27.0596 43.9687V43.9414C27.0596 43.6003 26.9632 43.3359 26.7705 43.1484C26.5804 42.9609 26.2965 42.8672 25.9189 42.8672C25.5257 42.8672 25.2158 42.9544 24.9893 43.1289C24.7653 43.3008 24.6104 43.4922 24.5244 43.7031L23.4268 43.4531C23.557 43.0885 23.7471 42.7943 23.9971 42.5703C24.2497 42.3437 24.54 42.1797 24.8682 42.0781C25.1963 41.974 25.5413 41.9219 25.9033 41.9219C26.1429 41.9219 26.3968 41.9505 26.665 42.0078C26.9359 42.0625 27.1885 42.1641 27.4229 42.3125C27.6598 42.4609 27.8538 42.6732 28.0049 42.9492C28.1559 43.2227 28.2314 43.5781 28.2314 44.0156V48H27.0908V47.1797H27.0439C26.9684 47.3307 26.8551 47.4792 26.7041 47.625C26.5531 47.7708 26.359 47.8919 26.1221 47.9883C25.8851 48.0846 25.6012 48.1328 25.2705 48.1328ZM25.5244 47.1953C25.8473 47.1953 26.1234 47.1315 26.3525 47.0039C26.5843 46.8763 26.7601 46.7096 26.8799 46.5039C27.0023 46.2956 27.0635 46.0729 27.0635 45.8359V45.0625C27.0218 45.1042 26.9411 45.1432 26.8213 45.1797C26.7041 45.2135 26.57 45.2435 26.4189 45.2695C26.2679 45.293 26.1208 45.3151 25.9775 45.3359C25.8343 45.3542 25.7145 45.3698 25.6182 45.3828C25.3916 45.4115 25.1846 45.4596 24.9971 45.5273C24.8122 45.5951 24.6637 45.6927 24.5518 45.8203C24.4424 45.9453 24.3877 46.112 24.3877 46.3203C24.3877 46.6094 24.4945 46.8281 24.708 46.9766C24.9215 47.1224 25.1937 47.1953 25.5244 47.1953ZM34.2832 43.4648L33.2246 43.6523C33.1803 43.5169 33.11 43.388 33.0137 43.2656C32.9199 43.1432 32.7923 43.043 32.6309 42.9648C32.4694 42.8867 32.2676 42.8477 32.0254 42.8477C31.6947 42.8477 31.4186 42.9219 31.1973 43.0703C30.9759 43.2161 30.8652 43.4049 30.8652 43.6367C30.8652 43.8372 30.9395 43.9987 31.0879 44.1211C31.2363 44.2435 31.4759 44.3437 31.8066 44.4219L32.7598 44.6406C33.3118 44.7682 33.7233 44.9648 33.9941 45.2305C34.265 45.4961 34.4004 45.8411 34.4004 46.2656C34.4004 46.625 34.2962 46.9453 34.0879 47.2266C33.8822 47.5052 33.5944 47.724 33.2246 47.8828C32.8574 48.0417 32.4316 48.1211 31.9473 48.1211C31.2754 48.1211 30.7272 47.9779 30.3027 47.6914C29.8783 47.4023 29.6178 46.9922 29.5215 46.4609L30.6504 46.2891C30.7207 46.5833 30.8652 46.806 31.084 46.957C31.3027 47.1055 31.5879 47.1797 31.9395 47.1797C32.3223 47.1797 32.6283 47.1003 32.8574 46.9414C33.0866 46.7799 33.2012 46.5833 33.2012 46.3516C33.2012 46.1641 33.1309 46.0065 32.9902 45.8789C32.8522 45.7513 32.64 45.6549 32.3535 45.5898L31.3379 45.3672C30.778 45.2396 30.3639 45.0365 30.0957 44.7578C29.8301 44.4792 29.6973 44.1263 29.6973 43.6992C29.6973 43.3451 29.7962 43.0352 29.9941 42.7695C30.1921 42.5039 30.4655 42.2969 30.8145 42.1484C31.1634 41.9974 31.5632 41.9219 32.0137 41.9219C32.6621 41.9219 33.1725 42.0625 33.5449 42.3437C33.9173 42.6224 34.1634 42.9961 34.2832 43.4648ZM38.4854 42V42.9375H35.208V42H38.4854ZM36.0869 40.5625H37.2549V46.2383C37.2549 46.4648 37.2887 46.6354 37.3564 46.75C37.4242 46.862 37.5114 46.9388 37.6182 46.9805C37.7275 47.0195 37.846 47.0391 37.9736 47.0391C38.0674 47.0391 38.1494 47.0326 38.2197 47.0195C38.29 47.0065 38.3447 46.9961 38.3838 46.9883L38.5947 47.9531C38.527 47.9792 38.4307 48.0052 38.3057 48.0313C38.1807 48.0599 38.0244 48.0755 37.8369 48.0781C37.5296 48.0833 37.2432 48.0286 36.9775 47.9141C36.7119 47.7995 36.4971 47.6224 36.333 47.3828C36.1689 47.1432 36.0869 46.8424 36.0869 46.4805V40.5625ZM42.6885 50.25V42H43.8291V42.9727H43.9268C43.9945 42.8477 44.0921 42.7031 44.2197 42.5391C44.3473 42.375 44.5244 42.2318 44.751 42.1094C44.9775 41.9844 45.277 41.9219 45.6494 41.9219C46.1338 41.9219 46.5661 42.0443 46.9463 42.2891C47.3265 42.5339 47.6247 42.8867 47.8408 43.3477C48.0596 43.8086 48.1689 44.3633 48.1689 45.0117C48.1689 45.6602 48.0609 46.2161 47.8447 46.6797C47.6286 47.1406 47.3317 47.4961 46.9541 47.7461C46.5765 47.9935 46.1455 48.1172 45.6611 48.1172C45.2965 48.1172 44.9984 48.056 44.7666 47.9336C44.5374 47.8112 44.3577 47.668 44.2275 47.5039C44.0973 47.3398 43.9971 47.194 43.9268 47.0664H43.8564V50.25H42.6885ZM43.833 45C43.833 45.4219 43.8942 45.7917 44.0166 46.1094C44.139 46.4271 44.3161 46.6758 44.5479 46.8555C44.7796 47.0326 45.0635 47.1211 45.3994 47.1211C45.7484 47.1211 46.04 47.0286 46.2744 46.8437C46.5088 46.6562 46.6859 46.4023 46.8057 46.082C46.9281 45.7617 46.9893 45.401 46.9893 45C46.9893 44.6042 46.9294 44.2487 46.8096 43.9336C46.6924 43.6185 46.5153 43.3698 46.2783 43.1875C46.0439 43.0052 45.751 42.9141 45.3994 42.9141C45.0609 42.9141 44.7744 43.0013 44.54 43.1758C44.3083 43.3503 44.1325 43.5937 44.0127 43.9062C43.8929 44.2187 43.833 44.5833 43.833 45ZM49.4775 48V42H50.6064V42.9531H50.6689C50.7783 42.6302 50.971 42.3763 51.2471 42.1914C51.5257 42.0039 51.8408 41.9102 52.1924 41.9102C52.2653 41.9102 52.3512 41.9128 52.4502 41.918C52.5518 41.9232 52.6312 41.9297 52.6885 41.9375V43.0547C52.6416 43.0417 52.5583 43.0273 52.4385 43.0117C52.3187 42.9935 52.1989 42.9844 52.0791 42.9844C51.8031 42.9844 51.557 43.043 51.3408 43.1602C51.1273 43.2747 50.958 43.4349 50.833 43.6406C50.708 43.8437 50.6455 44.0755 50.6455 44.3359V48H49.4775ZM56.0117 48.1211C55.4492 48.1211 54.9583 47.9922 54.5391 47.7344C54.1198 47.4766 53.7943 47.1159 53.5625 46.6523C53.3307 46.1888 53.2148 45.6471 53.2148 45.0273C53.2148 44.4049 53.3307 43.8607 53.5625 43.3945C53.7943 42.9284 54.1198 42.5664 54.5391 42.3086C54.9583 42.0508 55.4492 41.9219 56.0117 41.9219C56.5742 41.9219 57.0651 42.0508 57.4844 42.3086C57.9036 42.5664 58.2292 42.9284 58.4609 43.3945C58.6927 43.8607 58.8086 44.4049 58.8086 45.0273C58.8086 45.6471 58.6927 46.1888 58.4609 46.6523C58.2292 47.1159 57.9036 47.4766 57.4844 47.7344C57.0651 47.9922 56.5742 48.1211 56.0117 48.1211ZM56.0156 47.1406C56.3802 47.1406 56.6823 47.0443 56.9219 46.8516C57.1615 46.6589 57.3385 46.4023 57.4531 46.082C57.5703 45.7617 57.6289 45.4089 57.6289 45.0234C57.6289 44.6406 57.5703 44.2891 57.4531 43.9687C57.3385 43.6458 57.1615 43.3867 56.9219 43.1914C56.6823 42.9961 56.3802 42.8984 56.0156 42.8984C55.6484 42.8984 55.3438 42.9961 55.1016 43.1914C54.862 43.3867 54.6836 43.6458 54.5664 43.9687C54.4518 44.2891 54.3945 44.6406 54.3945 45.0234C54.3945 45.4089 54.4518 45.7617 54.5664 46.082C54.6836 46.4023 54.862 46.6589 55.1016 46.8516C55.3438 47.0443 55.6484 47.1406 56.0156 47.1406ZM62.6279 50.375C62.1514 50.375 61.7412 50.3125 61.3975 50.1875C61.0563 50.0625 60.7777 49.8971 60.5615 49.6914C60.3454 49.4857 60.1839 49.2604 60.0771 49.0156L61.0811 48.6016C61.1514 48.7161 61.2451 48.8372 61.3623 48.9648C61.4821 49.0951 61.6436 49.2057 61.8467 49.2969C62.0524 49.388 62.3167 49.4336 62.6396 49.4336C63.0824 49.4336 63.4482 49.3255 63.7373 49.1094C64.0264 48.8958 64.1709 48.5547 64.1709 48.0859V46.9062H64.0967C64.0264 47.0339 63.9248 47.1758 63.792 47.332C63.6618 47.4883 63.4821 47.6237 63.2529 47.7383C63.0238 47.8529 62.7256 47.9102 62.3584 47.9102C61.8844 47.9102 61.4574 47.7995 61.0771 47.5781C60.6995 47.3542 60.4001 47.0247 60.1787 46.5898C59.96 46.1523 59.8506 45.6146 59.8506 44.9766C59.8506 44.3385 59.9587 43.7917 60.1748 43.3359C60.3936 42.8802 60.693 42.5312 61.0732 42.2891C61.4535 42.0443 61.8844 41.9219 62.3662 41.9219C62.7386 41.9219 63.0394 41.9844 63.2686 42.1094C63.4977 42.2318 63.6761 42.375 63.8037 42.5391C63.9339 42.7031 64.0342 42.8477 64.1045 42.9727H64.1904V42H65.335V48.1328C65.335 48.6484 65.2152 49.0716 64.9756 49.4023C64.736 49.7331 64.4118 49.9779 64.0029 50.1367C63.5967 50.2956 63.1383 50.375 62.6279 50.375ZM62.6162 46.9414C62.9521 46.9414 63.236 46.8633 63.4678 46.707C63.7021 46.5482 63.8792 46.3216 63.999 46.0273C64.1214 45.7305 64.1826 45.375 64.1826 44.9609C64.1826 44.5573 64.1227 44.2018 64.0029 43.8945C63.8831 43.5872 63.7074 43.3477 63.4756 43.1758C63.2438 43.0013 62.9574 42.9141 62.6162 42.9141C62.2646 42.9141 61.9717 43.0052 61.7373 43.1875C61.5029 43.3672 61.3258 43.612 61.2061 43.9219C61.0889 44.2318 61.0303 44.5781 61.0303 44.9609C61.0303 45.3542 61.0902 45.6992 61.21 45.9961C61.3298 46.293 61.5068 46.5247 61.7412 46.6914C61.9782 46.8581 62.2699 46.9414 62.6162 46.9414ZM66.9014 48V42H68.0303V42.9531H68.0928C68.2021 42.6302 68.3949 42.3763 68.6709 42.1914C68.9495 42.0039 69.2646 41.9102 69.6162 41.9102C69.6891 41.9102 69.7751 41.9128 69.874 41.918C69.9756 41.9232 70.055 41.9297 70.1123 41.9375V43.0547C70.0654 43.0417 69.9821 43.0273 69.8623 43.0117C69.7425 42.9935 69.6227 42.9844 69.5029 42.9844C69.2269 42.9844 68.9808 43.043 68.7646 43.1602C68.5511 43.2747 68.3818 43.4349 68.2568 43.6406C68.1318 43.8437 68.0693 44.0755 68.0693 44.3359V48H66.9014ZM73.4941 48.1211C72.903 48.1211 72.3939 47.9948 71.9668 47.7422C71.5423 47.487 71.2142 47.1289 70.9824 46.668C70.7533 46.2044 70.6387 45.6615 70.6387 45.0391C70.6387 44.4245 70.7533 43.8828 70.9824 43.4141C71.2142 42.9453 71.5371 42.5794 71.9512 42.3164C72.3678 42.0534 72.8548 41.9219 73.4121 41.9219C73.7507 41.9219 74.0788 41.9779 74.3965 42.0898C74.7142 42.2018 74.9993 42.3776 75.252 42.6172C75.5046 42.8568 75.7038 43.168 75.8496 43.5508C75.9954 43.931 76.0684 44.3932 76.0684 44.9375V45.3516H71.2988V44.4766H74.9238C74.9238 44.1693 74.8613 43.8971 74.7363 43.6602C74.6113 43.4206 74.4355 43.2318 74.209 43.0937C73.985 42.9557 73.722 42.8867 73.4199 42.8867C73.0918 42.8867 72.8053 42.9674 72.5605 43.1289C72.3184 43.2878 72.1309 43.4961 71.998 43.7539C71.8678 44.0091 71.8027 44.2865 71.8027 44.5859V45.2695C71.8027 45.6706 71.873 46.0117 72.0137 46.293C72.1569 46.5742 72.3561 46.7891 72.6113 46.9375C72.8665 47.0833 73.1647 47.1562 73.5059 47.1562C73.7272 47.1562 73.929 47.125 74.1113 47.0625C74.2936 46.9974 74.4512 46.901 74.584 46.7734C74.7168 46.6458 74.8184 46.4883 74.8887 46.3008L75.9941 46.5C75.9056 46.8255 75.7467 47.1107 75.5176 47.3555C75.291 47.5977 75.0059 47.7865 74.6621 47.9219C74.321 48.0547 73.9316 48.1211 73.4941 48.1211ZM81.8604 43.4648L80.8018 43.6523C80.7575 43.5169 80.6872 43.388 80.5908 43.2656C80.4971 43.1432 80.3695 43.043 80.208 42.9648C80.0465 42.8867 79.8447 42.8477 79.6025 42.8477C79.2718 42.8477 78.9958 42.9219 78.7744 43.0703C78.5531 43.2161 78.4424 43.4049 78.4424 43.6367C78.4424 43.8372 78.5166 43.9987 78.665 44.1211C78.8135 44.2435 79.0531 44.3437 79.3838 44.4219L80.3369 44.6406C80.889 44.7682 81.3005 44.9648 81.5713 45.2305C81.8421 45.4961 81.9775 45.8411 81.9775 46.2656C81.9775 46.625 81.8734 46.9453 81.665 47.2266C81.4593 47.5052 81.1715 47.724 80.8018 47.8828C80.4346 48.0417 80.0088 48.1211 79.5244 48.1211C78.8525 48.1211 78.3044 47.9779 77.8799 47.6914C77.4554 47.4023 77.195 46.9922 77.0986 46.4609L78.2275 46.2891C78.2979 46.5833 78.4424 46.806 78.6611 46.957C78.8799 47.1055 79.165 47.1797 79.5166 47.1797C79.8994 47.1797 80.2054 47.1003 80.4346 46.9414C80.6637 46.7799 80.7783 46.5833 80.7783 46.3516C80.7783 46.1641 80.708 46.0065 80.5674 45.8789C80.4294 45.7513 80.2171 45.6549 79.9307 45.5898L78.915 45.3672C78.3551 45.2396 77.9411 45.0365 77.6729 44.7578C77.4072 44.4792 77.2744 44.1263 77.2744 43.6992C77.2744 43.3451 77.3734 43.0352 77.5713 42.7695C77.7692 42.5039 78.0426 42.2969 78.3916 42.1484C78.7406 41.9974 79.1403 41.9219 79.5908 41.9219C80.2393 41.9219 80.7497 42.0625 81.1221 42.3437C81.4945 42.6224 81.7406 42.9961 81.8604 43.4648ZM87.7578 43.4648L86.6992 43.6523C86.6549 43.5169 86.5846 43.388 86.4883 43.2656C86.3945 43.1432 86.2669 43.043 86.1055 42.9648C85.944 42.8867 85.7422 42.8477 85.5 42.8477C85.1693 42.8477 84.8932 42.9219 84.6719 43.0703C84.4505 43.2161 84.3398 43.4049 84.3398 43.6367C84.3398 43.8372 84.4141 43.9987 84.5625 44.1211C84.7109 44.2435 84.9505 44.3437 85.2813 44.4219L86.2344 44.6406C86.7865 44.7682 87.1979 44.9648 87.4688 45.2305C87.7396 45.4961 87.875 45.8411 87.875 46.2656C87.875 46.625 87.7708 46.9453 87.5625 47.2266C87.3568 47.5052 87.069 47.724 86.6992 47.8828C86.332 48.0417 85.9063 48.1211 85.4219 48.1211C84.75 48.1211 84.2018 47.9779 83.7773 47.6914C83.3529 47.4023 83.0924 46.9922 82.9961 46.4609L84.125 46.2891C84.1953 46.5833 84.3398 46.806 84.5586 46.957C84.7773 47.1055 85.0625 47.1797 85.4141 47.1797C85.7969 47.1797 86.1029 47.1003 86.332 46.9414C86.5612 46.7799 86.6758 46.5833 86.6758 46.3516C86.6758 46.1641 86.6055 46.0065 86.4648 45.8789C86.3268 45.7513 86.1146 45.6549 85.8281 45.5898L84.8125 45.3672C84.2526 45.2396 83.8385 45.0365 83.5703 44.7578C83.3047 44.4792 83.1719 44.1263 83.1719 43.6992C83.1719 43.3451 83.2708 43.0352 83.4688 42.7695C83.6667 42.5039 83.9401 42.2969 84.2891 42.1484C84.638 41.9974 85.0378 41.9219 85.4883 41.9219C86.1367 41.9219 86.6471 42.0625 87.0195 42.3437C87.3919 42.6224 87.638 42.9961 87.7578 43.4648ZM91.7451 48.1211C91.154 48.1211 90.6449 47.9948 90.2178 47.7422C89.7933 47.487 89.4652 47.1289 89.2334 46.668C89.0042 46.2044 88.8896 45.6615 88.8896 45.0391C88.8896 44.4245 89.0042 43.8828 89.2334 43.4141C89.4652 42.9453 89.7881 42.5794 90.2021 42.3164C90.6188 42.0534 91.1058 41.9219 91.6631 41.9219C92.0016 41.9219 92.3298 41.9779 92.6475 42.0898C92.9652 42.2018 93.2503 42.3776 93.5029 42.6172C93.7555 42.8568 93.9548 43.168 94.1006 43.5508C94.2464 43.931 94.3193 44.3932 94.3193 44.9375V45.3516H89.5498V44.4766H93.1748C93.1748 44.1693 93.1123 43.8971 92.9873 43.6602C92.8623 43.4206 92.6865 43.2318 92.46 43.0937C92.236 42.9557 91.973 42.8867 91.6709 42.8867C91.3428 42.8867 91.0563 42.9674 90.8115 43.1289C90.5693 43.2878 90.3818 43.4961 90.249 43.7539C90.1188 44.0091 90.0537 44.2865 90.0537 44.5859V45.2695C90.0537 45.6706 90.124 46.0117 90.2646 46.293C90.4079 46.5742 90.6071 46.7891 90.8623 46.9375C91.1175 47.0833 91.4157 47.1562 91.7568 47.1562C91.9782 47.1562 92.18 47.125 92.3623 47.0625C92.5446 46.9974 92.7021 46.901 92.835 46.7734C92.9678 46.6458 93.0693 46.4883 93.1396 46.3008L94.2451 46.5C94.1566 46.8255 93.9977 47.1107 93.7686 47.3555C93.542 47.5977 93.2568 47.7865 92.9131 47.9219C92.5719 48.0547 92.1826 48.1211 91.7451 48.1211ZM97.8613 48.1172C97.377 48.1172 96.9447 47.9935 96.5645 47.7461C96.1868 47.4961 95.89 47.1406 95.6738 46.6797C95.4603 46.2161 95.3535 45.6602 95.3535 45.0117C95.3535 44.3633 95.4616 43.8086 95.6777 43.3477C95.8965 42.8867 96.196 42.5339 96.5762 42.2891C96.9564 42.0443 97.3874 41.9219 97.8691 41.9219C98.2415 41.9219 98.541 41.9844 98.7676 42.1094C98.9967 42.2318 99.1738 42.375 99.2988 42.5391C99.4264 42.7031 99.5254 42.8477 99.5957 42.9727H99.666V40H100.834V48H99.6934V47.0664H99.5957C99.5254 47.194 99.4238 47.3398 99.291 47.5039C99.1608 47.668 98.9811 47.8112 98.752 47.9336C98.5228 48.056 98.2259 48.1172 97.8613 48.1172ZM98.1191 47.1211C98.4551 47.1211 98.7389 47.0326 98.9707 46.8555C99.2051 46.6758 99.3822 46.4271 99.502 46.1094C99.6243 45.7917 99.6855 45.4219 99.6855 45C99.6855 44.5833 99.6257 44.2187 99.5059 43.9062C99.3861 43.5937 99.2103 43.3503 98.9785 43.1758C98.7467 43.0013 98.4603 42.9141 98.1191 42.9141C97.7676 42.9141 97.4746 43.0052 97.2402 43.1875C97.0059 43.3698 96.8288 43.6185 96.709 43.9336C96.5918 44.2487 96.5332 44.6042 96.5332 45C96.5332 45.401 96.5931 45.7617 96.7129 46.082C96.8327 46.4023 97.0098 46.6562 97.2441 46.8437C97.4811 47.0286 97.7728 47.1211 98.1191 47.1211ZM110.885 44.5391L105.697 47.0547V45.8594L109.525 44.1172L109.486 44.1836V44.0156L109.525 44.0859L105.697 42.3398V41.1484L110.885 43.6641V44.5391ZM118.294 39.8906C118.651 39.8932 119.002 39.9583 119.349 40.0859C119.695 40.2135 120.007 40.4219 120.286 40.7109C120.567 41 120.791 41.3906 120.958 41.8828C121.127 42.3724 121.213 42.9818 121.216 43.7109C121.216 44.4115 121.146 45.0352 121.005 45.582C120.864 46.1263 120.662 46.5859 120.399 46.9609C120.139 47.3359 119.823 47.6211 119.45 47.8164C119.078 48.0117 118.659 48.1094 118.192 48.1094C117.716 48.1094 117.293 48.0156 116.923 47.8281C116.553 47.6406 116.252 47.3815 116.021 47.0508C115.789 46.7174 115.644 46.3346 115.587 45.9023H116.778C116.856 46.2461 117.015 46.5247 117.255 46.7383C117.497 46.9492 117.81 47.0547 118.192 47.0547C118.778 47.0547 119.235 46.7995 119.563 46.2891C119.892 45.776 120.057 45.0599 120.06 44.1406H119.997C119.862 44.3646 119.692 44.5573 119.489 44.7187C119.289 44.8802 119.063 45.0052 118.813 45.0937C118.563 45.1823 118.297 45.2266 118.013 45.2266C117.552 45.2266 117.132 45.1133 116.755 44.8867C116.377 44.6602 116.076 44.349 115.853 43.9531C115.629 43.5573 115.517 43.1055 115.517 42.5977C115.517 42.0924 115.631 41.6341 115.86 41.2227C116.092 40.8112 116.415 40.4857 116.829 40.2461C117.246 40.0039 117.734 39.8854 118.294 39.8906ZM118.298 40.9062C117.993 40.9062 117.718 40.9818 117.474 41.1328C117.231 41.2812 117.04 41.4831 116.899 41.7383C116.759 41.9909 116.688 42.2721 116.688 42.582C116.688 42.8919 116.756 43.1732 116.892 43.4258C117.03 43.6758 117.217 43.875 117.454 44.0234C117.694 44.1693 117.967 44.2422 118.274 44.2422C118.504 44.2422 118.717 44.1979 118.915 44.1094C119.113 44.0208 119.286 43.8984 119.435 43.7422C119.583 43.5833 119.699 43.4036 119.782 43.2031C119.866 43.0026 119.907 42.7917 119.907 42.5703C119.907 42.276 119.837 42.0026 119.696 41.75C119.558 41.4974 119.368 41.2943 119.126 41.1406C118.884 40.9844 118.608 40.9062 118.298 40.9062ZM125.412 48.1328C124.795 48.1302 124.268 47.9674 123.83 47.6445C123.393 47.3216 123.058 46.8516 122.826 46.2344C122.594 45.6172 122.479 44.8737 122.479 44.0039C122.479 43.1367 122.594 42.3958 122.826 41.7812C123.061 41.1667 123.396 40.6979 123.834 40.375C124.274 40.0521 124.8 39.8906 125.412 39.8906C126.024 39.8906 126.549 40.0534 126.986 40.3789C127.424 40.7018 127.758 41.1706 127.99 41.7852C128.225 42.3971 128.342 43.1367 128.342 44.0039C128.342 44.8763 128.226 45.6211 127.994 46.2383C127.762 46.8529 127.428 47.3229 126.99 47.6484C126.553 47.9714 126.027 48.1328 125.412 48.1328ZM125.412 47.0898C125.954 47.0898 126.377 46.8255 126.682 46.2969C126.989 45.7682 127.143 45.0039 127.143 44.0039C127.143 43.3398 127.072 42.7786 126.932 42.3203C126.794 41.8594 126.594 41.5104 126.334 41.2734C126.076 41.0339 125.769 40.9141 125.412 40.9141C124.873 40.9141 124.45 41.1797 124.143 41.7109C123.835 42.2422 123.68 43.0065 123.678 44.0039C123.678 44.6706 123.747 45.2344 123.885 45.6953C124.025 46.1536 124.225 46.5013 124.482 46.7383C124.74 46.9727 125.05 47.0898 125.412 47.0898ZM134.9 48.1172C134.416 48.1172 133.984 47.9935 133.604 47.7461C133.226 47.4961 132.929 47.1406 132.713 46.6797C132.499 46.2161 132.393 45.6602 132.393 45.0117C132.393 44.3633 132.501 43.8086 132.717 43.3477C132.936 42.8867 133.235 42.5339 133.615 42.2891C133.995 42.0443 134.426 41.9219 134.908 41.9219C135.281 41.9219 135.58 41.9844 135.807 42.1094C136.036 42.2318 136.213 42.375 136.338 42.5391C136.465 42.7031 136.564 42.8477 136.635 42.9727H136.705V40H137.873V48H136.732V47.0664H136.635C136.564 47.194 136.463 47.3398 136.33 47.5039C136.2 47.668 136.02 47.8112 135.791 47.9336C135.562 48.056 135.265 48.1172 134.9 48.1172ZM135.158 47.1211C135.494 47.1211 135.778 47.0326 136.01 46.8555C136.244 46.6758 136.421 46.4271 136.541 46.1094C136.663 45.7917 136.725 45.4219 136.725 45C136.725 44.5833 136.665 44.2187 136.545 43.9062C136.425 43.5937 136.249 43.3503 136.018 43.1758C135.786 43.0013 135.499 42.9141 135.158 42.9141C134.807 42.9141 134.514 43.0052 134.279 43.1875C134.045 43.3698 133.868 43.6185 133.748 43.9336C133.631 44.2487 133.572 44.6042 133.572 45C133.572 45.401 133.632 45.7617 133.752 46.082C133.872 46.4023 134.049 46.6562 134.283 46.8437C134.52 47.0286 134.812 47.1211 135.158 47.1211ZM141.286 48.1328C140.906 48.1328 140.562 48.0625 140.255 47.9219C139.948 47.7786 139.704 47.5716 139.524 47.3008C139.347 47.0299 139.259 46.6979 139.259 46.3047C139.259 45.9661 139.324 45.6875 139.454 45.4687C139.584 45.25 139.76 45.0768 139.981 44.9492C140.203 44.8216 140.45 44.7253 140.724 44.6602C140.997 44.5951 141.276 44.5456 141.56 44.5117C141.919 44.4701 142.211 44.4362 142.435 44.4102C142.659 44.3815 142.821 44.3359 142.923 44.2734C143.024 44.2109 143.075 44.1094 143.075 43.9687V43.9414C143.075 43.6003 142.979 43.3359 142.786 43.1484C142.596 42.9609 142.312 42.8672 141.935 42.8672C141.541 42.8672 141.231 42.9544 141.005 43.1289C140.781 43.3008 140.626 43.4922 140.54 43.7031L139.442 43.4531C139.573 43.0885 139.763 42.7943 140.013 42.5703C140.265 42.3437 140.556 42.1797 140.884 42.0781C141.212 41.974 141.557 41.9219 141.919 41.9219C142.159 41.9219 142.412 41.9505 142.681 42.0078C142.951 42.0625 143.204 42.1641 143.438 42.3125C143.675 42.4609 143.869 42.6732 144.021 42.9492C144.172 43.2227 144.247 43.5781 144.247 44.0156V48H143.106V47.1797H143.06C142.984 47.3307 142.871 47.4792 142.72 47.625C142.569 47.7708 142.375 47.8919 142.138 47.9883C141.901 48.0846 141.617 48.1328 141.286 48.1328ZM141.54 47.1953C141.863 47.1953 142.139 47.1315 142.368 47.0039C142.6 46.8763 142.776 46.7096 142.896 46.5039C143.018 46.2956 143.079 46.0729 143.079 45.8359V45.0625C143.037 45.1042 142.957 45.1432 142.837 45.1797C142.72 45.2135 142.586 45.2435 142.435 45.2695C142.284 45.293 142.136 45.3151 141.993 45.3359C141.85 45.3542 141.73 45.3698 141.634 45.3828C141.407 45.4115 141.2 45.4596 141.013 45.5273C140.828 45.5951 140.679 45.6927 140.567 45.8203C140.458 45.9453 140.403 46.112 140.403 46.3203C140.403 46.6094 140.51 46.8281 140.724 46.9766C140.937 47.1224 141.209 47.1953 141.54 47.1953ZM146.326 50.25C146.152 50.25 145.993 50.2357 145.85 50.207C145.706 50.181 145.6 50.1523 145.529 50.1211L145.811 49.1641C146.024 49.2214 146.214 49.2461 146.381 49.2383C146.548 49.2305 146.695 49.168 146.822 49.0508C146.952 48.9336 147.067 48.7422 147.166 48.4766L147.311 48.0781L145.115 42H146.365L147.885 46.6562H147.947L149.467 42H150.721L148.248 48.8008C148.133 49.1133 147.988 49.3776 147.811 49.5938C147.633 49.8125 147.423 49.9766 147.178 50.0859C146.933 50.1953 146.649 50.25 146.326 50.25ZM156.314 43.4648L155.256 43.6523C155.212 43.5169 155.141 43.388 155.045 43.2656C154.951 43.1432 154.824 43.043 154.662 42.9648C154.501 42.8867 154.299 42.8477 154.057 42.8477C153.726 42.8477 153.45 42.9219 153.229 43.0703C153.007 43.2161 152.896 43.4049 152.896 43.6367C152.896 43.8372 152.971 43.9987 153.119 44.1211C153.268 44.2435 153.507 44.3437 153.838 44.4219L154.791 44.6406C155.343 44.7682 155.755 44.9648 156.025 45.2305C156.296 45.4961 156.432 45.8411 156.432 46.2656C156.432 46.625 156.327 46.9453 156.119 47.2266C155.913 47.5052 155.626 47.724 155.256 47.8828C154.889 48.0417 154.463 48.1211 153.979 48.1211C153.307 48.1211 152.758 47.9779 152.334 47.6914C151.91 47.4023 151.649 46.9922 151.553 46.4609L152.682 46.2891C152.752 46.5833 152.896 46.806 153.115 46.957C153.334 47.1055 153.619 47.1797 153.971 47.1797C154.354 47.1797 154.66 47.1003 154.889 46.9414C155.118 46.7799 155.232 46.5833 155.232 46.3516C155.232 46.1641 155.162 46.0065 155.021 45.8789C154.883 45.7513 154.671 45.6549 154.385 45.5898L153.369 45.3672C152.809 45.2396 152.395 45.0365 152.127 44.7578C151.861 44.4792 151.729 44.1263 151.729 43.6992C151.729 43.3451 151.827 43.0352 152.025 42.7695C152.223 42.5039 152.497 42.2969 152.846 42.1484C153.195 41.9974 153.594 41.9219 154.045 41.9219C154.693 41.9219 155.204 42.0625 155.576 42.3437C155.949 42.6224 156.195 42.9961 156.314 43.4648ZM162.373 48.1328C161.993 48.1328 161.649 48.0625 161.342 47.9219C161.035 47.7786 160.791 47.5716 160.611 47.3008C160.434 47.0299 160.346 46.6979 160.346 46.3047C160.346 45.9661 160.411 45.6875 160.541 45.4687C160.671 45.25 160.847 45.0768 161.068 44.9492C161.29 44.8216 161.537 44.7253 161.811 44.6602C162.084 44.5951 162.363 44.5456 162.646 44.5117C163.006 44.4701 163.298 44.4362 163.521 44.4102C163.745 44.3815 163.908 44.3359 164.01 44.2734C164.111 44.2109 164.162 44.1094 164.162 43.9687V43.9414C164.162 43.6003 164.066 43.3359 163.873 43.1484C163.683 42.9609 163.399 42.8672 163.021 42.8672C162.628 42.8672 162.318 42.9544 162.092 43.1289C161.868 43.3008 161.713 43.4922 161.627 43.7031L160.529 43.4531C160.66 43.0885 160.85 42.7943 161.1 42.5703C161.352 42.3437 161.643 42.1797 161.971 42.0781C162.299 41.974 162.644 41.9219 163.006 41.9219C163.245 41.9219 163.499 41.9505 163.768 42.0078C164.038 42.0625 164.291 42.1641 164.525 42.3125C164.762 42.4609 164.956 42.6732 165.107 42.9492C165.258 43.2227 165.334 43.5781 165.334 44.0156V48H164.193V47.1797H164.146C164.071 47.3307 163.958 47.4792 163.807 47.625C163.656 47.7708 163.462 47.8919 163.225 47.9883C162.988 48.0846 162.704 48.1328 162.373 48.1328ZM162.627 47.1953C162.95 47.1953 163.226 47.1315 163.455 47.0039C163.687 46.8763 163.863 46.7096 163.982 46.5039C164.105 46.2956 164.166 46.0729 164.166 45.8359V45.0625C164.124 45.1042 164.044 45.1432 163.924 45.1797C163.807 45.2135 163.673 45.2435 163.521 45.2695C163.37 45.293 163.223 45.3151 163.08 45.3359C162.937 45.3542 162.817 45.3698 162.721 45.3828C162.494 45.4115 162.287 45.4596 162.1 45.5273C161.915 45.5951 161.766 45.6927 161.654 45.8203C161.545 45.9453 161.49 46.112 161.49 46.3203C161.49 46.6094 161.597 46.8281 161.811 46.9766C162.024 47.1224 162.296 47.1953 162.627 47.1953ZM169.405 50.375C168.929 50.375 168.519 50.3125 168.175 50.1875C167.834 50.0625 167.555 49.8971 167.339 49.6914C167.123 49.4857 166.961 49.2604 166.854 49.0156L167.858 48.6016C167.929 48.7161 168.022 48.8372 168.14 48.9648C168.259 49.0951 168.421 49.2057 168.624 49.2969C168.83 49.388 169.094 49.4336 169.417 49.4336C169.86 49.4336 170.226 49.3255 170.515 49.1094C170.804 48.8958 170.948 48.5547 170.948 48.0859V46.9062H170.874C170.804 47.0339 170.702 47.1758 170.569 47.332C170.439 47.4883 170.259 47.6237 170.03 47.7383C169.801 47.8529 169.503 47.9102 169.136 47.9102C168.662 47.9102 168.235 47.7995 167.854 47.5781C167.477 47.3542 167.177 47.0247 166.956 46.5898C166.737 46.1523 166.628 45.6146 166.628 44.9766C166.628 44.3385 166.736 43.7917 166.952 43.3359C167.171 42.8802 167.47 42.5312 167.851 42.2891C168.231 42.0443 168.662 41.9219 169.144 41.9219C169.516 41.9219 169.817 41.9844 170.046 42.1094C170.275 42.2318 170.453 42.375 170.581 42.5391C170.711 42.7031 170.812 42.8477 170.882 42.9727H170.968V42H172.112V48.1328C172.112 48.6484 171.993 49.0716 171.753 49.4023C171.513 49.7331 171.189 49.9779 170.78 50.1367C170.374 50.2956 169.916 50.375 169.405 50.375ZM169.394 46.9414C169.729 46.9414 170.013 46.8633 170.245 46.707C170.479 46.5482 170.657 46.3216 170.776 46.0273C170.899 45.7305 170.96 45.375 170.96 44.9609C170.96 44.5573 170.9 44.2018 170.78 43.8945C170.66 43.5872 170.485 43.3477 170.253 43.1758C170.021 43.0013 169.735 42.9141 169.394 42.9141C169.042 42.9141 168.749 43.0052 168.515 43.1875C168.28 43.3672 168.103 43.612 167.983 43.9219C167.866 44.2318 167.808 44.5781 167.808 44.9609C167.808 45.3542 167.868 45.6992 167.987 45.9961C168.107 46.293 168.284 46.5247 168.519 46.6914C168.756 46.8581 169.047 46.9414 169.394 46.9414ZM176.206 48.1211C175.644 48.1211 175.153 47.9922 174.733 47.7344C174.314 47.4766 173.989 47.1159 173.757 46.6523C173.525 46.1888 173.409 45.6471 173.409 45.0273C173.409 44.4049 173.525 43.8607 173.757 43.3945C173.989 42.9284 174.314 42.5664 174.733 42.3086C175.153 42.0508 175.644 41.9219 176.206 41.9219C176.769 41.9219 177.259 42.0508 177.679 42.3086C178.098 42.5664 178.424 42.9284 178.655 43.3945C178.887 43.8607 179.003 44.4049 179.003 45.0273C179.003 45.6471 178.887 46.1888 178.655 46.6523C178.424 47.1159 178.098 47.4766 177.679 47.7344C177.259 47.9922 176.769 48.1211 176.206 48.1211ZM176.21 47.1406C176.575 47.1406 176.877 47.0443 177.116 46.8516C177.356 46.6589 177.533 46.4023 177.647 46.082C177.765 45.7617 177.823 45.4089 177.823 45.0234C177.823 44.6406 177.765 44.2891 177.647 43.9687C177.533 43.6458 177.356 43.3867 177.116 43.1914C176.877 42.9961 176.575 42.8984 176.21 42.8984C175.843 42.8984 175.538 42.9961 175.296 43.1914C175.056 43.3867 174.878 43.6458 174.761 43.9687C174.646 44.2891 174.589 44.6406 174.589 45.0234C174.589 45.4089 174.646 45.7617 174.761 46.082C174.878 46.4023 175.056 46.6589 175.296 46.8516C175.538 47.0443 175.843 47.1406 176.21 47.1406Z" fill="white" fill-opacity="0.5"/>
</svg>
