<svg viewBox="0 0 238 68" fill="none" xmlns="http://www.w3.org/2000/svg">
<rect width="8" height="8" rx="2" fill="#212C3E"/>
<rect x="10" width="8" height="8" rx="2" fill="#212C3E"/>
<rect x="20" width="8" height="8" rx="2" fill="#212C3E"/>
<rect x="30" width="8" height="8" rx="2" fill="#212C3E"/>
<rect x="40" width="8" height="8" rx="2" fill="#212C3E"/>
<rect x="50" width="8" height="8" rx="2" fill="#212C3E"/>
<rect x="60" width="8" height="8" rx="2" fill="#212C3E"/>
<rect x="70" width="8" height="8" rx="2" fill="#212C3E"/>
<rect x="80" width="8" height="8" rx="2" fill="#212C3E"/>
<rect x="90" width="8" height="8" rx="2" fill="#212C3E"/>
<rect x="100" width="8" height="8" rx="2" fill="#212C3E"/>
<rect x="110" width="8" height="8" rx="2" fill="#212C3E"/>
<rect x="120" width="8" height="8" rx="2" fill="#212C3E"/>
<rect x="130" width="8" height="8" rx="2" fill="#212C3E"/>
<rect x="140" width="8" height="8" rx="2" fill="#212C3E"/>
<rect x="150" width="8" height="8" rx="2" fill="#212C3E"/>
<rect x="160" width="8" height="8" rx="2" fill="#212C3E"/>
<rect x="170" width="8" height="8" rx="2" fill="#212C3E"/>
<rect x="180" width="8" height="8" rx="2" fill="#212C3E"/>
<rect x="190" width="8" height="8" rx="2" fill="#212C3E"/>
<rect x="200" width="8" height="8" rx="2" fill="#212C3E"/>
<rect x="210" width="8" height="8" rx="2" fill="#212C3E"/>
<rect x="220" width="8" height="8" rx="2" fill="#212C3E"/>
<rect x="230" width="8" height="8" rx="2" fill="#212C3E"/>
<rect y="10" width="8" height="8" rx="2" fill="#212C3E"/>
<rect x="10" y="10" width="8" height="8" rx="2" fill="#212C3E"/>
<rect x="20" y="10" width="8" height="8" rx="2" fill="#212C3E"/>
<rect x="30" y="10" width="8" height="8" rx="2" fill="#212C3E"/>
<rect x="40" y="10" width="8" height="8" rx="2" fill="#212C3E"/>
<rect x="50" y="10" width="8" height="8" rx="2" fill="#212C3E"/>
<rect x="60" y="10" width="8" height="8" rx="2" fill="#212C3E"/>
<rect x="70" y="10" width="8" height="8" rx="2" fill="#212C3E"/>
<rect x="80" y="10" width="8" height="8" rx="2" fill="#212C3E"/>
<rect x="90" y="10" width="8" height="8" rx="2" fill="#212C3E"/>
<rect x="100" y="10" width="8" height="8" rx="2" fill="#212C3E"/>
<rect x="110" y="10" width="8" height="8" rx="2" fill="#212C3E"/>
<rect x="120" y="10" width="8" height="8" rx="2" fill="#212C3E"/>
<rect x="130" y="10" width="8" height="8" rx="2" fill="#212C3E"/>
<rect x="140" y="10" width="8" height="8" rx="2" fill="#212C3E"/>
<rect x="150" y="10" width="8" height="8" rx="2" fill="#212C3E"/>
<rect x="160" y="10" width="8" height="8" rx="2" fill="#212C3E"/>
<rect x="170" y="10" width="8" height="8" rx="2" fill="#212C3E"/>
<rect x="180" y="10" width="8" height="8" rx="2" fill="#212C3E"/>
<rect x="190" y="10" width="8" height="8" rx="2" fill="#212C3E"/>
<rect x="200" y="10" width="8" height="8" rx="2" fill="#212C3E"/>
<rect x="210" y="10" width="8" height="8" rx="2" fill="#212C3E"/>
<rect x="220" y="10" width="8" height="8" rx="2" fill="#212C3E"/>
<rect x="230" y="10" width="8" height="8" rx="2" fill="#212C3E"/>
<rect y="20" width="8" height="8" rx="2" fill="#212C3E"/>
<rect x="10" y="20" width="8" height="8" rx="2" fill="#212C3E"/>
<rect x="20" y="20" width="8" height="8" rx="2" fill="#212C3E"/>
<rect x="30" y="20" width="8" height="8" rx="2" fill="#212C3E"/>
<rect x="40" y="20" width="8" height="8" rx="2" fill="#212C3E"/>
<rect x="50" y="20" width="8" height="8" rx="2" fill="#212C3E"/>
<rect x="60" y="20" width="8" height="8" rx="2" fill="#212C3E"/>
<rect x="70" y="20" width="8" height="8" rx="2" fill="#212C3E"/>
<rect x="80" y="20" width="8" height="8" rx="2" fill="#212C3E"/>
<rect x="90" y="20" width="8" height="8" rx="2" fill="#212C3E"/>
<rect x="100" y="20" width="8" height="8" rx="2" fill="#212C3E"/>
<rect x="110" y="20" width="8" height="8" rx="2" fill="#212C3E"/>
<rect x="120" y="20" width="8" height="8" rx="2" fill="#212C3E"/>
<rect x="130" y="20" width="8" height="8" rx="2" fill="#212C3E"/>
<rect x="140" y="20" width="8" height="8" rx="2" fill="#212C3E"/>
<rect x="150" y="20" width="8" height="8" rx="2" fill="#212C3E"/>
<rect x="160" y="20" width="8" height="8" rx="2" fill="#212C3E"/>
<rect x="170" y="20" width="8" height="8" rx="2" fill="#212C3E"/>
<rect x="180" y="20" width="8" height="8" rx="2" fill="#212C3E"/>
<rect x="190" y="20" width="8" height="8" rx="2" fill="#212C3E"/>
<rect x="200" y="20" width="8" height="8" rx="2" fill="#212C3E"/>
<rect x="210" y="20" width="8" height="8" rx="2" fill="#212C3E"/>
<rect x="220" y="20" width="8" height="8" rx="2" fill="#212C3E"/>
<rect x="230" y="20" width="8" height="8" rx="2" fill="#212C3E"/>
<rect y="30" width="8" height="8" rx="2" fill="#212C3E"/>
<rect x="10" y="30" width="8" height="8" rx="2" fill="#212C3E"/>
<rect x="20" y="30" width="8" height="8" rx="2" fill="#212C3E"/>
<rect x="30" y="30" width="8" height="8" rx="2" fill="#212C3E"/>
<rect x="40" y="30" width="8" height="8" rx="2" fill="#212C3E"/>
<rect x="50" y="30" width="8" height="8" rx="2" fill="#212C3E"/>
<rect x="60" y="30" width="8" height="8" rx="2" fill="#212C3E"/>
<rect x="70" y="30" width="8" height="8" rx="2" fill="#212C3E"/>
<rect x="80" y="30" width="8" height="8" rx="2" fill="#212C3E"/>
<rect x="90" y="30" width="8" height="8" rx="2" fill="#212C3E"/>
<rect x="100" y="30" width="8" height="8" rx="2" fill="#212C3E"/>
<rect x="110" y="30" width="8" height="8" rx="2" fill="#212C3E"/>
<rect x="120" y="30" width="8" height="8" rx="2" fill="#212C3E"/>
<rect x="130" y="30" width="8" height="8" rx="2" fill="#212C3E"/>
<rect x="140" y="30" width="8" height="8" rx="2" fill="#212C3E"/>
<rect x="150" y="30" width="8" height="8" rx="2" fill="#212C3E"/>
<rect x="160" y="30" width="8" height="8" rx="2" fill="#212C3E"/>
<rect x="170" y="30" width="8" height="8" rx="2" fill="#212C3E"/>
<rect x="180" y="30" width="8" height="8" rx="2" fill="#212C3E"/>
<rect x="190" y="30" width="8" height="8" rx="2" fill="#212C3E"/>
<rect x="200" y="30" width="8" height="8" rx="2" fill="#212C3E"/>
<rect x="210" y="30" width="8" height="8" rx="2" fill="#212C3E"/>
<rect x="220" y="30" width="8" height="8" rx="2" fill="#212C3E"/>
<rect x="230" y="30" width="8" height="8" rx="2" fill="#212C3E"/>
<rect y="40" width="8" height="8" rx="2" fill="#212C3E"/>
<rect x="10" y="40" width="8" height="8" rx="2" fill="#212C3E"/>
<rect x="20" y="40" width="8" height="8" rx="2" fill="#212C3E"/>
<rect x="30" y="40" width="8" height="8" rx="2" fill="#212C3E"/>
<rect x="40" y="40" width="8" height="8" rx="2" fill="#212C3E"/>
<rect x="50" y="40" width="8" height="8" rx="2" fill="#212C3E"/>
<rect x="60" y="40" width="8" height="8" rx="2" fill="#212C3E"/>
<rect x="70" y="40" width="8" height="8" rx="2" fill="#212C3E"/>
<rect x="80" y="40" width="8" height="8" rx="2" fill="#212C3E"/>
<rect x="90" y="40" width="8" height="8" rx="2" fill="#212C3E"/>
<rect x="100" y="40" width="8" height="8" rx="2" fill="#212C3E"/>
<rect x="110" y="40" width="8" height="8" rx="2" fill="#212C3E"/>
<rect x="120" y="40" width="8" height="8" rx="2" fill="#212C3E"/>
<rect x="130" y="40" width="8" height="8" rx="2" fill="#212C3E"/>
<rect x="140" y="40" width="8" height="8" rx="2" fill="#212C3E"/>
<rect x="150" y="40" width="8" height="8" rx="2" fill="#212C3E"/>
<rect x="160" y="40" width="8" height="8" rx="2" fill="#212C3E"/>
<rect x="170" y="40" width="8" height="8" rx="2" fill="#212C3E"/>
<rect x="180" y="40" width="8" height="8" rx="2" fill="#212C3E"/>
<rect x="190" y="40" width="8" height="8" rx="2" fill="#212C3E"/>
<rect x="200" y="40" width="8" height="8" rx="2" fill="#212C3E"/>
<rect x="210" y="40" width="8" height="8" rx="2" fill="#212C3E"/>
<rect x="220" y="40" width="8" height="8" rx="2" fill="#212C3E"/>
<rect x="230" y="40" width="8" height="8" rx="2" fill="#212C3E"/>
<rect y="50" width="8" height="8" rx="2" fill="#212C3E"/>
<rect x="10" y="50" width="8" height="8" rx="2" fill="#212C3E"/>
<rect x="20" y="50" width="8" height="8" rx="2" fill="#212C3E"/>
<rect x="30" y="50" width="8" height="8" rx="2" fill="#212C3E"/>
<rect x="40" y="50" width="8" height="8" rx="2" fill="#212C3E"/>
<rect x="50" y="50" width="8" height="8" rx="2" fill="#212C3E"/>
<rect x="60" y="50" width="8" height="8" rx="2" fill="#212C3E"/>
<rect x="70" y="50" width="8" height="8" rx="2" fill="#212C3E"/>
<rect x="80" y="50" width="8" height="8" rx="2" fill="#212C3E"/>
<rect x="90" y="50" width="8" height="8" rx="2" fill="#212C3E"/>
<rect x="100" y="50" width="8" height="8" rx="2" fill="#212C3E"/>
<rect x="110" y="50" width="8" height="8" rx="2" fill="#212C3E"/>
<rect x="120" y="50" width="8" height="8" rx="2" fill="#212C3E"/>
<rect x="130" y="50" width="8" height="8" rx="2" fill="#212C3E"/>
<rect x="140" y="50" width="8" height="8" rx="2" fill="#212C3E"/>
<rect x="150" y="50" width="8" height="8" rx="2" fill="#212C3E"/>
<rect x="160" y="50" width="8" height="8" rx="2" fill="#212C3E"/>
<rect x="170" y="50" width="8" height="8" rx="2" fill="#212C3E"/>
<rect x="180" y="50" width="8" height="8" rx="2" fill="#212C3E"/>
<rect x="190" y="50" width="8" height="8" rx="2" fill="#212C3E"/>
<rect x="200" y="50" width="8" height="8" rx="2" fill="#212C3E"/>
<rect x="210" y="50" width="8" height="8" rx="2" fill="#212C3E"/>
<rect x="220" y="50" width="8" height="8" rx="2" fill="#212C3E"/>
<rect x="230" y="50" width="8" height="8" rx="2" fill="#212C3E"/>
<rect y="60" width="8" height="8" rx="2" fill="#212C3E"/>
<rect x="10" y="60" width="8" height="8" rx="2" fill="#212C3E"/>
<rect x="20" y="60" width="8" height="8" rx="2" fill="#212C3E"/>
<rect x="30" y="60" width="8" height="8" rx="2" fill="#212C3E"/>
<rect x="40" y="60" width="8" height="8" rx="2" fill="#212C3E"/>
<rect x="50" y="60" width="8" height="8" rx="2" fill="#212C3E"/>
<rect x="60" y="60" width="8" height="8" rx="2" fill="#212C3E"/>
<rect x="70" y="60" width="8" height="8" rx="2" fill="#212C3E"/>
<rect x="80" y="60" width="8" height="8" rx="2" fill="#212C3E"/>
<rect x="90" y="60" width="8" height="8" rx="2" fill="#212C3E"/>
<rect x="100" y="60" width="8" height="8" rx="2" fill="#212C3E"/>
<rect x="110" y="60" width="8" height="8" rx="2" fill="#212C3E"/>
<rect x="120" y="60" width="8" height="8" rx="2" fill="#212C3E"/>
<rect x="130" y="60" width="8" height="8" rx="2" fill="#212C3E"/>
<rect x="140" y="60" width="8" height="8" rx="2" fill="#212C3E"/>
<rect x="150" y="60" width="8" height="8" rx="2" fill="#212C3E"/>
<rect x="160" y="60" width="8" height="8" rx="2" fill="#212C3E"/>
<rect x="170" y="60" width="8" height="8" rx="2" fill="#212C3E"/>
<rect x="180" y="60" width="8" height="8" rx="2" fill="#212C3E"/>
<rect x="190" y="60" width="8" height="8" rx="2" fill="#212C3E"/>
<rect x="200" y="60" width="8" height="8" rx="2" fill="#212C3E"/>
<rect x="210" y="60" width="8" height="8" rx="2" fill="#212C3E"/>
<rect x="220" y="60" width="8" height="8" rx="2" fill="#212C3E"/>
<rect x="230" y="60" width="8" height="8" rx="2" fill="#212C3E"/>
<rect x="50" width="8" height="8" rx="2" fill="#3B82F6" fill-opacity="0.2"/>
<rect x="70" width="8" height="8" rx="2" fill="#3B82F6" fill-opacity="0.2"/>
<rect x="170" width="8" height="8" rx="2" fill="#3B82F6" fill-opacity="0.2"/>
<rect x="100" y="10" width="8" height="8" rx="2" fill="#3B82F6" fill-opacity="0.2"/>
<rect x="210" y="10" width="8" height="8" rx="2" fill="#3B82F6" fill-opacity="0.2"/>
<rect x="160" y="20" width="8" height="8" rx="2" fill="#3B82F6" fill-opacity="0.2"/>
<rect y="30" width="8" height="8" rx="2" fill="#3B82F6" fill-opacity="0.2"/>
<rect x="10" y="40" width="8" height="8" rx="2" fill="#3B82F6" fill-opacity="0.2"/>
<rect x="50" y="40" width="8" height="8" rx="2" fill="#3B82F6" fill-opacity="0.2"/>
<rect x="80" y="50" width="8" height="8" rx="2" fill="#3B82F6" fill-opacity="0.2"/>
<rect x="170" y="50" width="8" height="8" rx="2" fill="#3B82F6" fill-opacity="0.2"/>
<rect x="30" y="60" width="8" height="8" rx="2" fill="#3B82F6" fill-opacity="0.2"/>
<rect x="90" width="8" height="8" rx="2" fill="#3B82F6" fill-opacity="0.4"/>
<rect x="150" width="8" height="8" rx="2" fill="#3B82F6" fill-opacity="0.4"/>
<rect x="220" width="8" height="8" rx="2" fill="#3B82F6" fill-opacity="0.4"/>
<rect x="40" y="10" width="8" height="8" rx="2" fill="#3B82F6" fill-opacity="0.4"/>
<rect x="120" y="10" width="8" height="8" rx="2" fill="#3B82F6" fill-opacity="0.4"/>
<rect x="190" y="10" width="8" height="8" rx="2" fill="#3B82F6" fill-opacity="0.4"/>
<rect x="70" y="20" width="8" height="8" rx="2" fill="#3B82F6" fill-opacity="0.4"/>
<rect x="30" y="30" width="8" height="8" rx="2" fill="#3B82F6" fill-opacity="0.4"/>
<rect x="110" y="30" width="8" height="8" rx="2" fill="#3B82F6" fill-opacity="0.4"/>
<rect x="170" y="30" width="8" height="8" rx="2" fill="#3B82F6" fill-opacity="0.4"/>
<rect x="30" y="40" width="8" height="8" rx="2" fill="#3B82F6" fill-opacity="0.4"/>
<rect x="60" y="40" width="8" height="8" rx="2" fill="#3B82F6" fill-opacity="0.4"/>
<rect x="210" y="40" width="8" height="8" rx="2" fill="#3B82F6" fill-opacity="0.4"/>
<rect x="110" y="50" width="8" height="8" rx="2" fill="#3B82F6" fill-opacity="0.4"/>
<rect x="210" y="50" width="8" height="8" rx="2" fill="#3B82F6" fill-opacity="0.4"/>
<rect x="210" y="60" width="8" height="8" rx="2" fill="#3B82F6" fill-opacity="0.4"/>
<rect x="100" width="8" height="8" rx="2" fill="#3B82F6"/>
<rect x="150" y="10" width="8" height="8" rx="2" fill="#3B82F6"/>
<rect x="220" y="10" width="8" height="8" rx="2" fill="#3B82F6"/>
<rect x="20" y="20" width="8" height="8" rx="2" fill="#3B82F6"/>
<rect x="50" y="20" width="8" height="8" rx="2" fill="#3B82F6"/>
<rect x="120" y="20" width="8" height="8" rx="2" fill="#3B82F6"/>
<rect x="190" y="20" width="8" height="8" rx="2" fill="#3B82F6"/>
<rect x="140" y="30" width="8" height="8" rx="2" fill="#3B82F6"/>
<rect x="80" y="40" width="8" height="8" rx="2" fill="#3B82F6"/>
<rect x="110" y="40" width="8" height="8" rx="2" fill="#3B82F6"/>
<rect x="30" y="50" width="8" height="8" rx="2" fill="#3B82F6"/>
<rect x="150" y="50" width="8" height="8" rx="2" fill="#3B82F6"/>
<rect x="190" y="50" width="8" height="8" rx="2" fill="#3B82F6"/>
<rect x="220" y="50" width="8" height="8" rx="2" fill="#3B82F6"/>
<rect x="110" y="60" width="8" height="8" rx="2" fill="#3B82F6"/>
</svg>
