<?xml version="1.0" standalone="no"?>
<!DOCTYPE svg PUBLIC "-//W3C//DTD SVG 20010904//EN"
 "http://www.w3.org/TR/2001/REC-SVG-20010904/DTD/svg10.dtd">
<svg version="1.0" xmlns="http://www.w3.org/2000/svg"
 width="1024.000000pt" height="1024.000000pt" viewBox="0 0 1024.000000 1024.000000"
 preserveAspectRatio="xMidYMid meet">
<g transform="translate(-115.000000,1180.000000) scale(0.120000,-0.120000)"
fill="currentColor" stroke="none">
<path d="M1995 8925 c-128 -65 -169 -175 -111 -299 49 -107 47 -27 17 -766
-12 -271 -16 -310 -34 -311 -7 0 -152 0 -324 1 -269 1 -317 -1 -346 -15 -38
-18 -197 -175 -197 -195 0 -19 161 -180 180 -180 8 0 47 32 85 71 92 93 105
99 215 99 91 0 123 -9 148 -39 30 -38 71 -131 81 -186 7 -39 11 -317 11 -832
0 -656 -2 -778 -14 -802 -17 -33 -76 -86 -104 -95 -37 -12 -34 -35 7 -55 45
-23 98 -81 107 -116 3 -14 4 -339 1 -722 -6 -876 -26 -1161 -98 -1386 -23 -71
-33 -46 121 -282 47 -71 92 -144 102 -161 9 -17 41 -68 72 -113 31 -45 56 -84
56 -87 0 -3 17 -31 38 -64 20 -32 45 -72 54 -89 23 -41 41 -39 75 10 15 22 43
60 61 85 19 25 39 55 45 67 7 12 51 81 100 154 48 72 87 134 87 137 0 2 34 55
75 116 102 151 97 136 76 217 -10 39 -21 76 -25 81 -10 16 -43 228 -58 372
-10 98 -13 503 -13 1890 0 1560 2 1768 15 1790 65 106 69 109 158 110 90 0
107 -9 197 -99 38 -39 77 -71 85 -71 19 0 180 161 180 180 0 20 -159 177 -197
195 -29 14 -73 16 -301 15 -147 -1 -275 -1 -284 -1 -15 1 -18 11 -18 69 0 37
-4 137 -10 222 -5 85 -14 263 -21 395 -6 132 -12 254 -15 271 -2 21 3 38 16
52 70 75 88 147 54 217 -24 51 -134 151 -180 164 -63 17 -115 13 -169 -14z"/>
<path d="M5515 8810 c10 -11 20 -20 23 -20 3 0 -3 9 -13 20 -10 11 -20 20 -23
20 -3 0 3 -9 13 -20z"/>
<path d="M5661 8578 c-15 -46 -34 -168 -28 -174 3 -3 10 21 17 53 6 32 16 78
21 102 12 52 5 66 -10 19z"/>
<path d="M6251 8430 c14 -31 19 -36 19 -24 0 6 -7 19 -16 30 -14 18 -14 18 -3
-6z"/>
<path d="M5887 8383 c-14 -4 -17 -11 -13 -29 4 -15 0 -34 -10 -49 -9 -14 -20
-40 -23 -58 -6 -29 -11 -32 -45 -35 -21 -2 -52 2 -68 9 -26 11 -32 9 -58 -16
-44 -42 -39 -80 21 -180 29 -47 33 -51 65 -47 47 6 52 19 6 18 -33 -1 -39 3
-54 34 -25 52 -32 111 -15 134 13 18 16 18 60 3 25 -8 56 -13 68 -10 15 4 26
0 35 -12 22 -30 18 -46 -11 -39 -20 5 -25 2 -25 -13 0 -26 10 -35 26 -22 18
15 34 3 34 -26 0 -14 9 -29 20 -35 14 -8 20 -8 20 0 0 6 4 9 9 5 6 -3 7 -35 4
-74 -4 -48 -2 -70 6 -76 17 -10 27 3 13 17 -17 17 -15 64 4 82 8 9 13 20 9 26
-3 5 -2 25 3 43 7 23 6 45 -3 70 -11 32 -10 38 5 52 25 23 40 18 47 -15 4 -20
16 -36 34 -46 28 -14 30 -31 7 -61 -6 -7 -4 -13 4 -16 10 -4 11 -7 1 -18 -7
-7 -13 -21 -13 -30 0 -21 -22 -38 -28 -21 -5 15 -25 15 -40 0 -8 -8 -8 -15 -1
-24 6 -7 11 -34 12 -60 0 -38 -4 -51 -23 -66 -13 -11 -31 -16 -41 -13 -11 4
-19 2 -19 -4 0 -6 -8 -11 -17 -11 -10 0 -25 -5 -33 -11 -11 -8 -1 -9 38 -4 29
3 58 8 65 10 13 5 37 -38 37 -67 0 -10 5 -18 10 -18 19 0 10 -18 -11 -23 -16
-4 -20 -10 -14 -24 14 -34 10 -46 -19 -56 -27 -9 -32 -7 -58 24 -30 35 -39 29
-12 -9 19 -27 13 -37 -13 -24 -10 6 -30 15 -45 21 -16 6 -28 17 -28 25 0 16
-27 29 -35 17 -2 -5 9 -23 26 -39 l32 -31 -27 -7 c-31 -8 -111 12 -127 32 -6
8 -28 14 -49 14 -32 0 -39 4 -44 24 -3 14 -3 32 0 41 4 10 -2 25 -16 40 -28
30 -42 89 -26 111 11 14 15 15 34 3 12 -8 22 -16 22 -20 0 -3 15 -3 33 -1 36
5 85 42 105 78 19 36 4 29 -39 -17 -35 -38 -41 -41 -76 -34 -21 4 -62 6 -90 6
-34 -1 -53 3 -53 10 0 7 -9 0 -21 -14 -26 -35 -92 -55 -114 -37 -20 17 -46 66
-56 105 -5 21 -7 3 -8 -55 -1 -68 3 -91 19 -117 11 -18 22 -33 25 -33 2 0 -5
15 -16 34 -11 18 -17 41 -13 50 5 14 13 9 41 -24 19 -22 39 -37 44 -34 6 3 2
12 -8 19 -25 18 -11 28 27 20 21 -5 30 -11 26 -21 -7 -17 14 -18 49 -2 22 10
27 9 39 -8 9 -12 11 -23 5 -30 -5 -6 -7 -19 -3 -28 5 -12 0 -16 -20 -16 -14 0
-35 -5 -45 -12 -15 -9 -27 -6 -65 16 -44 26 -68 24 -26 -2 27 -17 25 -27 -7
-29 -14 0 -30 -8 -35 -17 -5 -9 -16 -16 -25 -16 -13 0 -13 3 -3 15 10 12 10
16 -1 19 -52 16 -51 14 -44 59 l7 42 -21 -19 c-12 -11 -19 -26 -16 -36 8 -26
-4 -50 -22 -43 -16 6 -103 -36 -103 -49 0 -14 -47 -9 -60 6 -16 20 -54 3 -101
-46 -20 -21 -41 -38 -47 -38 -7 0 -12 -5 -12 -10 0 -7 6 -7 19 0 28 14 58 12
65 -5 3 -8 -2 -19 -12 -24 -16 -10 -16 -10 1 -11 24 0 21 -23 -5 -35 -12 -6
-24 -16 -26 -23 -3 -11 -1 -11 17 -1 16 11 29 11 63 2 29 -8 47 -8 55 -1 14
11 56 1 48 -12 -3 -5 -19 -11 -35 -15 -48 -11 -38 -35 13 -31 23 1 51 6 62 10
16 7 17 6 5 -4 -13 -9 -12 -11 5 -9 29 4 85 -11 85 -22 0 -4 -9 -23 -20 -41
-29 -49 -24 -56 13 -20 41 40 51 40 43 2 -4 -21 -2 -29 5 -24 15 9 29 -14 29
-48 0 -40 54 -98 91 -98 26 0 29 -3 23 -25 -4 -17 -1 -27 9 -31 9 -3 13 -13
10 -25 -3 -12 0 -19 8 -19 11 0 11 -2 -1 -10 -15 -9 -13 -11 12 -14 7 0 19
-20 28 -43 9 -24 21 -48 28 -55 20 -20 14 -26 -30 -31 -164 -20 -347 -122
-408 -228 -14 -23 -57 -74 -96 -111 -39 -38 -84 -86 -99 -108 -15 -22 -41 -44
-59 -50 -34 -12 -117 -80 -97 -80 7 0 21 -21 33 -46 19 -45 19 -48 3 -85 -10
-21 -28 -45 -41 -54 -29 -19 -34 -53 -12 -86 22 -33 102 -46 163 -25 50 18 54
31 16 51 -29 15 -42 35 -22 35 5 0 11 10 14 23 2 12 8 31 12 42 8 19 8 19 -12
3 -27 -25 -40 -22 -57 11 -13 25 -13 31 0 50 9 12 20 18 26 15 6 -4 22 6 35
22 20 25 23 26 23 9 1 -19 1 -19 15 -1 10 13 21 17 39 12 14 -3 28 -2 31 4 3
5 15 10 25 10 22 0 37 -53 25 -89 -8 -27 16 -28 32 -1 23 35 63 48 129 41 l62
-6 -15 -36 c-11 -29 -24 -40 -59 -54 -58 -22 -58 -39 1 -33 24 3 46 3 49 0 7
-6 -30 -79 -60 -119 -48 -64 -67 -199 -41 -299 15 -56 84 -170 107 -176 24 -7
71 10 96 33 19 17 26 19 38 10 10 -9 13 -31 9 -94 -4 -72 -1 -91 22 -152 14
-38 37 -88 49 -110 15 -26 26 -65 30 -110 3 -38 9 -79 12 -90 3 -14 -11 -38
-50 -85 -65 -76 -120 -184 -131 -255 -4 -27 -8 -96 -9 -152 l-2 -101 -68 -73
c-93 -100 -155 -228 -162 -331 -4 -54 0 -93 14 -148 11 -41 19 -76 18 -78 -3
-2 -42 28 -153 119 -88 74 -401 392 -478 489 -33 41 -85 101 -115 135 -52 56
-94 107 -213 260 -26 33 -64 81 -85 107 -86 109 -132 179 -132 201 0 17 21 41
77 88 110 91 268 245 300 293 15 23 45 64 65 92 21 28 38 54 38 57 0 3 12 23
26 44 31 46 94 177 94 196 0 7 4 17 9 23 11 11 64 167 85 250 12 47 16 115 16
285 0 233 -11 314 -54 399 -9 18 -16 37 -16 42 0 17 -45 105 -89 173 -62 96
-160 196 -256 259 -95 63 -308 167 -385 189 -30 8 -86 25 -125 35 -38 11 -101
25 -140 32 -38 6 -95 15 -126 20 -77 14 -316 13 -324 -1 -4 -6 27 -46 69 -89
47 -48 76 -86 76 -99 0 -12 -20 -44 -45 -70 -25 -26 -45 -52 -45 -58 0 -14 39
-48 80 -70 112 -59 248 -167 308 -245 57 -73 122 -166 122 -174 0 -3 14 -26
30 -51 17 -24 30 -49 30 -54 0 -6 13 -38 30 -72 16 -34 36 -96 45 -137 8 -41
19 -91 25 -110 5 -19 10 -122 10 -228 0 -187 -1 -197 -35 -335 -20 -78 -46
-162 -58 -187 -31 -64 -123 -198 -165 -244 -59 -61 -205 -169 -287 -211 -46
-24 -192 -71 -246 -80 -20 -3 -44 -14 -53 -24 -16 -17 -15 -23 8 -92 32 -95
120 -267 179 -349 26 -36 63 -90 84 -120 20 -30 53 -73 73 -95 20 -22 65 -76
100 -120 129 -163 362 -411 470 -501 36 -30 92 -77 125 -105 33 -28 96 -78
140 -112 44 -33 98 -77 120 -97 22 -19 67 -53 100 -75 33 -21 85 -58 115 -81
30 -23 71 -50 90 -60 19 -11 67 -41 107 -67 40 -26 75 -47 79 -47 4 0 15 -6
23 -14 9 -8 41 -27 71 -43 30 -16 73 -40 95 -54 22 -14 45 -28 52 -30 18 -6
103 -89 103 -101 0 -13 -102 -108 -116 -108 -6 0 -27 6 -45 14 -19 7 -50 17
-69 20 l-35 7 28 -21 c35 -28 34 -44 -5 -67 -43 -24 -72 -19 -85 15 l-11 27
-1 -32 c-1 -18 -5 -33 -11 -33 -5 0 -10 4 -10 10 0 11 -99 70 -118 70 -8 0 6
-22 30 -48 23 -27 56 -73 71 -103 33 -63 107 -150 107 -125 0 12 6 15 23 11
12 -3 45 -10 72 -15 28 -6 61 -18 74 -27 38 -25 161 -63 203 -63 24 0 50 8 67
21 23 17 36 19 73 14 53 -8 61 -13 77 -42 9 -19 8 -28 -5 -48 -16 -24 -16 -28
2 -66 18 -41 59 -78 71 -65 4 3 -6 19 -22 36 -31 32 -29 55 8 69 12 5 29 16
36 24 7 9 18 14 25 11 8 -3 12 3 12 18 -1 35 50 45 120 23 42 -13 71 -32 117
-76 33 -32 63 -57 65 -54 2 2 -3 12 -13 21 -10 10 -15 27 -12 41 3 16 -2 27
-14 34 -11 5 -19 19 -19 29 0 17 7 20 49 20 27 0 61 -4 76 -10 17 -7 31 -6 43
1 14 9 38 4 107 -21 263 -93 247 -89 244 -62 -4 41 4 53 59 90 62 41 170 92
196 92 25 0 116 -91 116 -116 0 -12 -10 -25 -22 -32 -21 -9 -19 -10 15 -10 24
1 45 -6 60 -19 29 -26 101 -36 143 -18 17 7 61 38 97 69 53 45 73 56 102 56
24 0 35 -4 35 -15 0 -17 35 -21 45 -5 10 16 35 12 29 -5 -5 -12 2 -15 34 -15
87 0 99 -7 163 -97 34 -46 63 -82 65 -80 3 2 12 35 22 73 13 53 22 71 40 79
13 6 25 19 28 31 5 20 12 21 157 23 84 1 195 3 247 4 87 1 102 -2 185 -35 135
-53 150 -55 167 -21 12 24 19 28 51 26 41 -3 137 -40 137 -54 0 -5 18 -9 40
-9 36 0 40 -3 50 -33 8 -28 9 -28 6 -4 -2 18 1 27 10 27 8 0 14 -4 14 -8 0 -5
7 -17 15 -28 15 -18 16 -17 10 12 -5 28 -3 32 20 36 14 3 28 1 31 -4 3 -5 11
-3 17 5 7 8 37 22 67 31 67 21 142 70 164 107 32 55 14 175 -31 204 -24 16
-26 16 -20 0 4 -9 10 -40 13 -69 6 -50 5 -53 -30 -84 -20 -18 -43 -32 -50 -32
-8 0 -16 -7 -20 -15 -3 -8 -12 -15 -20 -15 -8 0 -24 -16 -35 -36 -19 -31 -19
-35 -4 -32 9 2 24 16 33 32 19 36 50 57 57 39 8 -21 22 -15 38 17 19 36 50 42
40 8 -10 -34 -66 -81 -121 -101 -58 -20 -136 -17 -159 7 -9 9 -29 16 -45 16
-16 0 -32 5 -35 10 -4 6 -10 8 -15 5 -10 -6 -60 15 -60 25 0 3 15 20 33 38 17
17 39 46 48 64 29 57 60 302 47 373 -7 41 26 20 39 -24 14 -49 28 -70 21 -31
-4 22 -1 26 21 25 19 0 27 -6 29 -22 3 -18 10 -23 35 -23 41 0 91 -19 144 -52
52 -34 53 -35 61 -111 7 -66 25 -84 30 -30 2 23 9 33 27 37 32 8 48 57 29 85
-18 25 -71 54 -84 46 -11 -7 -30 27 -30 55 0 12 12 41 26 66 19 32 26 58 26
94 -1 28 -3 54 -6 59 -3 5 1 26 8 47 l15 39 0 -41 c1 -38 3 -41 26 -36 14 2
25 0 25 -5 0 -5 23 -20 50 -33 39 -18 53 -21 62 -12 18 18 63 14 81 -6 37 -41
7 -122 -49 -136 -18 -5 -24 -11 -20 -23 4 -11 -12 -33 -51 -70 -51 -48 -52
-50 -12 -19 25 20 49 36 52 36 8 0 99 97 111 118 15 26 25 85 19 114 -3 15
-17 40 -32 54 -23 23 -32 26 -73 21 -54 -7 -54 -7 -37 70 13 55 8 69 -73 213
-4 8 -13 26 -18 39 -10 23 -11 23 -30 6 -18 -17 -19 -16 -26 10 -4 15 -2 31 5
38 15 15 14 48 -5 86 -17 35 -11 91 10 91 12 0 28 -82 27 -137 -1 -27 18 -42
20 -16 1 10 1 35 0 56 -2 21 2 37 8 37 6 0 11 -16 11 -35 0 -19 4 -35 8 -35 4
0 8 24 8 53 0 33 6 62 18 79 10 16 15 35 12 44 -9 24 -27 6 -20 -22 4 -14 2
-24 -5 -24 -6 0 -11 9 -11 20 0 13 -5 18 -15 14 -8 -4 -17 1 -21 10 -3 9 -13
16 -21 16 -9 0 -13 -6 -9 -15 3 -9 0 -15 -10 -15 -12 0 -15 7 -11 27 3 15 -2
37 -10 50 -9 13 -13 26 -9 30 8 9 46 -27 46 -44 0 -7 5 -13 10 -13 6 0 10 10
10 23 0 28 23 62 42 62 18 0 22 55 9 117 -9 38 -8 54 1 65 20 25 111 64 158
68 25 2 53 7 63 10 13 6 17 2 17 -17 0 -17 -15 -38 -50 -67 -70 -59 -62 -70
12 -16 34 24 64 43 66 40 3 -2 -3 -16 -13 -31 -12 -18 -14 -29 -6 -37 7 -7 13
-3 20 15 5 14 17 28 25 31 11 5 16 20 16 52 0 25 7 60 16 77 13 25 14 38 5 74
-6 23 -11 63 -11 88 0 55 -15 59 -36 11 -16 -40 -18 -75 -4 -75 6 0 10 5 10
10 0 6 5 10 10 10 16 0 12 -19 -10 -50 -14 -20 -37 -34 -74 -44 -29 -9 -59
-22 -65 -30 -7 -8 -45 -25 -84 -37 -40 -12 -85 -33 -100 -45 -16 -13 -35 -24
-43 -24 -8 0 -14 -4 -14 -9 0 -5 -6 -11 -13 -14 -16 -6 -53 20 -43 30 4 4 10
2 14 -4 10 -16 106 72 99 90 -3 8 -1 20 4 28 7 12 9 12 9 -1 0 -13 1 -13 10 0
5 8 10 26 9 40 l0 25 -14 -25 c-8 -14 -15 -20 -15 -15 0 6 -7 -1 -15 -15 -8
-14 -14 -21 -15 -16 0 5 -11 -3 -25 -18 -13 -14 -34 -26 -46 -26 -12 0 -28 -8
-35 -17 -12 -16 -15 -16 -24 -3 -9 13 -11 13 -20 0 -6 -8 -8 -25 -5 -37 4 -16
1 -23 -10 -23 -8 0 -15 7 -15 17 0 25 -11 8 -15 -24 -12 -88 -20 -106 -50
-114 -19 -6 -32 -4 -36 3 -4 6 -12 7 -18 4 -7 -5 -11 3 -11 21 l-1 28 -15 -28
c-8 -16 -24 -37 -34 -47 -18 -18 -19 -18 -40 26 -24 49 -21 86 5 64 9 -8 13
-21 10 -31 -13 -39 17 -17 35 27 11 26 30 60 41 76 42 59 119 240 119 281 0 6
-34 -49 -75 -125 -74 -133 -114 -181 -160 -189 -11 -3 -24 -16 -29 -31 -13
-36 10 -115 35 -121 10 -3 19 -12 19 -21 0 -16 -3 -18 -50 -21 -14 -1 -35 -7
-47 -13 -29 -16 -43 -15 -43 3 0 8 -4 15 -8 15 -13 0 -36 -101 -25 -109 5 -3
12 -14 16 -23 10 -28 24 -21 37 16 9 28 26 46 45 46 1 0 6 -11 9 -24 4 -18 11
-23 26 -19 19 5 20 0 20 -65 0 -66 -1 -70 -25 -74 -13 -3 -27 -3 -30 0 -11 11
-4 53 9 58 18 7 27 30 20 49 -5 12 -10 13 -19 5 -10 -8 -16 -7 -23 7 -10 16
-11 16 -20 -7 -17 -44 -47 -63 -88 -57 -31 5 -40 2 -56 -18 -29 -37 -56 -31
-125 30 -46 41 -60 50 -55 33 4 -16 -3 -28 -24 -45 -22 -19 -24 -23 -9 -19 25
7 86 -9 97 -26 4 -7 8 -28 8 -46 0 -26 4 -32 18 -30 22 4 19 -20 -18 -132 -26
-77 -28 -92 -20 -155 10 -77 9 -80 -20 -88 -21 -5 -42 10 -60 44 -14 26 -33
24 -25 -2 10 -29 -3 -23 -69 36 -30 28 -69 60 -85 73 -16 12 -32 32 -34 45 -2
12 -5 3 -6 -19 -1 -34 3 -43 19 -47 23 -6 27 -27 5 -27 -8 0 -15 -4 -15 -9 0
-5 -3 -18 -7 -28 -4 -13 3 -10 25 11 l31 28 70 -63 c39 -35 71 -70 71 -79 0
-8 -9 -26 -19 -39 l-18 -24 -14 29 c-11 23 -22 30 -49 31 -19 2 -73 7 -120 12
-83 9 -86 9 -111 -15 -14 -13 -30 -24 -36 -24 -18 0 -22 25 -7 45 8 10 14 27
14 36 0 29 29 49 71 49 29 0 47 7 71 30 26 23 29 29 15 30 -10 0 -26 -4 -36
-10 -14 -7 -35 -1 -87 25 -75 38 -94 42 -94 22 0 -19 20 -36 36 -30 10 4 14
-3 14 -25 0 -39 -18 -45 -77 -26 -26 9 -54 18 -62 20 -9 3 -1 16 25 40 l39 36
-36 -21 c-20 -12 -39 -21 -41 -21 -3 0 -11 20 -18 45 -9 32 -18 45 -30 45 -25
0 -32 27 -14 55 9 13 18 57 21 102 6 73 5 77 -11 64 -10 -8 -15 -23 -13 -32 3
-10 -2 -38 -10 -61 -8 -24 -15 -73 -16 -111 -1 -42 -5 -66 -12 -64 -5 2 -10
11 -10 21 0 9 -6 21 -14 25 -7 5 -10 14 -7 20 4 6 0 11 -8 11 -9 0 -16 7 -16
16 0 8 3 13 8 11 4 -3 8 20 8 51 3 87 14 133 40 157 35 33 40 73 14 132 -24
56 -53 87 -88 96 -36 9 -37 -16 -4 -78 23 -41 29 -62 23 -78 -5 -12 -4 -29 2
-37 6 -11 3 -30 -14 -67 -24 -50 -36 -60 -109 -84 -19 -7 -45 -21 -57 -32 -29
-26 -29 -14 -2 25 l22 30 -43 -7 c-23 -4 -58 -18 -78 -31 -41 -28 -72 -31 -72
-6 0 9 -7 25 -15 36 -13 17 -15 15 -25 -27 -9 -34 -20 -50 -48 -68 -26 -17
-47 -46 -74 -99 -38 -78 -46 -128 -28 -176 6 -15 7 -31 3 -35 -4 -4 -35 -12
-68 -18 -69 -11 -74 -8 -101 68 -9 25 -19 53 -22 61 -3 8 -4 21 -3 27 1 7 -3
22 -9 33 -8 16 -8 20 3 20 8 0 22 12 32 26 24 37 13 106 -20 128 -14 9 -25 22
-25 29 0 23 -16 38 -34 31 -15 -6 -14 -10 8 -39 21 -27 25 -43 24 -94 -1 -49
-4 -61 -17 -61 -26 0 -39 13 -86 85 -33 50 -42 71 -35 81 7 8 8 14 1 18 -7 5
-41 62 -41 71 0 5 77 -2 88 -8 9 -6 12 0 12 22 0 28 2 30 36 28 31 -2 38 -8
55 -42 10 -22 19 -47 19 -55 0 -10 7 -7 20 10 17 22 19 37 14 132 l-4 106 55
65 c58 68 71 77 111 77 24 0 30 2 93 34 32 16 35 16 52 0 11 -10 19 -25 19
-35 0 -10 5 -21 11 -25 7 -4 9 0 6 12 -3 11 -8 51 -12 89 -5 61 -4 68 8 53 8
-10 18 -18 23 -18 4 0 21 -12 37 -27 17 -16 26 -21 22 -13 -5 8 -19 23 -32 33
-22 18 -34 55 -13 42 6 -3 10 -2 10 4 0 6 -15 18 -32 27 -39 20 -55 39 -62 76
-6 32 -35 60 -95 94 -50 28 -72 25 -91 -11 -20 -38 -33 -30 -25 15 6 34 4 39
-9 34 -13 -5 -16 -25 -16 -113 0 -58 -2 -124 -5 -146 l-5 -40 15 33 c15 33 29
40 40 22 6 -10 -21 -50 -77 -111 -14 -16 -36 -29 -48 -29 -12 0 -33 -9 -47
-20 -18 -14 -33 -18 -56 -13 -26 4 -30 3 -20 -7 8 -9 9 -19 2 -32 -13 -24 -46
-23 -54 1 -7 24 19 89 40 97 16 7 21 44 5 44 -14 0 -12 43 3 60 6 8 -5 1 -26
-14 l-38 -28 -43 26 c-59 34 -99 83 -92 111 3 12 -3 47 -14 78 -24 68 -25 102
-4 173 12 43 15 92 12 239 -3 140 -1 185 8 185 7 0 31 -22 54 -49 22 -28 49
-53 59 -56 25 -8 71 11 71 29 0 17 62 86 78 86 6 0 12 -8 15 -17 3 -14 6 -12
15 10 13 30 42 37 42 10 0 -9 -7 -25 -17 -35 -24 -27 1 -22 29 7 31 31 49 106
41 176 -4 46 -1 65 21 115 37 80 53 110 92 171 39 59 40 63 18 63 -10 0 -14 6
-10 15 6 18 8 18 -35 4 -85 -27 -89 -30 -76 -50 17 -27 -7 -47 -58 -50 -61 -3
-81 7 -99 52 -21 52 -20 65 5 90 16 16 18 23 8 35 -9 11 -8 18 5 33 15 16 15
19 1 31 -9 7 -14 18 -12 24 5 14 -60 88 -86 99 -17 6 -19 14 -14 57 7 59 -7
66 -29 14 l-15 -36 -65 66 c-66 68 -84 102 -84 165 0 29 9 43 55 86 41 38 55
57 55 78 0 55 68 154 98 142 7 -2 23 4 34 15 13 12 36 20 55 20 46 0 44 28 -5
60 -20 13 -50 39 -65 57 -16 18 -33 33 -39 33 -17 0 1 -53 24 -73 21 -17 21
-18 -33 -67 -98 -91 -145 -101 -118 -25 11 31 11 37 -1 45 -18 11 -15 14 40
43 24 13 45 28 48 35 7 22 -45 13 -76 -13 -17 -14 -33 -25 -37 -25 -11 0 5 83
22 108 11 18 18 21 27 13 10 -8 17 -7 26 4 15 18 40 20 40 3 0 -7 6 -4 12 7
17 32 39 45 58 35 16 -8 32 -1 93 42 20 15 41 5 71 -35 30 -41 7 -56 -27 -17
-15 16 -32 30 -37 30 -19 0 -23 -30 -6 -49 17 -19 21 -41 7 -41 -18 0 -20 -32
-5 -56 23 -34 57 -40 105 -19 60 27 67 95 10 103 -20 3 -31 32 -12 32 17 0
-12 70 -36 85 -12 9 -23 23 -23 33 0 10 -5 23 -12 30 -16 16 -80 16 -96 0 -16
-16 -15 -45 1 -51 7 -3 5 -7 -8 -12 -11 -5 -27 -13 -35 -20 -19 -15 -99 -40
-105 -33 -3 3 -1 17 5 32 14 37 13 56 -4 56 -9 0 -14 13 -14 43 0 47 -14 117
-32 162 -10 24 -9 51 4 139 8 59 13 113 9 120 -4 6 1 5 10 -3 37 -30 30 38 -8
76 -25 24 -26 91 -3 170 l22 76 -27 21 c-15 11 -39 31 -54 43 -22 17 -25 24
-16 34 10 10 6 16 -17 31 -32 19 -37 35 -17 60 22 29 51 30 91 3 l37 -25 -18
24 c-16 22 -133 76 -163 76 -12 0 -9 41 6 93 5 16 3 16 -33 2 -21 -8 -59 -16
-84 -18 -25 -2 -51 -7 -57 -11 -13 -8 -92 30 -92 44 0 5 12 13 28 16 15 4 35
13 44 21 9 8 21 12 26 9 14 -8 25 25 12 38 -7 7 -10 7 -10 -1 0 -14 -56 -37
-69 -28 -17 10 -13 35 5 35 14 0 16 8 10 53 -13 110 -18 137 -27 137 -5 0 -9
-5 -9 -12 0 -6 -3 -8 -6 -5 -4 4 1 18 10 32 15 23 15 27 1 41 -21 21 -19 38 3
29 48 -22 77 -17 120 20 25 22 49 35 57 31 21 -8 5 21 -29 53 -28 26 -35 18
-11 -13 8 -10 12 -23 8 -29 -3 -5 -8 -4 -13 3 -4 6 -26 14 -49 17 -22 3 -41
10 -41 14 0 5 -7 9 -15 9 -21 0 -19 -16 4 -32 21 -15 21 -62 0 -66 -8 -1 -26
9 -39 23 -20 22 -22 28 -10 35 8 5 12 10 10 12 -3 2 -14 8 -25 14 -11 6 -21
19 -23 28 -3 13 3 16 30 14 18 -1 41 -5 51 -10 10 -5 17 -5 17 0 0 5 -26 23
-58 40 -64 34 -96 65 -107 102 -15 51 -39 66 -88 53z m96 -130 c15 -20 25 -39
23 -41 -7 -6 -66 28 -66 37 0 5 -3 16 -6 25 -12 31 23 16 49 -21z m-64 -9 c7
-6 -2 -11 -31 -18 -27 -6 -39 10 -21 27 6 7 42 0 52 -9z m291 -133 c0 -6 -4
-12 -9 -15 -13 -8 -42 4 -35 15 7 12 44 12 44 0z m-260 -26 c0 -8 -4 -15 -10
-15 -5 0 -10 7 -10 15 0 8 5 15 10 15 6 0 10 -7 10 -15z m155 -212 c-8 -33 -2
-29 -50 -37 -32 -6 -38 -5 -27 5 6 7 12 21 12 31 0 23 9 23 25 1 11 -15 13
-15 19 5 11 33 30 28 21 -5z m-635 -82 c0 -12 -20 -25 -27 -18 -7 7 6 27 18
27 5 0 9 -4 9 -9z m595 -11 c-3 -5 -10 -10 -16 -10 -5 0 -9 5 -9 10 0 6 7 10
16 10 8 0 12 -4 9 -10z m-575 -20 c0 -5 -4 -10 -9 -10 -5 0 -18 -3 -28 -6 -16
-6 -16 -5 2 9 23 19 35 21 35 7z m623 -101 c16 -7 25 -19 25 -35 0 -30 -4 -30
-33 4 -36 41 -34 50 8 31z m-595 -31 c-6 -17 -65 -48 -86 -45 -23 4 -42 16
-42 28 0 6 17 8 43 4 33 -5 46 -3 56 9 16 19 34 21 29 4z m763 -8 c18 0 18 -1
2 -19 -9 -11 -22 -17 -29 -14 -8 3 -14 0 -14 -7 0 -13 -76 -11 -79 3 -6 36 16
49 73 41 16 -2 37 -4 47 -4z m-936 -50 c-3 -5 -10 -10 -16 -10 -5 0 -9 5 -9
10 0 6 7 10 16 10 8 0 12 -4 9 -10z m-155 -8 c0 -16 -44 -56 -48 -43 -2 7 4
21 14 32 18 20 34 25 34 11z m664 -13 c-3 -6 0 -15 7 -20 10 -6 8 -9 -8 -9
-13 0 -23 2 -23 4 0 14 14 36 22 36 5 0 6 -5 2 -11z m506 1 c11 -7 12 -12 3
-21 -6 -6 -9 -18 -6 -25 3 -9 -2 -14 -14 -14 -15 0 -19 8 -20 35 -1 36 9 43
37 25z m-1297 -27 c-7 -2 -21 -2 -30 0 -10 3 -4 5 12 5 17 0 24 -2 18 -5z
m212 -942 c8 -14 -35 -51 -67 -58 -27 -5 -58 -48 -58 -80 0 -16 -12 -17 -27
-2 -8 8 -16 3 -27 -20 -9 -17 -23 -31 -31 -31 -12 0 -9 10 12 41 21 32 24 42
13 49 -10 6 -5 15 19 39 17 17 33 31 34 31 2 0 27 9 57 20 64 23 67 23 75 11z
m-437 -303 c16 -16 15 -49 -2 -70 -24 -33 -46 -16 -46 36 0 21 17 46 30 46 3
0 11 -5 18 -12z m446 3 c4 -5 3 -17 0 -26 -10 -24 -48 -15 -52 13 -3 18 1 22
22 22 14 0 27 -4 30 -9z m1674 -1002 c-2 -6 -8 -10 -13 -10 -5 0 -11 4 -13 10
-2 6 4 11 13 11 9 0 15 -5 13 -11z m-1571 -821 c-3 -8 -6 -5 -6 6 -1 11 2 17
5 13 3 -3 4 -12 1 -19z m83 -68 c-6 -11 -13 -20 -15 -20 -3 0 -5 9 -5 20 0 11
7 20 15 20 13 0 14 -4 5 -20z m1480 -214 c0 -3 -4 -8 -10 -11 -5 -3 -10 -1
-10 4 0 6 5 11 10 11 6 0 10 -2 10 -4z m40 -57 c0 -5 -4 -9 -10 -9 -5 0 -10 7
-10 16 0 8 5 12 10 9 6 -3 10 -10 10 -16z m-420 -194 c0 -8 -4 -15 -10 -15 -5
0 -7 7 -4 15 4 8 8 15 10 15 2 0 4 -7 4 -15z m40 -14 c0 -12 -20 -25 -27 -18
-7 7 6 27 18 27 5 0 9 -4 9 -9z m2350 -166 c8 -9 10 -31 6 -62 -6 -47 2 -76
20 -74 5 1 12 -15 17 -35 6 -31 3 -43 -23 -82 -19 -29 -28 -52 -24 -67 4 -18
1 -22 -18 -21 -18 1 -29 -11 -54 -57 -31 -58 -63 -99 -51 -65 16 46 27 99 22
107 -3 5 1 11 7 14 9 3 6 11 -10 27 -18 17 -26 19 -37 10 -8 -7 -15 -19 -15
-27 0 -8 -5 -11 -10 -8 -6 4 -8 10 -5 15 3 5 -4 15 -15 23 -17 12 -19 20 -12
53 4 21 14 39 21 39 7 0 23 32 36 74 35 109 109 179 145 136z m-137 -23 c-6
-24 -23 -30 -23 -9 0 13 21 39 26 34 2 -2 1 -13 -3 -25z m-88 -61 c-11 -81
-14 -91 -35 -91 -24 0 -26 20 -4 62 9 16 13 40 10 53 -7 26 0 36 20 28 11 -4
13 -17 9 -52z m47 -23 c-9 -9 -12 -7 -12 12 0 19 3 21 12 12 9 -9 9 -15 0 -24z
m-1272 -143 c-6 -19 -16 -35 -21 -35 -12 0 -12 17 0 25 5 3 13 20 17 38 4 17
9 26 11 20 3 -7 -1 -29 -7 -48z m1190 45 c0 -5 -5 -10 -11 -10 -5 0 -7 5 -4
10 3 6 8 10 11 10 2 0 4 -4 4 -10z m23 -35 c-3 -9 -8 -14 -10 -11 -3 3 -2 9 2
15 9 16 15 13 8 -4z m-285 -69 c2 -15 -6 -46 -17 -70 -12 -23 -21 -49 -21 -57
0 -21 -56 -73 -69 -65 -32 20 7 196 42 196 8 0 20 7 27 15 18 22 34 13 38 -19z
m-942 -43 c-3 -21 -5 -40 -5 -43 -1 -2 -8 5 -15 16 -17 24 -10 64 10 64 11 0
13 -10 10 -37z m1504 -18 c0 -8 -4 -15 -10 -15 -5 0 -10 7 -10 15 0 8 5 15 10
15 6 0 10 -7 10 -15z m-470 -46 c0 -33 -16 -36 -34 -6 -8 13 -7 20 4 27 24 16
30 12 30 -21z m424 -2 c-2 -7 5 -22 16 -34 26 -29 25 -41 -4 -53 -26 -10 -86
7 -86 24 0 17 51 76 65 76 8 0 12 -6 9 -13z m6 -174 c0 -22 2 -25 10 -13 15
24 36 -3 24 -31 -9 -20 -11 -20 -27 -5 -15 15 -17 15 -27 -3 -15 -29 -13 -54
5 -47 9 3 15 0 15 -10 0 -8 7 -17 15 -20 8 -4 15 -12 15 -20 0 -21 -33 -84
-44 -85 -6 -1 -18 -2 -26 -3 -28 -2 -24 -96 4 -96 14 0 30 -29 22 -38 -3 -2
-27 3 -53 12 -26 10 -59 20 -72 23 -14 3 -40 21 -58 39 l-33 33 16 40 c17 44
15 87 -4 84 -7 -2 -12 8 -12 22 0 27 3 28 38 19 21 -6 22 -10 16 -73 -4 -36
-3 -63 1 -59 8 7 45 171 48 210 1 9 5 14 10 11 4 -3 16 2 25 10 21 18 40 25
70 26 18 1 22 -4 22 -26z m194 -29 c11 -28 7 -34 -24 -34 -34 0 -37 6 -13 32
20 22 29 23 37 2z m-1121 -79 c-4 -15 -66 -12 -71 3 -3 10 6 13 34 10 22 -2
38 -7 37 -13z m480 -60 c-5 -13 -23 -22 -23 -11 0 15 14 35 21 31 4 -3 6 -12
2 -20z m-883 -37 c0 -6 -7 -7 -16 -4 -9 3 -20 6 -25 6 -6 0 -8 4 -5 9 8 12 46
2 46 -11z m1096 -23 c1 -14 -2 -22 -7 -19 -11 6 -12 44 -1 44 4 0 8 -11 8 -25z
m-3466 -130 c0 -19 -20 -29 -32 -17 -8 8 -7 16 2 26 14 17 30 12 30 -9z m80
-49 c0 -20 -25 -66 -36 -66 -8 0 -14 -6 -14 -12 -1 -18 -66 -58 -93 -58 -17 0
-12 7 23 29 25 15 58 47 73 70 15 22 32 41 37 41 6 0 10 -2 10 -4z m-345 -147
l30 -8 -33 3 c-27 2 -31 0 -26 -16 4 -13 0 -18 -14 -18 -27 0 -37 -49 -14 -67
16 -11 16 -12 -1 -13 -10 0 -20 7 -23 15 -4 8 -13 15 -20 15 -23 0 -30 31 -11
45 15 11 16 14 2 25 -8 7 -15 16 -15 21 0 11 84 10 125 -2z m68 -6 c-7 -2 -19
-2 -25 0 -7 3 -2 5 12 5 14 0 19 -2 13 -5z m-39 -19 c24 -9 19 -24 -9 -24 -18
0 -23 4 -19 15 7 17 7 17 28 9z m1222 -200 c36 -15 53 -33 32 -35 -59 -5 -148
19 -148 40 0 23 55 20 116 -5z m2260 -25 c19 -22 19 -22 -3 -10 -24 12 -39 31
-25 31 5 0 17 -10 28 -21z m74 -9 c0 -5 -4 -10 -9 -10 -6 0 -13 5 -16 10 -3 6
1 10 9 10 9 0 16 -4 16 -10z m-285 -20 c3 -5 2 -10 -4 -10 -5 0 -13 5 -16 10
-3 6 -2 10 4 10 5 0 13 -4 16 -10z"/>
<path d="M8850 3489 c0 -5 5 -7 10 -4 6 3 10 8 10 11 0 2 -4 4 -10 4 -5 0 -10
-5 -10 -11z"/>
<path d="M8886 3061 c-4 -7 -5 -15 -2 -18 9 -9 19 4 14 18 -4 11 -6 11 -12 0z"/>
<path d="M6170 8190 c0 -19 3 -21 12 -12 9 9 9 15 0 24 -9 9 -12 7 -12 -12z"/>
<path d="M8172 8105 c-10 -21 -9 -25 3 -25 8 0 15 4 15 9 0 5 3 16 6 25 10 26
-12 18 -24 -9z"/>
<path d="M7965 8050 c-3 -5 -2 -10 4 -10 5 0 13 5 16 10 3 6 2 10 -4 10 -5 0
-13 -4 -16 -10z"/>
<path d="M7760 8024 c-44 -19 -69 -51 -70 -86 0 -32 15 -35 49 -11 23 16 23
17 5 23 -17 7 -14 12 26 49 48 44 46 49 -10 25z"/>
<path d="M6938 7953 c-3 -32 -3 -60 -1 -63 2 -3 13 6 23 20 17 23 20 23 37 8
23 -21 53 -7 53 25 0 32 -11 44 -45 49 -16 3 -37 8 -46 12 -14 6 -17 -2 -21
-51z"/>
<path d="M7565 7930 c-3 -5 -17 -10 -31 -10 -17 0 -24 -5 -24 -20 0 -11 2 -20
5 -20 12 0 54 32 59 46 6 16 0 19 -9 4z"/>
<path d="M7257 7903 c-13 -12 -7 -43 8 -43 8 0 15 6 15 13 0 18 -15 38 -23 30z"/>
<path d="M7847 7903 c-4 -3 -7 -11 -7 -17 0 -6 5 -5 12 2 6 6 9 14 7 17 -3 3
-9 2 -12 -2z"/>
<path d="M8016 7853 c8 -45 21 -73 34 -73 11 0 12 20 4 73 -5 28 -11 37 -26
37 -16 0 -18 -5 -12 -37z"/>
<path d="M6936 7872 c-6 -10 17 -129 27 -139 12 -11 13 0 8 71 -5 63 -20 92
-35 68z"/>
<path d="M7897 7846 c-3 -7 3 -27 13 -44 10 -16 20 -42 22 -58 4 -38 20 -40
41 -5 17 29 17 30 -8 55 -14 14 -25 32 -25 39 0 8 -7 18 -16 21 -21 8 -21 8
-27 -8z"/>
<path d="M5620 7711 c0 -24 12 -32 30 -21 11 7 11 11 1 24 -18 22 -31 20 -31
-3z"/>
<path d="M6386 7683 c-3 -10 -9 -24 -12 -31 -3 -7 -2 -12 3 -10 4 1 27 -2 50
-6 44 -8 83 -1 83 15 0 5 -15 9 -33 9 -21 0 -41 8 -52 20 -22 25 -31 25 -39 3z"/>
<path d="M7516 7595 c-3 -8 -3 -22 1 -31 3 -8 0 -27 -8 -40 -11 -21 -11 -27 1
-34 7 -4 20 -6 28 -2 11 4 14 1 9 -11 -3 -9 -2 -17 3 -17 6 0 10 4 10 9 0 5 9
13 20 16 29 9 25 41 -11 86 -33 42 -44 47 -53 24z"/>
<path d="M7746 7535 c3 -8 -4 -26 -15 -41 -20 -25 -28 -54 -15 -54 3 0 17 9
31 20 14 11 36 20 49 20 32 0 30 13 -7 44 -34 29 -51 33 -43 11z"/>
<path d="M7505 7460 c-3 -5 -1 -10 4 -10 6 0 11 5 11 10 0 6 -2 10 -4 10 -3 0
-8 -4 -11 -10z"/>
<path d="M7597 7421 c-4 -17 -3 -21 5 -13 5 5 8 16 6 23 -3 8 -7 3 -11 -10z"/>
<path d="M7502 7334 c-22 -15 -30 -58 -12 -69 5 -3 14 -24 20 -45 12 -43 23
-50 40 -22 9 13 10 10 5 -18 -10 -58 -27 -92 -42 -86 -8 4 -17 -4 -23 -19 -5
-14 -14 -25 -20 -25 -13 0 -13 27 0 35 12 7 14 35 3 35 -5 0 -16 -14 -26 -31
-15 -28 -16 -34 -3 -48 11 -12 13 -33 9 -83 -6 -77 1 -118 22 -118 17 0 20 16
6 25 -12 7 -4 113 11 143 7 12 19 21 27 20 9 -1 21 1 28 5 17 11 38 -1 53 -29
14 -24 44 -32 55 -14 9 15 25 12 25 -5 0 -8 6 -24 12 -35 10 -15 10 -26 0 -52
-11 -31 -10 -34 27 -68 21 -19 55 -63 76 -97 20 -35 38 -63 39 -63 10 0 2 61
-10 71 -8 6 -14 20 -14 30 0 10 -4 21 -10 24 -17 11 -11 27 9 20 14 -4 28 8
60 50 51 67 88 76 126 30 11 -13 34 -25 50 -27 28 -3 30 -1 27 27 -5 41 -49
131 -85 172 -25 29 -34 33 -59 27 -24 -5 -35 -1 -58 21 -16 15 -26 33 -24 40
3 7 -11 34 -30 60 -20 25 -36 51 -36 56 0 14 -28 11 -55 -7 -32 -21 -53 -12
-70 30 -18 43 -32 52 -40 26 -8 -27 -26 -25 -59 5 -32 30 -26 29 -54 9z m118
-245 c0 -5 -4 -9 -10 -9 -5 0 -10 7 -10 16 0 8 5 12 10 9 6 -3 10 -10 10 -16z
m190 -28 c0 -5 -7 -11 -15 -15 -15 -5 -20 5 -8 17 9 10 23 9 23 -2z"/>
<path d="M6510 6953 c1 -18 18 -35 24 -24 4 6 4 16 1 21 -7 12 -25 13 -25 3z"/>
<path d="M7930 6770 c-35 -29 -35 -39 0 -20 17 9 47 50 37 50 -1 0 -18 -13
-37 -30z"/>
<path d="M7530 6750 c0 -16 5 -30 10 -30 6 0 10 14 10 30 0 17 -4 30 -10 30
-5 0 -10 -13 -10 -30z"/>
<path d="M7111 6712 c-33 -27 -56 -40 -61 -33 -7 13 -50 -29 -70 -69 -14 -26
-40 -162 -34 -169 8 -8 33 34 39 64 23 111 60 169 94 148 26 -17 94 42 89 78
l-3 25 -54 -44z"/>
<path d="M7257 6590 c-30 -35 -42 -69 -30 -81 17 -17 37 9 35 45 -2 27 1 36
13 36 8 0 15 7 15 15 0 21 -5 19 -33 -15z"/>
<path d="M7108 6561 c-3 -19 1 -36 9 -42 10 -9 13 -5 13 17 0 45 -16 63 -22
25z"/>
<path d="M7411 6447 c-16 -24 -44 -50 -60 -57 -45 -18 -27 -33 31 -27 l49 6
19 -42 c11 -23 20 -52 20 -64 0 -12 5 -25 11 -28 6 -4 22 -34 36 -66 14 -32
29 -59 33 -59 13 0 -26 137 -54 186 -18 32 -28 69 -33 116 -3 38 -9 71 -14 74
-4 2 -21 -15 -38 -39z"/>
<path d="M6670 5918 c0 -37 -3 -75 -6 -85 -4 -13 0 -11 16 7 17 21 20 34 16
74 -9 79 -26 81 -26 4z"/>
<path d="M6990 5949 c-13 -24 -4 -41 10 -19 10 16 13 40 5 40 -2 0 -9 -9 -15
-21z"/>
<path d="M9536 4811 c-3 -5 1 -22 9 -37 l15 -29 0 32 c0 32 -14 51 -24 34z"/>
<path d="M9546 4691 c-5 -7 -1 -20 9 -31 12 -13 15 -27 10 -54 -5 -22 -3 -36
3 -36 13 0 22 25 22 60 0 34 -33 79 -44 61z"/>
<path d="M7122 4673 c-16 -13 -15 -14 6 -10 15 4 31 -2 46 -18 22 -22 91 -44
102 -33 9 9 -8 39 -30 50 -38 21 -105 26 -124 11z"/>
<path d="M9481 4608 c-24 -71 -21 -85 8 -37 18 29 30 99 17 99 -2 0 -14 -28
-25 -62z"/>
<path d="M9010 4578 c-11 -18 -20 -39 -20 -45 0 -20 -20 -15 -21 5 0 13 -2 12
-9 -5 -5 -13 -13 -23 -18 -23 -13 0 -45 -76 -40 -92 3 -7 14 5 27 30 24 47 51
55 74 22 18 -26 27 -16 27 34 0 23 4 56 9 74 12 42 -3 42 -29 0z"/>
<path d="M9440 4595 c0 -8 2 -15 4 -15 2 0 6 7 10 15 3 8 1 15 -4 15 -6 0 -10
-7 -10 -15z"/>
<path d="M7275 4570 c-3 -5 -20 -14 -38 -19 l-32 -9 31 -1 c19 -1 38 7 49 19
10 11 13 20 7 20 -6 0 -14 -4 -17 -10z"/>
<path d="M6910 4536 c0 -7 7 -19 15 -26 12 -10 15 -10 15 4 0 9 5 16 11 16 5
0 7 5 4 10 -9 15 -45 12 -45 -4z"/>
<path d="M9410 4535 c0 -8 2 -15 4 -15 2 0 6 7 10 15 3 8 1 15 -4 15 -6 0 -10
-7 -10 -15z"/>
<path d="M7102 4522 c-7 -5 -10 -16 -6 -25 8 -21 24 -22 24 -2 0 7 8 19 18 24
16 10 15 10 -3 11 -11 0 -26 -4 -33 -8z"/>
<path d="M9440 4515 c0 -8 5 -15 10 -15 6 0 10 7 10 15 0 8 -4 15 -10 15 -5 0
-10 -7 -10 -15z"/>
<path d="M6855 4500 c-3 -5 -2 -10 4 -10 5 0 13 5 16 10 3 6 2 10 -4 10 -5 0
-13 -4 -16 -10z"/>
<path d="M9470 4458 c0 -9 5 -20 10 -23 13 -8 13 5 0 25 -8 13 -10 13 -10 -2z"/>
<path d="M9310 4435 c-7 -9 -11 -18 -8 -20 3 -3 11 1 18 10 7 9 11 18 8 20 -3
3 -11 -1 -18 -10z"/>
<path d="M9402 4385 c-26 -53 -27 -62 -8 -45 15 12 41 78 34 85 -2 3 -14 -16
-26 -40z"/>
<path d="M6777 4333 c-15 -25 -27 -53 -25 -62 2 -9 16 9 32 42 15 32 26 60 25
62 -2 1 -17 -18 -32 -42z"/>
<path d="M6877 4374 c-14 -14 -7 -25 13 -22 12 2 21 8 21 13 0 12 -24 18 -34
9z"/>
<path d="M9097 4346 c-5 -15 -6 -31 -3 -34 8 -8 18 25 14 45 -3 13 -6 10 -11
-11z"/>
<path d="M9136 4315 c-11 -30 -6 -40 11 -22 12 12 14 20 6 28 -7 7 -12 6 -17
-6z"/>
<path d="M9167 4283 c-4 -3 -7 -11 -7 -17 0 -6 5 -5 12 2 6 6 9 14 7 17 -3 3
-9 2 -12 -2z"/>
<path d="M9232 4208 c-56 -51 -62 -58 -62 -78 1 -12 3 -12 14 3 7 9 25 17 39
17 18 0 31 9 44 33 47 79 35 87 -35 25z"/>
<path d="M7535 4187 c-5 -12 -15 -17 -26 -14 -14 4 -19 0 -19 -16 0 -12 -7
-31 -15 -41 -18 -24 -19 -46 -2 -46 6 0 24 -14 39 -32 32 -40 44 -32 30 22 -6
26 -7 55 -1 81 10 45 6 75 -6 46z"/>
<path d="M9035 4150 c-18 -36 -7 -39 18 -5 10 14 13 26 7 30 -5 3 -16 -8 -25
-25z"/>
<path d="M6756 4145 c-3 -8 -1 -15 4 -15 6 0 10 7 10 15 0 8 -2 15 -4 15 -2 0
-6 -7 -10 -15z"/>
<path d="M6785 4070 c-3 -5 -1 -10 4 -10 6 0 11 5 11 10 0 6 -2 10 -4 10 -3 0
-8 -4 -11 -10z"/>
<path d="M7450 4035 c0 -6 9 -18 20 -28 11 -9 20 -25 20 -35 0 -10 5 -23 12
-30 13 -13 38 -16 38 -4 0 11 -89 108 -90 97z"/>
<path d="M8756 3984 c-4 -9 -4 -19 -1 -22 2 -3 7 3 11 12 4 9 4 19 1 22 -2 3
-7 -3 -11 -12z"/>
<path d="M7180 3970 c0 -14 46 -60 60 -60 13 0 5 16 -23 48 -22 24 -37 29 -37
12z"/>
<path d="M7395 3920 c4 -6 11 -8 16 -5 14 9 11 15 -7 15 -8 0 -12 -5 -9 -10z"/>
<path d="M9170 3740 c0 -5 5 -10 10 -10 6 0 10 5 10 10 0 6 -4 10 -10 10 -5 0
-10 -4 -10 -10z"/>
<path d="M7631 3684 c0 -11 3 -14 6 -6 3 7 2 16 -1 19 -3 4 -6 -2 -5 -13z"/>
<path d="M8356 3667 c-16 -12 -16 -14 -2 -26 9 -8 16 -19 16 -26 0 -7 7 -18
15 -25 12 -10 15 -10 15 0 0 7 11 26 25 42 14 16 23 34 19 39 -8 14 -68 11
-88 -4z"/>
<path d="M7899 3400 l-24 -21 30 14 c17 8 37 17 45 20 10 4 8 6 -6 6 -12 1
-32 -8 -45 -19z"/>
<path d="M7922 3340 c-31 -38 -40 -60 -24 -60 5 0 17 9 27 20 10 12 24 18 32
16 9 -4 11 3 6 27 -3 18 -6 33 -7 34 -1 1 -16 -16 -34 -37z"/>
<path d="M7960 3276 c0 -9 5 -16 10 -16 6 0 10 4 10 9 0 6 -4 13 -10 16 -5 3
-10 -1 -10 -9z"/>
<path d="M9082 3000 c0 -19 2 -27 5 -17 2 9 2 25 0 35 -3 9 -5 1 -5 -18z"/>
<path d="M4584 2956 c-16 -13 -26 -27 -23 -31 4 -3 20 5 35 19 16 13 26 27 23
31 -4 3 -20 -5 -35 -19z"/>
<path d="M4780 2736 c0 -2 8 -10 18 -17 15 -13 16 -12 3 4 -13 16 -21 21 -21
13z"/>
<path d="M8730 2354 c0 -8 5 -12 10 -9 6 3 10 10 10 16 0 5 -4 9 -10 9 -5 0
-10 -7 -10 -16z"/>
<path d="M6010 2326 c0 -2 7 -7 16 -10 8 -3 12 -2 9 4 -6 10 -25 14 -25 6z"/>
<path d="M8430 2280 c14 -4 41 -8 60 -8 l35 0 -40 9 c-22 4 -49 8 -60 7 -16 0
-15 -2 5 -8z"/>
<path d="M6373 2212 c-6 -11 -27 -22 -47 -26 -19 -4 -45 -16 -58 -27 -17 -15
-18 -19 -5 -15 9 3 48 8 85 12 37 3 78 13 91 21 17 11 26 12 34 4 15 -15 42
-14 56 3 9 11 0 15 -46 24 -32 5 -67 13 -78 16 -14 5 -24 1 -32 -12z"/>
<path d="M8730 2171 c0 -6 4 -13 10 -16 6 -3 7 1 4 9 -7 18 -14 21 -14 7z"/>
<path d="M8786 2155 c4 -9 1 -15 -7 -15 -9 0 -7 -7 6 -20 24 -23 165 -42 165
-21 0 6 -14 11 -30 11 -31 0 -104 31 -115 50 -10 16 -25 12 -19 -5z"/>
</g>
</svg>
