<svg width="20" height="20" viewBox="0 0 20 20" fill="none" xmlns="http://www.w3.org/2000/svg">
<path d="M2.66667 1.99996H14.3333C15.2583 1.99996 16 2.74996 16 3.66663V9.56663C14.7083 9.34996 13.5333 9.31421 12.5 9.99754H9.2V13.6666H10.2333C10.1417 14.2333 10.1417 14.7916 10.2333 15.3333H2.66667C1.75 15.3333 1 14.5916 1 13.6666V3.66663C1 2.74996 1.75 1.99996 2.66667 1.99996ZM2.66667 5.33329V8.96527H8V5.33329H2.66667ZM9.2 5.33329V8.96527H14.3333V5.33329H9.2ZM2.66667 9.99754V13.6666H8V9.99754H2.66667ZM19.15 15.6L18.2583 14.9166C18.275 14.775 18.2917 14.6416 18.2917 14.5C18.2917 14.3583 18.2833 14.225 18.2583 14.0833L19.1417 13.4C19.2167 13.3333 19.2417 13.225 19.1917 13.1333L18.3583 11.6916C18.3083 11.5833 18.2 11.5833 18.0833 11.5833L17.0667 12C16.8333 11.85 16.6167 11.7083 16.3583 11.6083L16.2 10.5083C16.1917 10.4083 16.1 10.3333 16 10.3333H14.3333C14.2333 10.3333 14.1417 10.4083 14.125 10.5083L13.9667 11.6083C13.7167 11.7166 13.475 11.85 13.2583 12L12.225 11.5833C12.1333 11.5833 12.025 11.5833 11.9667 11.6916L11.1333 13.1333C11.0833 13.225 11.1 13.3333 11.1833 13.4L12.0667 14.0833C12.05 14.225 12.0417 14.3583 12.0417 14.5C12.0417 14.6416 12.05 14.775 12.0667 14.9166L11.1833 15.6C11.1083 15.6666 11.0833 15.775 11.1333 15.8666L11.9667 17.3083C12.0167 17.4166 12.125 17.4166 12.225 17.4166L13.2583 17C13.475 17.15 13.7083 17.2916 13.9667 17.3916L14.125 18.4916C14.1417 18.5916 14.225 18.6666 14.3333 18.6666H16C16.1 18.6666 16.1917 18.5916 16.2083 18.4916L16.3667 17.3916C16.6167 17.2833 16.8333 17.15 17.0667 17L18.0833 17.4166C18.2 17.4166 18.3083 17.4166 18.3667 17.3083L19.2 15.8666C19.25 15.775 19.225 15.6666 19.15 15.6ZM15.1667 15.75C14.475 15.75 13.9167 15.1916 13.9167 14.5C13.9167 13.8083 14.4833 13.25 15.1667 13.25C15.85 13.25 16.4167 13.8083 16.4167 14.5C16.4167 15.1916 15.8667 15.75 15.1667 15.75Z" fill="#A3A3A3"/>
</svg>
