<svg viewBox="0 0 238 108" fill="none" xmlns="http://www.w3.org/2000/svg">
<mask id="path-1-inside-1_2281_542" fill="white">
<path d="M82 8C82 3.58172 85.5817 0 90 0H148C152.418 0 156 3.58172 156 8V108H82V8Z"/>
</mask>
<path d="M82 8C82 3.58172 85.5817 0 90 0H148C152.418 0 156 3.58172 156 8V108H82V8Z" fill="#101623"/>
<path d="M81 8C81 3.02944 85.0294 -1 90 -1H148C152.971 -1 157 3.02944 157 8H155C155 4.13401 151.866 1 148 1H90C86.134 1 83 4.13401 83 8H81ZM156 108H82H156ZM81 108V8C81 3.02944 85.0294 -1 90 -1V1C86.134 1 83 4.13401 83 8V108H81ZM148 -1C152.971 -1 157 3.02944 157 8V108H155V8C155 4.13401 151.866 1 148 1V-1Z" fill="#283857" mask="url(#path-1-inside-1_2281_542)"/>
<path d="M116.21 33L118.357 19.9091H119.891L117.744 33H116.21ZM110.284 29.4972L110.533 27.9631H120.454L120.205 29.4972H110.284ZM111.607 33L113.755 19.9091H115.289L113.141 33H111.607ZM111.045 24.946L111.294 23.4119H121.214L120.965 24.946H111.045ZM127.702 19.9091V33H125.721V21.8906H125.644L122.512 23.9361V22.044L125.778 19.9091H127.702Z" fill="#506796"/>
<mask id="path-4-inside-2_2281_542" fill="white">
<path d="M164 70C164 65.5817 167.582 62 172 62H230C234.418 62 238 65.5817 238 70V108H164V70Z"/>
</mask>
<path d="M164 70C164 65.5817 167.582 62 172 62H230C234.418 62 238 65.5817 238 70V108H164V70Z" fill="#101623"/>
<path d="M163 70C163 65.0294 167.029 61 172 61H230C234.971 61 239 65.0294 239 70H237C237 66.134 233.866 63 230 63H172C168.134 63 165 66.134 165 70H163ZM238 108H164H238ZM163 108V70C163 65.0294 167.029 61 172 61V63C168.134 63 165 66.134 165 70V108H163ZM230 61C234.971 61 239 65.0294 239 70V108H237V70C237 66.134 233.866 63 230 63V61Z" fill="#283857" mask="url(#path-4-inside-2_2281_542)"/>
<path d="M196.663 96L198.81 82.9091H200.344L198.197 96H196.663ZM190.737 92.4972L190.987 90.9631H200.907L200.658 92.4972H190.737ZM192.06 96L194.208 82.9091H195.742L193.594 96H192.06ZM191.498 87.946L191.747 86.4119H201.668L201.418 87.946H191.498ZM207.746 96.179C206.869 96.179 206.085 96.0277 205.394 95.7251C204.708 95.4226 204.165 95.0028 203.764 94.4659C203.368 93.9247 203.155 93.2983 203.125 92.5866H205.132C205.158 92.9744 205.288 93.3111 205.522 93.5966C205.761 93.8778 206.072 94.0952 206.455 94.2486C206.839 94.402 207.265 94.4787 207.734 94.4787C208.249 94.4787 208.705 94.3892 209.102 94.2102C209.502 94.0312 209.815 93.782 210.041 93.4624C210.267 93.1385 210.38 92.7656 210.38 92.3438C210.38 91.9048 210.267 91.5192 210.041 91.1868C209.82 90.8501 209.494 90.5859 209.063 90.3942C208.637 90.2024 208.121 90.1065 207.516 90.1065H206.411V88.4957H207.516C208.002 88.4957 208.428 88.4084 208.795 88.2337C209.165 88.0589 209.455 87.8161 209.664 87.505C209.873 87.1896 209.977 86.821 209.977 86.3991C209.977 85.9943 209.886 85.6428 209.702 85.3445C209.523 85.0419 209.268 84.8054 208.935 84.6349C208.607 84.4645 208.219 84.3793 207.772 84.3793C207.346 84.3793 206.947 84.4581 206.577 84.6158C206.21 84.7692 205.912 84.9908 205.682 85.2805C205.452 85.5661 205.328 85.9091 205.311 86.3097H203.4C203.421 85.6023 203.63 84.9801 204.026 84.4432C204.427 83.9062 204.955 83.4865 205.612 83.1839C206.268 82.8814 206.996 82.7301 207.798 82.7301C208.637 82.7301 209.362 82.8942 209.971 83.2223C210.585 83.5462 211.058 83.9787 211.39 84.5199C211.727 85.0611 211.893 85.6534 211.888 86.2969C211.893 87.0298 211.688 87.652 211.275 88.1634C210.866 88.6747 210.32 89.0178 209.638 89.1925V89.2947C210.508 89.4268 211.181 89.772 211.658 90.3303C212.14 90.8885 212.379 91.581 212.374 92.4077C212.379 93.1278 212.178 93.7734 211.773 94.3445C211.373 94.9155 210.825 95.3651 210.131 95.6932C209.436 96.017 208.641 96.179 207.746 96.179Z" fill="#506796"/>
<mask id="path-7-inside-3_2281_542" fill="white">
<path d="M0 38C0 33.5817 3.58172 30 8 30H66C70.4183 30 74 33.5817 74 38V108H0V38Z"/>
</mask>
<path d="M0 38C0 33.5817 3.58172 30 8 30H66C70.4183 30 74 33.5817 74 38V108H0V38Z" fill="#101623"/>
<path d="M-1 38C-1 33.0294 3.02944 29 8 29H66C70.9706 29 75 33.0294 75 38H73C73 34.134 69.866 31 66 31H8C4.13401 31 1 34.134 1 38H-1ZM74 108H0H74ZM-1 108V38C-1 33.0294 3.02944 29 8 29V31C4.13401 31 1 34.134 1 38V108H-1ZM66 29C70.9706 29 75 33.0294 75 38V108H73V38C73 34.134 69.866 31 66 31V29Z" fill="#283857" mask="url(#path-7-inside-3_2281_542)"/>
<path d="M33.4439 66L35.5916 52.9091H37.1257L34.978 66H33.4439ZM27.5185 62.4972L27.7678 60.9631H37.6882L37.4389 62.4972H27.5185ZM28.8416 66L30.9893 52.9091H32.5234L30.3757 66H28.8416ZM28.2791 57.946L28.5284 56.4119H38.4489L38.1996 57.946H28.2791ZM39.9702 66V64.5682L44.3999 59.9787C44.8729 59.4801 45.2628 59.0433 45.5696 58.6683C45.8807 58.2891 46.1129 57.929 46.2663 57.5881C46.4197 57.2472 46.4964 56.8849 46.4964 56.5014C46.4964 56.0668 46.3942 55.6918 46.1896 55.3764C45.9851 55.0568 45.706 54.8118 45.3523 54.6413C44.9986 54.4666 44.6001 54.3793 44.157 54.3793C43.6882 54.3793 43.2791 54.4751 42.9297 54.6669C42.5803 54.8587 42.3118 55.1293 42.1243 55.4787C41.9368 55.8281 41.843 56.2372 41.843 56.706H39.9574C39.9574 55.9091 40.1406 55.2124 40.5071 54.6158C40.8736 54.0192 41.3764 53.5568 42.0156 53.2287C42.6548 52.8963 43.3814 52.7301 44.1953 52.7301C45.0178 52.7301 45.7422 52.8942 46.3686 53.2223C46.9993 53.5462 47.4915 53.9893 47.8452 54.5518C48.1989 55.1101 48.3757 55.7408 48.3757 56.4439C48.3757 56.9297 48.2841 57.4048 48.1009 57.8693C47.9219 58.3338 47.6087 58.8516 47.1612 59.4226C46.7138 59.9893 46.0916 60.6776 45.2947 61.4872L42.6932 64.2102V64.3061H48.5866V66H39.9702Z" fill="#506796"/>
</svg>
