<svg
            width="460"
            height="95"
            viewBox="0 0 460 95"
            fill="none"
            xmlns="http://www.w3.org/2000/svg"
          >
            <g filter="url(#filter0_d_292_67)">
              <mask
                id="path-1-outside-1_292_67"
                maskUnits="userSpaceOnUse"
                x="4.37402"
                y="0.421631"
                width="451"
                height="86"
                fill="black"
              >
                <rect fill="white" x="4.37402" y="0.421631" width="451" height="86" />
                <path d="M51.6111 27.6105C51.327 24.746 50.1077 22.5206 47.9534 20.9344C45.799 19.3482 42.8753 18.5551 39.1821 18.5551C36.6726 18.5551 34.5538 18.9103 32.8256 19.6205C31.0973 20.307 29.7716 21.2659 28.8483 22.4969C27.9487 23.728 27.4988 25.1248 27.4988 26.6873C27.4515 27.9893 27.7238 29.1257 28.3156 30.0963C28.9311 31.067 29.7716 31.9074 30.8369 32.6177C31.9023 33.3042 33.1333 33.9079 34.5301 34.4287C35.9269 34.9259 37.4184 35.352 39.0045 35.7071L45.5386 37.2696C48.711 37.9799 51.6229 38.9268 54.2744 40.1105C56.9259 41.2943 59.2223 42.7502 61.1636 44.4784C63.1049 46.2067 64.6082 48.2427 65.6736 50.5864C66.7626 52.9302 67.3189 55.6172 67.3426 58.6475C67.3189 63.0982 66.1826 66.9571 63.9335 70.2242C61.7081 73.4676 58.4884 75.9889 54.2744 77.7881C50.0841 79.5637 45.0296 80.4515 39.1111 80.4515C33.2399 80.4515 28.1262 79.5518 23.7702 77.7526C19.4378 75.9534 16.0523 73.29 13.6139 69.7625C11.1991 66.2114 9.93256 61.8198 9.81419 56.5878H24.6934C24.8592 59.0263 25.5576 61.0623 26.7886 62.6958C28.0434 64.3056 29.7124 65.5249 31.7957 66.3534C33.9027 67.1584 36.282 67.5608 38.9335 67.5608C41.5377 67.5608 43.7986 67.182 45.7162 66.4245C47.6575 65.6669 49.1608 64.6134 50.2261 63.264C51.2915 61.9145 51.8241 60.3639 51.8241 58.612C51.8241 56.9784 51.3388 55.6053 50.3682 54.4927C49.4212 53.38 48.0244 52.433 46.1778 51.6517C44.3549 50.8705 42.1177 50.1603 39.4662 49.5211L31.5471 47.5324C25.4155 46.0409 20.5741 43.709 17.023 40.5367C13.4719 37.3643 11.7081 33.0911 11.7318 27.7171C11.7081 23.3137 12.88 19.4666 15.2474 16.1759C17.6385 12.8852 20.9174 10.3165 25.0841 8.46992C29.2507 6.62333 33.9856 5.70004 39.2886 5.70004C44.6863 5.70004 49.3975 6.62333 53.4221 8.46992C57.4704 10.3165 60.6191 12.8852 62.8682 16.1759C65.1172 19.4666 66.2773 23.2782 66.3483 27.6105H51.6111ZM96.5606 79.4216H80.0834L105.19 6.69436H125.005L150.076 79.4216H133.599L115.382 23.3137H114.813L96.5606 79.4216ZM95.5308 50.835H134.451V62.8378H95.5308V50.835ZM182.206 6.69436V79.4216H166.83V6.69436H182.206ZM202.857 79.4216V6.69436H218.234V66.7441H249.413V79.4216H202.857ZM282.972 6.69436V79.4216H267.595V6.69436H282.972ZM364.454 6.69436V79.4216H351.172L319.532 33.6475H318.999V79.4216H303.623V6.69436H317.117L348.509 52.433H349.148V6.69436H364.454ZM433.382 30.2029C432.885 28.4747 432.187 26.9477 431.287 25.6219C430.388 24.2725 429.287 23.1361 427.985 22.2128C426.706 21.2659 425.238 20.5438 423.581 20.0466C421.948 19.5495 420.137 19.3009 418.148 19.3009C414.431 19.3009 411.164 20.2242 408.347 22.0708C405.553 23.9174 403.375 26.6044 401.813 30.1319C400.25 33.6356 399.469 37.9207 399.469 42.987C399.469 48.0533 400.238 52.362 401.777 55.9131C403.316 59.4642 405.494 62.1749 408.311 64.0452C411.129 65.8918 414.455 66.8151 418.29 66.8151C421.77 66.8151 424.741 66.1996 427.203 64.9685C429.689 63.7138 431.583 61.95 432.885 59.6773C434.211 57.4046 434.874 54.7176 434.874 51.6162L437.999 52.0779H419.249V40.5012H449.682V49.6631C449.682 56.0552 448.333 61.5476 445.634 66.1404C442.935 70.7095 439.218 74.237 434.483 76.7228C429.748 79.1849 424.327 80.4159 418.219 80.4159C411.401 80.4159 405.411 78.9126 400.25 75.906C395.089 72.8757 391.065 68.5788 388.176 63.0154C385.312 57.4283 383.88 50.7995 383.88 43.129C383.88 37.2341 384.732 31.9784 386.436 27.362C388.165 22.7218 390.579 18.7919 393.681 15.5722C396.782 12.3525 400.392 9.90221 404.512 8.22134C408.631 6.54047 413.094 5.70004 417.899 5.70004C422.019 5.70004 425.854 6.30373 429.405 7.51112C432.956 8.69483 436.105 10.3757 438.851 12.5537C441.621 14.7318 443.882 17.3241 445.634 20.3307C447.386 23.3137 448.51 26.6044 449.007 30.2029H433.382Z" />
              </mask>
              <path
                d="M51.6111 27.6105C51.327 24.746 50.1077 22.5206 47.9534 20.9344C45.799 19.3482 42.8753 18.5551 39.1821 18.5551C36.6726 18.5551 34.5538 18.9103 32.8256 19.6205C31.0973 20.307 29.7716 21.2659 28.8483 22.4969C27.9487 23.728 27.4988 25.1248 27.4988 26.6873C27.4515 27.9893 27.7238 29.1257 28.3156 30.0963C28.9311 31.067 29.7716 31.9074 30.8369 32.6177C31.9023 33.3042 33.1333 33.9079 34.5301 34.4287C35.9269 34.9259 37.4184 35.352 39.0045 35.7071L45.5386 37.2696C48.711 37.9799 51.6229 38.9268 54.2744 40.1105C56.9259 41.2943 59.2223 42.7502 61.1636 44.4784C63.1049 46.2067 64.6082 48.2427 65.6736 50.5864C66.7626 52.9302 67.3189 55.6172 67.3426 58.6475C67.3189 63.0982 66.1826 66.9571 63.9335 70.2242C61.7081 73.4676 58.4884 75.9889 54.2744 77.7881C50.0841 79.5637 45.0296 80.4515 39.1111 80.4515C33.2399 80.4515 28.1262 79.5518 23.7702 77.7526C19.4378 75.9534 16.0523 73.29 13.6139 69.7625C11.1991 66.2114 9.93256 61.8198 9.81419 56.5878H24.6934C24.8592 59.0263 25.5576 61.0623 26.7886 62.6958C28.0434 64.3056 29.7124 65.5249 31.7957 66.3534C33.9027 67.1584 36.282 67.5608 38.9335 67.5608C41.5377 67.5608 43.7986 67.182 45.7162 66.4245C47.6575 65.6669 49.1608 64.6134 50.2261 63.264C51.2915 61.9145 51.8241 60.3639 51.8241 58.612C51.8241 56.9784 51.3388 55.6053 50.3682 54.4927C49.4212 53.38 48.0244 52.433 46.1778 51.6517C44.3549 50.8705 42.1177 50.1603 39.4662 49.5211L31.5471 47.5324C25.4155 46.0409 20.5741 43.709 17.023 40.5367C13.4719 37.3643 11.7081 33.0911 11.7318 27.7171C11.7081 23.3137 12.88 19.4666 15.2474 16.1759C17.6385 12.8852 20.9174 10.3165 25.0841 8.46992C29.2507 6.62333 33.9856 5.70004 39.2886 5.70004C44.6863 5.70004 49.3975 6.62333 53.4221 8.46992C57.4704 10.3165 60.6191 12.8852 62.8682 16.1759C65.1172 19.4666 66.2773 23.2782 66.3483 27.6105H51.6111ZM96.5606 79.4216H80.0834L105.19 6.69436H125.005L150.076 79.4216H133.599L115.382 23.3137H114.813L96.5606 79.4216ZM95.5308 50.835H134.451V62.8378H95.5308V50.835ZM182.206 6.69436V79.4216H166.83V6.69436H182.206ZM202.857 79.4216V6.69436H218.234V66.7441H249.413V79.4216H202.857ZM282.972 6.69436V79.4216H267.595V6.69436H282.972ZM364.454 6.69436V79.4216H351.172L319.532 33.6475H318.999V79.4216H303.623V6.69436H317.117L348.509 52.433H349.148V6.69436H364.454ZM433.382 30.2029C432.885 28.4747 432.187 26.9477 431.287 25.6219C430.388 24.2725 429.287 23.1361 427.985 22.2128C426.706 21.2659 425.238 20.5438 423.581 20.0466C421.948 19.5495 420.137 19.3009 418.148 19.3009C414.431 19.3009 411.164 20.2242 408.347 22.0708C405.553 23.9174 403.375 26.6044 401.813 30.1319C400.25 33.6356 399.469 37.9207 399.469 42.987C399.469 48.0533 400.238 52.362 401.777 55.9131C403.316 59.4642 405.494 62.1749 408.311 64.0452C411.129 65.8918 414.455 66.8151 418.29 66.8151C421.77 66.8151 424.741 66.1996 427.203 64.9685C429.689 63.7138 431.583 61.95 432.885 59.6773C434.211 57.4046 434.874 54.7176 434.874 51.6162L437.999 52.0779H419.249V40.5012H449.682V49.6631C449.682 56.0552 448.333 61.5476 445.634 66.1404C442.935 70.7095 439.218 74.237 434.483 76.7228C429.748 79.1849 424.327 80.4159 418.219 80.4159C411.401 80.4159 405.411 78.9126 400.25 75.906C395.089 72.8757 391.065 68.5788 388.176 63.0154C385.312 57.4283 383.88 50.7995 383.88 43.129C383.88 37.2341 384.732 31.9784 386.436 27.362C388.165 22.7218 390.579 18.7919 393.681 15.5722C396.782 12.3525 400.392 9.90221 404.512 8.22134C408.631 6.54047 413.094 5.70004 417.899 5.70004C422.019 5.70004 425.854 6.30373 429.405 7.51112C432.956 8.69483 436.105 10.3757 438.851 12.5537C441.621 14.7318 443.882 17.3241 445.634 20.3307C447.386 23.3137 448.51 26.6044 449.007 30.2029H433.382Z"
                fill="url(#paint0_linear_292_67)"
              />
              <path
                d="M51.6111 27.6105L46.6355 28.104L47.0824 32.6105H51.6111V27.6105ZM32.8256 19.6205L34.6715 24.2673L34.6989 24.2564L34.7261 24.2452L32.8256 19.6205ZM28.8483 22.4969L24.8483 19.4969L24.8296 19.5218L24.8113 19.5468L28.8483 22.4969ZM27.4988 26.6873L32.4955 26.869L32.4988 26.7781V26.6873H27.4988ZM28.3156 30.0963L24.0466 32.6994L24.0695 32.7369L24.0931 32.7741L28.3156 30.0963ZM30.8369 32.6177L28.0634 36.7779L28.0957 36.7995L28.1284 36.8205L30.8369 32.6177ZM34.5301 34.4287L32.7832 39.1136L32.8182 39.1267L32.8535 39.1392L34.5301 34.4287ZM39.0045 35.7071L40.1674 30.8442L40.1322 30.8358L40.0969 30.8279L39.0045 35.7071ZM45.5386 37.2696L44.3758 42.1325L44.4109 42.141L44.4463 42.1489L45.5386 37.2696ZM54.2744 40.1105L52.2362 44.6762L52.2362 44.6762L54.2744 40.1105ZM61.1636 44.4784L64.4883 40.7439L64.4883 40.7439L61.1636 44.4784ZM65.6736 50.5864L61.1217 52.6554L61.1304 52.6744L61.1391 52.6933L65.6736 50.5864ZM67.3426 58.6475L72.3425 58.6741L72.3427 58.6413L72.3424 58.6084L67.3426 58.6475ZM63.9335 70.2242L59.815 67.389L59.8107 67.3954L63.9335 70.2242ZM54.2744 77.7881L56.2252 82.3919L56.2378 82.3865L54.2744 77.7881ZM23.7702 77.7526L21.8524 82.3702L21.8614 82.3739L23.7702 77.7526ZM13.6139 69.7625L9.47927 72.5741L9.49005 72.5899L9.50096 72.6057L13.6139 69.7625ZM9.81419 56.5878V51.5878H4.69978L4.81547 56.7009L9.81419 56.5878ZM24.6934 56.5878L29.6819 56.2488L29.3652 51.5878H24.6934V56.5878ZM26.7886 62.6958L22.7956 65.705L22.82 65.7375L22.845 65.7695L26.7886 62.6958ZM31.7957 66.3534L29.9479 70.9995L29.9795 71.0121L30.0114 71.0242L31.7957 66.3534ZM45.7162 66.4245L43.8985 61.7666L43.8887 61.7704L43.879 61.7742L45.7162 66.4245ZM50.2261 63.264L54.1505 66.3622L54.1505 66.3622L50.2261 63.264ZM50.3682 54.4927L46.5605 57.7332L46.5803 57.7565L46.6003 57.7795L50.3682 54.4927ZM46.1778 51.6517L44.2082 56.2475L44.2189 56.252L44.2296 56.2566L46.1778 51.6517ZM39.4662 49.5211L38.2484 54.3705L38.2714 54.3763L38.2944 54.3818L39.4662 49.5211ZM31.5471 47.5324L32.7649 42.683L32.7469 42.6785L32.7289 42.6741L31.5471 47.5324ZM17.023 40.5367L13.6919 44.2655L13.6919 44.2655L17.023 40.5367ZM11.7318 27.7171L16.7318 27.7391L16.7319 27.7147L16.7317 27.6902L11.7318 27.7171ZM15.2474 16.1759L11.2025 13.2368L11.1955 13.2463L11.1886 13.2559L15.2474 16.1759ZM53.4221 8.46992L51.337 13.0144L51.3471 13.019L53.4221 8.46992ZM62.8682 16.1759L58.7402 18.9972L58.7402 18.9972L62.8682 16.1759ZM66.3483 27.6105V32.6105H71.4309L71.3476 27.5286L66.3483 27.6105ZM51.6111 27.6105L56.5867 27.1171C56.1747 22.9636 54.3067 19.4031 50.9179 16.908L47.9534 20.9344L44.9889 24.9608C45.9088 25.6381 46.4792 26.5283 46.6355 28.104L51.6111 27.6105ZM47.9534 20.9344L50.9179 16.908C47.632 14.4887 43.5448 13.5551 39.1821 13.5551V18.5551V23.5551C42.2058 23.5551 43.9661 24.2078 44.9889 24.9608L47.9534 20.9344ZM39.1821 18.5551V13.5551C36.2314 13.5551 33.4246 13.9686 30.925 14.9958L32.8256 19.6205L34.7261 24.2452C35.683 23.852 37.1138 23.5551 39.1821 23.5551V18.5551ZM32.8256 19.6205L30.9796 14.9737C28.5745 15.9292 26.4294 17.3887 24.8483 19.4969L28.8483 22.4969L32.8483 25.4969C33.1137 25.143 33.6201 24.6849 34.6715 24.2673L32.8256 19.6205ZM28.8483 22.4969L24.8113 19.5468C23.2695 21.6567 22.4988 24.0923 22.4988 26.6873H27.4988H32.4988C32.4988 26.1572 32.6278 25.7993 32.8852 25.447L28.8483 22.4969ZM27.4988 26.6873L22.5021 26.5056C22.4245 28.64 22.8729 30.7745 24.0466 32.6994L28.3156 30.0963L32.5846 27.4933C32.5746 27.477 32.4785 27.3387 32.4955 26.869L27.4988 26.6873ZM28.3156 30.0963L24.0931 32.7741C25.1233 34.3987 26.4833 35.7245 28.0634 36.7779L30.8369 32.6177L33.6104 28.4574C33.0598 28.0903 32.739 27.7353 32.5382 27.4186L28.3156 30.0963ZM30.8369 32.6177L28.1284 36.8205C29.5434 37.7324 31.1067 38.4885 32.7832 39.1136L34.5301 34.4287L36.277 29.7438C35.1599 29.3273 34.2611 28.876 33.5454 28.4148L30.8369 32.6177ZM34.5301 34.4287L32.8535 39.1392C34.4586 39.7106 36.1467 40.1911 37.9122 40.5864L39.0045 35.7071L40.0969 30.8279C38.69 30.513 37.3951 30.1412 36.2067 29.7182L34.5301 34.4287ZM39.0045 35.7071L37.8417 40.57L44.3758 42.1325L45.5386 37.2696L46.7015 32.4067L40.1674 30.8442L39.0045 35.7071ZM45.5386 37.2696L44.4463 42.1489C47.3316 42.7948 49.9223 43.6433 52.2362 44.6762L54.2744 40.1105L56.3127 35.5449C53.3235 34.2104 50.0903 33.1649 46.631 32.3904L45.5386 37.2696ZM54.2744 40.1105L52.2362 44.6762C54.4731 45.6749 56.3233 46.8637 57.839 48.213L61.1636 44.4784L64.4883 40.7439C62.1214 38.6368 59.3788 36.9137 56.3127 35.5449L54.2744 40.1105ZM61.1636 44.4784L57.839 48.213C59.2647 49.4822 60.3477 50.9525 61.1217 52.6554L65.6736 50.5864L70.2254 48.5174C68.8687 45.5328 66.9451 42.9311 64.4883 40.7439L61.1636 44.4784ZM65.6736 50.5864L61.1391 52.6933C61.8795 54.2866 62.3237 56.2487 62.3427 58.6865L67.3426 58.6475L72.3424 58.6084C72.3141 54.9857 71.6457 51.5737 70.208 48.4795L65.6736 50.5864ZM67.3426 58.6475L62.3427 58.6209C62.3237 62.1954 61.427 65.0474 59.815 67.389L63.9335 70.2242L68.052 73.0594C70.9381 68.8669 72.3142 64.0011 72.3425 58.6741L67.3426 58.6475ZM63.9335 70.2242L59.8107 67.3954C58.2061 69.7339 55.7986 71.7007 52.3111 73.1897L54.2744 77.7881L56.2378 82.3865C61.1783 80.2771 65.2101 77.2012 68.0563 73.053L63.9335 70.2242ZM54.2744 77.7881L52.3237 73.1843C48.9057 74.6326 44.5516 75.4515 39.1111 75.4515V80.4515V85.4515C45.5076 85.4515 51.2624 84.4947 56.2252 82.3919L54.2744 77.7881ZM39.1111 80.4515V75.4515C33.7392 75.4515 29.3008 74.6273 25.679 73.1313L23.7702 77.7526L21.8614 82.3739C26.9516 84.4764 32.7405 85.4515 39.1111 85.4515V80.4515ZM23.7702 77.7526L25.6879 73.135C22.1558 71.6681 19.5682 69.583 17.7269 66.9194L13.6139 69.7625L9.50096 72.6057C12.5365 76.997 16.7197 80.2386 21.8525 82.3702L23.7702 77.7526ZM13.6139 69.7625L17.7485 66.951C15.9841 64.3563 14.9143 60.955 14.8129 56.4747L9.81419 56.5878L4.81547 56.7009C4.95085 62.6847 6.41414 68.0665 9.47927 72.5741L13.6139 69.7625ZM9.81419 56.5878V61.5878H24.6934V56.5878V51.5878H9.81419V56.5878ZM24.6934 56.5878L19.705 56.9268C19.9235 60.1419 20.8752 63.1568 22.7956 65.705L26.7886 62.6958L30.7817 59.6865C30.24 58.9677 29.7949 57.9107 29.6819 56.2488L24.6934 56.5878ZM26.7886 62.6958L22.845 65.7695C24.699 68.1482 27.1223 69.8757 29.9479 70.9995L31.7957 66.3534L33.6436 61.7074C32.3025 61.174 31.3877 60.4631 30.7323 59.6221L26.7886 62.6958ZM31.7957 66.3534L30.0114 71.0242C32.7786 72.0814 35.7771 72.5608 38.9335 72.5608V67.5608V62.5608C36.7869 62.5608 35.0269 62.2354 33.5801 61.6827L31.7957 66.3534ZM38.9335 67.5608V72.5608C42.0077 72.5608 44.9193 72.1153 47.5533 71.0747L45.7162 66.4245L43.879 61.7742C42.6779 62.2487 41.0676 62.5608 38.9335 62.5608V67.5608ZM45.7162 66.4245L47.5339 71.0824C50.1281 70.07 52.4281 68.544 54.1505 66.3622L50.2261 63.264L46.3017 60.1657C45.8935 60.6828 45.1869 61.2638 43.8985 61.7666L45.7162 66.4245ZM50.2261 63.264L54.1505 66.3622C55.9267 64.1123 56.8241 61.465 56.8241 58.612H51.8241H46.8241C46.8241 59.2627 46.6562 59.7167 46.3017 60.1657L50.2261 63.264ZM51.8241 58.612H56.8241C56.8241 55.908 55.9874 53.3281 54.136 51.2058L50.3682 54.4927L46.6003 57.7795C46.6902 57.8826 46.8241 58.0489 46.8241 58.612H51.8241ZM50.3682 54.4927L54.1759 51.2521C52.5717 49.3672 50.4374 48.0248 48.126 47.0469L46.1778 51.6517L44.2296 56.2566C45.6115 56.8412 46.2707 57.3927 46.5605 57.7332L50.3682 54.4927ZM46.1778 51.6517L48.1474 47.056C45.991 46.1318 43.4689 45.3428 40.638 44.6603L39.4662 49.5211L38.2944 54.3818C40.7665 54.9778 42.7188 55.6091 44.2082 56.2475L46.1778 51.6517ZM39.4662 49.5211L40.684 44.6716L32.7649 42.683L31.5471 47.5324L30.3293 52.3819L38.2484 54.3705L39.4662 49.5211ZM31.5471 47.5324L32.7289 42.6741C27.1457 41.316 23.1257 39.2839 20.3541 36.8079L17.023 40.5367L13.6919 44.2655C18.0226 48.1342 23.6854 50.7659 30.3654 52.3908L31.5471 47.5324ZM17.023 40.5367L20.3541 36.8079C18.0143 34.7177 16.7135 31.8864 16.7318 27.7391L11.7318 27.7171L6.73185 27.6951C6.70277 34.2959 8.92942 40.011 13.6919 44.2655L17.023 40.5367ZM11.7318 27.7171L16.7317 27.6902C16.7132 24.2476 17.61 21.4535 19.3062 19.0959L15.2474 16.1759L11.1886 13.2559C8.14996 17.4797 6.70303 22.3797 6.73187 27.744L11.7318 27.7171ZM15.2474 16.1759L19.2924 19.115C21.1057 16.6194 23.6492 14.5749 27.1099 13.0411L25.0841 8.46992L23.0582 3.89873C18.1856 6.05816 14.1714 9.1509 11.2025 13.2368L15.2474 16.1759ZM25.0841 8.46992L27.1099 13.0411C30.5427 11.5198 34.5702 10.7 39.2886 10.7V5.70004V0.700037C33.4009 0.700037 27.9588 1.72689 23.0582 3.89873L25.0841 8.46992ZM39.2886 5.70004V10.7C44.121 10.7 48.0937 11.5263 51.337 13.0144L53.4221 8.46992L55.5073 3.92545C50.7014 1.7204 45.2517 0.700037 39.2886 0.700037V5.70004ZM53.4221 8.46992L51.3471 13.019C54.6655 14.5327 57.0634 16.5438 58.7402 18.9972L62.8682 16.1759L66.9962 13.3546C64.1749 9.22658 60.2754 6.10037 55.4972 3.92083L53.4221 8.46992ZM62.8682 16.1759L58.7402 18.9972C60.3887 21.4093 61.2925 24.2499 61.3489 27.6925L66.3483 27.6105L71.3476 27.5286C71.262 22.3065 69.8457 17.5239 66.9962 13.3546L62.8682 16.1759ZM66.3483 27.6105V22.6105H51.6111V27.6105V32.6105H66.3483V27.6105ZM96.5606 79.4216V84.4216H100.192L101.315 80.9684L96.5606 79.4216ZM80.0834 79.4216L75.3571 77.79L73.0677 84.4216H80.0834V79.4216ZM105.19 6.69436V1.69436H101.626L100.464 5.06277L105.19 6.69436ZM125.005 6.69436L129.732 5.06483L128.57 1.69436H125.005V6.69436ZM150.076 79.4216V84.4216H157.089L154.803 77.7921L150.076 79.4216ZM133.599 79.4216L128.843 80.9657L129.965 84.4216H133.599V79.4216ZM115.382 23.3137L120.137 21.7696L119.015 18.3137H115.382V23.3137ZM114.813 23.3137V18.3137H111.182L110.059 21.7669L114.813 23.3137ZM95.5308 50.835V45.835H90.5308V50.835H95.5308ZM134.451 50.835H139.451V45.835H134.451V50.835ZM134.451 62.8378V67.8378H139.451V62.8378H134.451ZM95.5308 62.8378H90.5308V67.8378H95.5308V62.8378ZM96.5606 79.4216V74.4216H80.0834V79.4216V84.4216H96.5606V79.4216ZM80.0834 79.4216L84.8097 81.0532L109.916 8.32595L105.19 6.69436L100.464 5.06277L75.3571 77.79L80.0834 79.4216ZM105.19 6.69436V11.6944H125.005V6.69436V1.69436H105.19V6.69436ZM125.005 6.69436L120.278 8.32388L145.349 81.0512L150.076 79.4216L154.803 77.7921L129.732 5.06483L125.005 6.69436ZM150.076 79.4216V74.4216H133.599V79.4216V84.4216H150.076V79.4216ZM133.599 79.4216L138.355 77.8776L120.137 21.7696L115.382 23.3137L110.626 24.8577L128.843 80.9657L133.599 79.4216ZM115.382 23.3137V18.3137H114.813V23.3137V28.3137H115.382V23.3137ZM114.813 23.3137L110.059 21.7669L91.8059 77.8748L96.5606 79.4216L101.315 80.9684L119.568 24.8605L114.813 23.3137ZM95.5308 50.835V55.835H134.451V50.835V45.835H95.5308V50.835ZM134.451 50.835H129.451V62.8378H134.451H139.451V50.835H134.451ZM134.451 62.8378V57.8378H95.5308V62.8378V67.8378H134.451V62.8378ZM95.5308 62.8378H100.531V50.835H95.5308H90.5308V62.8378H95.5308ZM182.206 6.69436H187.206V1.69436H182.206V6.69436ZM182.206 79.4216V84.4216H187.206V79.4216H182.206ZM166.83 79.4216H161.83V84.4216H166.83V79.4216ZM166.83 6.69436V1.69436H161.83V6.69436H166.83ZM182.206 6.69436H177.206V79.4216H182.206H187.206V6.69436H182.206ZM182.206 79.4216V74.4216H166.83V79.4216V84.4216H182.206V79.4216ZM166.83 79.4216H171.83V6.69436H166.83H161.83V79.4216H166.83ZM166.83 6.69436V11.6944H182.206V6.69436V1.69436H166.83V6.69436ZM202.857 79.4216H197.857V84.4216H202.857V79.4216ZM202.857 6.69436V1.69436H197.857V6.69436H202.857ZM218.234 6.69436H223.234V1.69436H218.234V6.69436ZM218.234 66.7441H213.234V71.7441H218.234V66.7441ZM249.413 66.7441H254.413V61.7441H249.413V66.7441ZM249.413 79.4216V84.4216H254.413V79.4216H249.413ZM202.857 79.4216H207.857V6.69436H202.857H197.857V79.4216H202.857ZM202.857 6.69436V11.6944H218.234V6.69436V1.69436H202.857V6.69436ZM218.234 6.69436H213.234V66.7441H218.234H223.234V6.69436H218.234ZM218.234 66.7441V71.7441H249.413V66.7441V61.7441H218.234V66.7441ZM249.413 66.7441H244.413V79.4216H249.413H254.413V66.7441H249.413ZM249.413 79.4216V74.4216H202.857V79.4216V84.4216H249.413V79.4216ZM282.972 6.69436H287.972V1.69436H282.972V6.69436ZM282.972 79.4216V84.4216H287.972V79.4216H282.972ZM267.595 79.4216H262.595V84.4216H267.595V79.4216ZM267.595 6.69436V1.69436H262.595V6.69436H267.595ZM282.972 6.69436H277.972V79.4216H282.972H287.972V6.69436H282.972ZM282.972 79.4216V74.4216H267.595V79.4216V84.4216H282.972V79.4216ZM267.595 79.4216H272.595V6.69436H267.595H262.595V79.4216H267.595ZM267.595 6.69436V11.6944H282.972V6.69436V1.69436H267.595V6.69436ZM364.454 6.69436H369.454V1.69436H364.454V6.69436ZM364.454 79.4216V84.4216H369.454V79.4216H364.454ZM351.172 79.4216L347.059 82.2647L348.55 84.4216H351.172V79.4216ZM319.532 33.6475L323.645 30.8044L322.154 28.6475H319.532V33.6475ZM318.999 33.6475V28.6475H313.999V33.6475H318.999ZM318.999 79.4216V84.4216H323.999V79.4216H318.999ZM303.623 79.4216H298.623V84.4216H303.623V79.4216ZM303.623 6.69436V1.69436H298.623V6.69436H303.623ZM317.117 6.69436L321.24 3.86497L319.75 1.69436H317.117V6.69436ZM348.509 52.433L344.387 55.2624L345.876 57.433H348.509V52.433ZM349.148 52.433V57.433H354.148V52.433H349.148ZM349.148 6.69436V1.69436H344.148V6.69436H349.148ZM364.454 6.69436H359.454V79.4216H364.454H369.454V6.69436H364.454ZM364.454 79.4216V74.4216H351.172V79.4216V84.4216H364.454V79.4216ZM351.172 79.4216L355.286 76.5786L323.645 30.8044L319.532 33.6475L315.419 36.4905L347.059 82.2647L351.172 79.4216ZM319.532 33.6475V28.6475H318.999V33.6475V38.6475H319.532V33.6475ZM318.999 33.6475H313.999V79.4216H318.999H323.999V33.6475H318.999ZM318.999 79.4216V74.4216H303.623V79.4216V84.4216H318.999V79.4216ZM303.623 79.4216H308.623V6.69436H303.623H298.623V79.4216H303.623ZM303.623 6.69436V11.6944H317.117V6.69436V1.69436H303.623V6.69436ZM317.117 6.69436L312.995 9.52374L344.387 55.2624L348.509 52.433L352.632 49.6036L321.24 3.86497L317.117 6.69436ZM348.509 52.433V57.433H349.148V52.433V47.433H348.509V52.433ZM349.148 52.433H354.148V6.69436H349.148H344.148V52.433H349.148ZM349.148 6.69436V11.6944H364.454V6.69436V1.69436H349.148V6.69436ZM433.382 30.2029L428.577 31.5852L429.618 35.2029H433.382V30.2029ZM431.287 25.6219L427.127 28.3954L427.138 28.4125L427.15 28.4294L431.287 25.6219ZM427.985 22.2128L425.009 26.2306L425.05 26.2615L425.093 26.2915L427.985 22.2128ZM423.581 20.0466L422.125 24.83L422.135 24.8329L422.144 24.8358L423.581 20.0466ZM408.347 22.0708L405.606 17.889L405.598 17.8943L405.59 17.8997L408.347 22.0708ZM401.813 30.1319L406.379 32.1683L406.384 32.1569L401.813 30.1319ZM408.311 64.0452L405.546 68.2108L405.558 68.2189L405.57 68.227L408.311 64.0452ZM427.203 64.9685L429.439 69.4406L429.448 69.4364L429.456 69.4321L427.203 64.9685ZM432.885 59.6773L428.566 57.158L428.556 57.1748L428.547 57.1918L432.885 59.6773ZM434.874 51.6162L435.605 46.6699L429.874 45.8233V51.6162H434.874ZM437.999 52.0779V57.0779L438.73 47.1316L437.999 52.0779ZM419.249 52.0779H414.249V57.0779H419.249V52.0779ZM419.249 40.5012V35.5012H414.249V40.5012H419.249ZM449.682 40.5012H454.682V35.5012H449.682V40.5012ZM445.634 66.1404L449.939 68.6833L449.945 68.6735L445.634 66.1404ZM434.483 76.7228L436.79 81.1589L436.799 81.1543L436.807 81.1498L434.483 76.7228ZM400.25 75.906L397.719 80.2177L397.726 80.222L397.733 80.2263L400.25 75.906ZM388.176 63.0154L383.727 65.2966L383.733 65.3079L383.739 65.3192L388.176 63.0154ZM386.436 27.362L381.751 25.6168L381.748 25.6235L381.746 25.6301L386.436 27.362ZM393.681 15.5722L397.282 19.0409L397.282 19.0409L393.681 15.5722ZM404.512 8.22134L402.623 3.59192L402.623 3.59192L404.512 8.22134ZM429.405 7.51112L427.796 12.245L427.81 12.2498L427.824 12.2545L429.405 7.51112ZM438.851 12.5537L435.744 16.4712L435.752 16.4777L435.761 16.4842L438.851 12.5537ZM445.634 20.3307L441.314 22.848L441.318 22.8554L441.322 22.8628L445.634 20.3307ZM449.007 30.2029V35.2029H454.746L453.96 29.5186L449.007 30.2029ZM433.382 30.2029L438.187 28.8206C437.562 26.6464 436.654 24.6269 435.425 22.8144L431.287 25.6219L427.15 28.4294C427.719 29.2685 428.208 30.3029 428.577 31.5852L433.382 30.2029ZM431.287 25.6219L435.447 22.8484C434.214 20.9984 432.686 19.417 430.877 18.1342L427.985 22.2128L425.093 26.2915C425.887 26.8552 426.561 27.5466 427.127 28.3954L431.287 25.6219ZM427.985 22.2128L430.961 18.195C429.179 16.875 427.181 15.9063 425.018 15.2575L423.581 20.0466L422.144 24.8358C423.296 25.1813 424.234 25.6567 425.009 26.2306L427.985 22.2128ZM423.581 20.0466L425.037 15.2633C422.861 14.6011 420.551 14.3009 418.148 14.3009V19.3009V24.3009C419.723 24.3009 421.034 24.4978 422.125 24.83L423.581 20.0466ZM418.148 19.3009V14.3009C413.562 14.3009 409.321 15.454 405.606 17.889L408.347 22.0708L411.088 26.2525C413.007 24.9944 415.3 24.3009 418.148 24.3009V19.3009ZM408.347 22.0708L405.59 17.8997C401.883 20.3499 399.131 23.8413 397.241 28.1069L401.813 30.1319L406.384 32.1569C407.62 29.3675 409.224 27.4848 411.104 26.2419L408.347 22.0708ZM401.813 30.1319L397.246 28.0954C395.322 32.4104 394.469 37.4332 394.469 42.987H399.469H404.469C404.469 38.4082 405.179 34.8608 406.379 32.1683L401.813 30.1319ZM399.469 42.987H394.469C394.469 48.5356 395.309 53.5608 397.189 57.9011L401.777 55.9131L406.365 53.9251C405.168 51.1632 404.469 47.5709 404.469 42.987H399.469ZM401.777 55.9131L397.189 57.9011C399.056 62.2074 401.812 65.7319 405.546 68.2108L408.311 64.0452L411.077 59.8796C409.176 58.618 407.577 56.7211 406.365 53.9251L401.777 55.9131ZM408.311 64.0452L405.57 68.227C409.311 70.6788 413.62 71.8151 418.29 71.8151V66.8151V61.8151C415.29 61.8151 412.946 61.1048 411.052 59.8635L408.311 64.0452ZM418.29 66.8151V71.8151C422.347 71.8151 426.124 71.0983 429.439 69.4406L427.203 64.9685L424.967 60.4964C423.358 61.3009 421.194 61.8151 418.29 61.8151V66.8151ZM427.203 64.9685L429.456 69.4321C432.758 67.7656 435.404 65.3394 437.224 62.1629L432.885 59.6773L428.547 57.1918C427.763 58.5607 426.62 59.662 424.95 60.5049L427.203 64.9685ZM432.885 59.6773L437.204 62.1967C439.05 59.0324 439.874 55.4435 439.874 51.6162H434.874H429.874C429.874 53.9917 429.372 55.7767 428.566 57.158L432.885 59.6773ZM434.874 51.6162L434.143 56.5625L437.268 57.0242L437.999 52.0779L438.73 47.1316L435.605 46.6699L434.874 51.6162ZM437.999 52.0779V47.0779H419.249V52.0779V57.0779H437.999V52.0779ZM419.249 52.0779H424.249V40.5012H419.249H414.249V52.0779H419.249ZM419.249 40.5012V45.5012H449.682V40.5012V35.5012H419.249V40.5012ZM449.682 40.5012H444.682V49.6631H449.682H454.682V40.5012H449.682ZM449.682 49.6631H444.682C444.682 55.343 443.488 59.9229 441.323 63.6072L445.634 66.1404L449.945 68.6735C453.177 63.1723 454.682 56.7673 454.682 49.6631H449.682ZM445.634 66.1404L441.329 63.5975C439.106 67.3602 436.078 70.2383 432.159 72.2958L434.483 76.7228L436.807 81.1498C442.358 78.2357 446.764 74.0588 449.939 68.6833L445.634 66.1404ZM434.483 76.7228L432.176 72.2867C428.251 74.3279 423.641 75.4159 418.219 75.4159V80.4159V85.4159C425.013 85.4159 431.246 84.0419 436.79 81.1589L434.483 76.7228ZM418.219 80.4159V75.4159C412.158 75.4159 407.061 74.0872 402.767 71.5857L400.25 75.906L397.733 80.2263C403.761 83.7381 410.644 85.4159 418.219 85.4159V80.4159ZM400.25 75.906L402.782 71.5943C398.472 69.0637 395.09 65.4812 392.614 60.7116L388.176 63.0154L383.739 65.3192C387.039 71.6764 391.707 76.6877 397.719 80.2177L400.25 75.906ZM388.176 63.0154L392.626 60.7342C390.195 55.9926 388.88 50.1795 388.88 43.129H383.88H378.88C378.88 51.4194 380.429 58.8639 383.727 65.2966L388.176 63.0154ZM383.88 43.129H388.88C388.88 37.7113 389.663 33.0583 391.127 29.0938L386.436 27.362L381.746 25.6301C379.801 30.8986 378.88 36.7569 378.88 43.129H383.88ZM386.436 27.362L391.122 29.1071C392.637 25.0403 394.705 21.7158 397.282 19.0409L393.681 15.5722L390.08 12.1035C386.453 15.868 383.693 20.4033 381.751 25.6168L386.436 27.362ZM393.681 15.5722L397.282 19.0409C399.902 16.3207 402.93 14.267 406.401 12.8508L404.512 8.22134L402.623 3.59192C397.855 5.53743 393.662 8.38426 390.08 12.1035L393.681 15.5722ZM404.512 8.22134L406.401 12.8508C409.874 11.4337 413.689 10.7 417.899 10.7V5.70004V0.700037C412.498 0.700037 407.388 1.64729 402.623 3.59192L404.512 8.22134ZM417.899 5.70004V10.7C421.525 10.7 424.811 11.2303 427.796 12.245L429.405 7.51112L431.015 2.77726C426.897 1.37719 422.513 0.700037 417.899 0.700037V5.70004ZM429.405 7.51112L427.824 12.2545C430.86 13.2666 433.485 14.6793 435.744 16.4712L438.851 12.5537L441.958 8.63624C438.725 6.07214 435.052 4.12311 430.986 2.7677L429.405 7.51112ZM438.851 12.5537L435.761 16.4842C438.042 18.2778 439.883 20.3926 441.314 22.848L445.634 20.3307L449.954 17.8135C447.881 14.2556 445.2 11.1857 441.942 8.6233L438.851 12.5537ZM445.634 20.3307L441.322 22.8628C442.724 25.2499 443.643 27.9076 444.054 30.8872L449.007 30.2029L453.96 29.5186C453.378 25.3012 452.047 21.3775 449.945 17.7986L445.634 20.3307ZM449.007 30.2029V25.2029H433.382V30.2029V35.2029H449.007V30.2029Z"
                fill="#B28B6F"
                mask="url(#path-1-outside-1_292_67)"
              />
            </g>
            <defs>
              <filter
                id="filter0_d_292_67"
                x="-0.000292778"
                y="7.34329e-05"
                width="459.446"
                height="94.1513"
                filterUnits="userSpaceOnUse"
                color-interpolation-filters="sRGB"
              >
                <feFlood flood-opacity="0" result="BackgroundImageFix" />
                <feColorMatrix
                  in="SourceAlpha"
                  type="matrix"
                  values="0 0 0 0 0 0 0 0 0 0 0 0 0 0 0 0 0 0 127 0"
                  result="hardAlpha"
                />
                <feOffset dy="4" />
                <feGaussianBlur stdDeviation="2.35" />
                <feComposite in2="hardAlpha" operator="out" />
                <feColorMatrix type="matrix" values="0 0 0 0 0 0 0 0 0 0 0 0 0 0 0 0 0 0 0.5 0" />
                <feBlend mode="normal" in2="BackgroundImageFix" result="effect1_dropShadow_292_67" />
                <feBlend
                  mode="normal"
                  in="SourceGraphic"
                  in2="effect1_dropShadow_292_67"
                  result="shape"
                />
              </filter>
              <linearGradient
                id="paint0_linear_292_67"
                x1="199.396"
                y1="4.6169"
                x2="199.396"
                y2="79.0784"
                gradientUnits="userSpaceOnUse"
              >
                <stop stop-color="#875E42" />
                <stop offset="1" stop-color="#573925" />
              </linearGradient>
            </defs>
          </svg>