<svg viewBox="0 0 72 72" xmlns="http://www.w3.org/2000/svg"><path fill="#fcea2b" d="M5 17h62v38H5z"/><path fill="#1e50a0" d="M5 17h21v38H5z"/><path fill="#d22f27" d="M46 17h21v38H46zM42 32.154V44a2.006 2.006 0 01-2 2h-8a2.006 2.006 0 01-2-2V32.154"/><path fill="#f1b31c" d="M36 32.154h6v6.154h-6zM30 38.308h6V46h-6z"/><ellipse cx="36" cy="38.308" rx="2.25" ry="2.308" fill="#6a462f"/><g fill="none" stroke="#6a462f" stroke-linecap="round" stroke-linejoin="round" stroke-width="2"><path d="M30 27.538A12.596 12.596 0 0136 26M42 27.538A12.596 12.596 0 0036 26M30 32.154h12M42 32.154V44a2.006 2.006 0 01-2 2h-8a2.006 2.006 0 01-2-2V32.154"/></g><g><path fill="none" stroke="#000" stroke-linecap="round" stroke-linejoin="round" stroke-width="2" d="M5 17h62v38H5z"/></g></svg>