<svg viewBox="0 0 72 72" xmlns="http://www.w3.org/2000/svg"><path fill="#d22f27" d="M5 17h62v38H5z"/><path d="M5 17h21v38H5z"/><path fill="#5c9e31" d="M46 17h21v38H46z"/><path fill="#fff" d="M36 48.88a12.89 12.89 0 01-9.111-22 .845.845 0 011.195 1.195 11.2 11.2 0 1015.83 0 .845.845 0 111.195-1.195 12.89 12.89 0 01-9.111 22z"/><path fill="#fff" d="M39.38 34.52h-6.76a.845.875 0 010-1.75h6.76a.845.875 0 010 1.75z"/><circle cx="36" cy="30.3" r="1.69" fill="#fff"/><path fill="#fff" d="M41.07 44.76H30.93a.845.875 0 010-1.75h10.14a.845.875 0 010 1.75z"/><path stroke="#fff" stroke-linecap="round" stroke-linejoin="round" stroke-width="1.775" d="M32.58 28.68v15.07"/><path stroke="#fff" stroke-linecap="round" stroke-linejoin="round" stroke-width="1.766" d="M39.4 28.67v14.91"/><path fill="#fff" fill-rule="evenodd" stroke="#fff" stroke-linecap="round" stroke-linejoin="round" stroke-width=".771" d="M27.461 37.656l2.08-3.604 1.393.804-2.081 3.603zM42.464 34.05l2.08 3.603-1.391.804-2.08-3.604z"/><g><path fill="none" stroke="#000" stroke-linecap="round" stroke-linejoin="round" stroke-width="2" d="M5 17h62v38H5z"/></g></svg>