<svg viewBox="0 0 72 72" xmlns="http://www.w3.org/2000/svg"><path fill="#fff" d="M5 17h62v38H5z"/><path d="M5 17h62v13H5z"/><path fill="#f1b31c" stroke="#f1b31c" stroke-linecap="round" stroke-linejoin="round" stroke-width="2" d="M35.61 28.038L36 20l.39 8.038 3.437-7.277-2.716 7.576 5.96-5.408-5.408 5.96 7.576-2.716-7.277 3.437L46 30l-8.038.39 7.277 3.437-7.576-2.716 5.408 5.96-5.96-5.408 2.716 7.576-3.437-7.277L36 40l-.39-8.038-3.437 7.277 2.716-7.576-5.96 5.408 5.408-5.96-7.576 2.716 7.277-3.437L26 30l8.038-.39-7.277-3.437 7.576 2.716-5.408-5.96 5.96 5.408-2.716-7.576 3.437 7.277z"/><path fill="#1e50a0" d="M5 30h62v12H5z"/><g fill="#d22f27"><path d="M5 55h31L5 17v38zM36 55h31V17L36 55z"/></g><g><path fill="none" stroke="#000" stroke-linecap="round" stroke-linejoin="round" stroke-width="2" d="M5 17h62v38H5z"/></g></svg>