<svg viewBox="0 0 72 72" xmlns="http://www.w3.org/2000/svg"><path fill="#1e50a0" d="M5 17h62v38H5z"/><path fill="#fff" d="M5 17h62v38H5z"/><path fill="#61b2e4" d="M5 42h62v13H5zM5 17h62v13H5z"/><path fill="#f1b31c" stroke="#f1b31c" stroke-linecap="round" stroke-linejoin="round" d="M36 33.897L37.236 32l-.06 2.299 2.06-.771-1.334 1.822L40 36l-2.098.65 1.334 1.822-2.06-.771.06 2.299L36 38.103 34.764 40l.06-2.299-2.06.771 1.334-1.822L32 36l2.098-.65-1.334-1.822 2.06.771-.06-2.299L36 33.897z"/><g><path fill="none" stroke="#000" stroke-linecap="round" stroke-linejoin="round" stroke-width="2" d="M5 17h62v38H5z"/></g></svg>