<svg viewBox="0 0 72 72" xmlns="http://www.w3.org/2000/svg"><path fill="#fff" d="M5 17h62v38H5z"/><g fill="#1e50a0" stroke="#d22f27" stroke-linecap="round" stroke-linejoin="round" stroke-width="2"><path d="M5 17v19l62-19H5zM5 36v19h62L5 36z"/></g><path fill="#a57939" d="M46.023 38.883s-2.105-4.717 5.49-4.298c0 0 1.693-7.056 12.222-9.397 0 0 1.02 9.812-8.875 13.31a4.145 4.145 0 003.385 3.913c.451.104 1.128-.105 1.278 0 .828.768-5.245 1.895-6.523 1.51v-2.715s-2.351.052-3.592-3.092c-.038 0-.865-1.572-3.385.769z"/><path fill="#6a462f" d="M52.094 33.961s-1.16-8.808 1.812-9.961c0 0 2.85 2 2.85 4z"/><path fill="#fff" d="M50.283 39.395s-1.805-2.862-3.622-.906c0 0-2.626-4.664 5.094-4.489z"/><path d="M54.476 44.715a2.849 2.849 0 01-1.982-.55.75.75 0 01-.14-.867 2.773 2.773 0 00.05-1.273c-.962-.127-2.623-.771-3.589-3.548a.324.324 0 00-.197-.092c-.142-.02-.684.012-1.735 1.062a.76.76 0 01-.698.201.752.752 0 01-.54-.483 4.67 4.67 0 01.172-3.452 3.31 3.31 0 012.336-1.583 11.258 11.258 0 012.39-.262c.129-.002.28-.004.376-.012.032-.123.1-.44.178-.926a19.422 19.422 0 00.17-2.373c.094-2.597.21-5.83 2.221-7.18a.75.75 0 01.517-.12 2.687 2.687 0 012.462 2.554.75.75 0 01-1.5 0 1.093 1.093 0 00-.878-1c-1.153 1.074-1.246 3.681-1.322 5.8a20.2 20.2 0 01-.192 2.568 2.912 2.912 0 01-.713 1.879 2.037 2.037 0 01-1.295.31 9.785 9.785 0 00-2.101.23 1.861 1.861 0 00-1.338.847 2.175 2.175 0 00-.244 1.046 2.794 2.794 0 011.985-.585 1.8 1.8 0 011.295.902.747.747 0 01.043.102c.953 2.828 2.636 2.653 2.709 2.641a.77.77 0 01.837.564 5.57 5.57 0 01.15 2.098 11.092 11.092 0 003.325-.405 4.047 4.047 0 01-3.378-4.351.75.75 0 01.379-.578 24.484 24.484 0 003.328-2.217 6.399 6.399 0 00-.515-1.955.75.75 0 011.397-.549c.81 2.062.61 2.935.53 3.153a.75.75 0 01-.227.32 25.057 25.057 0 01-3.392 2.336 2.662 2.662 0 00.596 1.503 3.345 3.345 0 002.433.983c.572.034 1.634.097 1.816.903.074.328.005.807-.746 1.22a13.025 13.025 0 01-4.973 1.14z"/><path d="M51.757 35.75a.76.76 0 01-.105-.007.75.75 0 01-.64-.847c.415-2.973 5.1-6.734 5.633-7.153.204-.15 4.55-3.305 7.521-3.305a.749.749 0 01.736.604 11.043 11.043 0 01-2.822 9.025.75.75 0 01-1.222-.156 12.405 12.405 0 00-1.47-2.219.75.75 0 111.084-1.037 9.924 9.924 0 011.16 1.59A9.634 9.634 0 0063.507 26a18.133 18.133 0 00-5.953 2.936c-1.296 1.02-4.774 4.151-5.054 6.166a.751.751 0 01-.742.647zM50.684 43.958a.757.757 0 01-.203-.028 4.37 4.37 0 00-1.376-.195.75.75 0 01-.974-1.135 2.271 2.271 0 011.944-.3l.183-1.102a.75.75 0 011.48.248l-.314 1.886a.751.751 0 01-.74.626zm-1.613-.215zm.12-.082l-.001.001z"/><g><path fill="#fff" d="M42.755 42l12 5"/><path d="M54.755 47.75a.749.749 0 01-.288-.058l-12-5a.75.75 0 11.577-1.384l12 5a.75.75 0 01-.288 1.442z"/></g><g><path fill="none" stroke="#000" stroke-linecap="round" stroke-linejoin="round" stroke-width="2" d="M5 17h62v38H5z"/></g></svg>