<svg viewBox="0 0 72 72" xmlns="http://www.w3.org/2000/svg"><path fill="#d22f27" d="M5 17h62v38H5z"/><path fill="#5c9e31" d="M5 42h62v13H5z"/><path fill="#61b2e4" d="M5 17h62v13H5z"/><path fill="#fff" stroke="#fff" stroke-linecap="round" stroke-linejoin="round" d="M38.436 34.61l.586-1.61.562 1.618 1.553-.724-.747 1.542 1.61.586-1.618.562.724 1.553-1.542-.747-.586 1.61-.562-1.618-1.553.724.747-1.542-1.61-.586 1.618-.562-.724-1.553 1.542.747zM30.53 36a4.053 4.053 0 013.38-3.924 4.396 4.396 0 00-.812-.076 4.004 4.004 0 100 8 4.396 4.396 0 00.811-.076A4.053 4.053 0 0130.531 36z"/><g><path fill="none" stroke="#000" stroke-linecap="round" stroke-linejoin="round" stroke-width="2" d="M5 17h62v38H5z"/></g></svg>