<svg viewBox="0 0 72 72" xmlns="http://www.w3.org/2000/svg"><path fill="#f1b31c" d="M5 17h62v38H5z"/><path fill="#1e50a0" d="M5 17h21v38H5zM46 17h21v38H46z"/><g stroke="#000" stroke-linecap="round" stroke-linejoin="round"><path d="M33.415 29.501L36 26.712l2.585 2.789-.642.595-1.504-1.629v16.821h-.878V28.467l-1.504 1.629-.642-.595zM41.5 39.212h-.797V31.9l-1.018 1.103-.435-.403 2.25-2.388v9zM30.5 30.212l2.25 2.388-.435.403-1.018-1.103v7.312H30.5v-9z"/><path d="M41.5 39.297h-11v-.594h11v.594z"/></g><g><path fill="none" stroke="#000" stroke-linecap="round" stroke-linejoin="round" stroke-width="2" d="M5 17h62v38H5z"/></g></svg>