<svg viewBox="0 0 72 72" xmlns="http://www.w3.org/2000/svg"><path fill="#fff" d="M5 17h62v38H5z"/><path fill="#fcea2b" stroke="#fcea2b" stroke-linecap="round" stroke-linejoin="round" d="M43.5 25.91l1-3h-17l1 3h15z"/><path fill="#1e50a0" stroke="#1e50a0" stroke-linecap="round" stroke-linejoin="round" d="M36 45.91s7.5-2.5 7.5-10v-10h-15v10c0 7.5 7.5 10 7.5 10z"/><path fill="#d22f27" stroke="#d22f27" stroke-miterlimit="10" d="M28.5 32.41v3.5a10.184 10.184 0 00.306 2.5h14.388a10.184 10.184 0 00.306-2.5v-3.5z"/><g fill="#fcea2b" stroke="#fcea2b" stroke-linecap="round" stroke-linejoin="round"><path d="M36 30.16v-2.5M35.375 28.494h1.25M40.5 30.16v-2.5M39.875 28.494h1.25"/><g><path d="M31.5 30.16v-2.5M30.875 28.494h1.25"/></g></g><g fill="#fff" stroke="#fff" stroke-linecap="round" stroke-linejoin="round"><path d="M36 36.66v-2.5M37.25 35.41h-2.5"/></g><circle cx="36" cy="43.91" r="1" fill="#fcea2b"/><circle cx="33" cy="40.91" r="1" fill="#fcea2b"/><circle cx="39" cy="40.91" r="1" fill="#fcea2b"/><path fill="none" stroke="#a57939" stroke-linecap="round" stroke-linejoin="round" stroke-width="2" d="M47 46.27a23.092 23.092 0 01-11 2.82M25 46.27a23.093 23.093 0 0011 2.82"/><g><path fill="none" stroke="#000" stroke-linecap="round" stroke-linejoin="round" stroke-width="2" d="M5 17h62v38H5z"/></g></svg>