<svg viewBox="0 0 72 72" xmlns="http://www.w3.org/2000/svg"><path fill="#d22f27" d="M5 17h62v38H5z"/><path fill="#1e50a0" d="M5 17h31v19H5z"/><path fill="#fff" d="M9.887 18H6v2.332L32.113 36H36v-2.332L9.887 18z"/><path fill="#fff" d="M36 20.332V18h-3.887L6 33.668V36h3.887L36 20.332z"/><path fill="#fff" d="M6 24h30v6H6z"/><path fill="#fff" d="M18 18h6v18h-6z"/><path fill="#d22f27" d="M20 18h2v18h-2z"/><path fill="#d22f27" d="M6 26h30v2H6zM36 33.668L29.887 30H26l10 6v-2.332zM36 18h-3.887L24 22.868V24h2.001L36 18.001V18zM6 20.332L12.113 24h3.888l-10-6-.001.001v2.331zM6 36h3.887L18 31.132V30h-2L6 35.999V36z"/><path fill="#fff" d="M44 29h20v17H44z"/><path fill="#5c9e31" d="M43.913 45v.493a3.807 3.807 0 00.124 1.225 3.858 3.858 0 00.269.656 4.561 4.561 0 00.353.56 4.066 4.066 0 00.4.456 5.244 5.244 0 00.56.49c.217.16.43.325.659.466.2.124.403.24.606.358.25.145.514.26.768.393.288.15.592.257.888.388.162.072.328.135.495.193.112.039.222.088.335.118.187.05.364.134.553.178.164.037.319.109.482.15.112.028.22.07.33.103.115.033.229.068.345.09.13.026.258.062.384.097s.254.074.38.097c.196.036.384.1.58.134.187.033.375.077.562.12.078.017.158.02.233.038a4.946 4.946 0 00.643.115.305.305 0 00.217 0 1.402 1.402 0 00.153-.012c.186-.035.37-.08.557-.106.098-.013.194-.037.29-.056.165-.033.33-.074.496-.111.07-.017.143-.024.212-.046.147-.046.298-.071.447-.108.128-.033.26-.055.385-.095.173-.056.35-.094.523-.144a3.412 3.412 0 00.334-.095 4.127 4.127 0 01.437-.138c.187-.052.368-.123.553-.178.24-.071.473-.172.708-.263.188-.073.377-.142.56-.227q.272-.126.546-.245c.24-.103.47-.225.701-.344a4.637 4.637 0 00.45-.259c.212-.141.295-.416.454-.62.183-.235.395-.446.578-.682a5.303 5.303 0 00.368-.552c.169-.285.324-.577.478-.87l.201-.38.37-.696a1.262 1.262 0 00.118-.691z"/><circle cx="56.25" cy="31.75" r="1" fill="#d22f27"/><circle cx="51.75" cy="31.75" r="1" fill="#d22f27"/><rect x="51" y="31" rx="2.5" ry="2.5" width="6" height="8" fill="#d22f27"/><rect x="58" y="40" rx="1" ry="1" width="4" height="2" fill="#d22f27"/><rect x="56" y="46" rx="1" ry="1" width="4" height="2" transform="rotate(45 58 47)" fill="#d22f27"/><rect x="48" y="46" rx="1" ry="1" width="4" height="2" transform="rotate(135 50 47)" fill="#d22f27"/><rect x="46" y="40" rx="1" ry="1" width="4" height="2" fill="#d22f27"/><path fill="#92d3f5" d="M60 36c-2.571 2.364-6 0-6 0s-3.429 2.364-6 0v2.364a2.076 2.076 0 010 2.363S48.857 49 54 49s6-8.273 6-8.273a2.076 2.076 0 010-2.363z"/><path fill="none" stroke="#000" stroke-miterlimit="10" d="M53.75 28.5H43.5v15.04s0 7.52 10.25 8.46C64 51.06 64 43.54 64 43.54V28.5z"/><g><path fill="none" stroke="#000" stroke-linecap="round" stroke-linejoin="round" stroke-width="2" d="M5 17h62v38H5z"/></g></svg>