<svg viewBox="0 0 72 72" xmlns="http://www.w3.org/2000/svg"><path fill="#1e50a0" d="M5.083 17h62v38h-62z"/><path fill="#d22f27" d="M5.083 49h62v6h-62zM5 17h62v6H5z"/><circle cx="36.083" cy="36" r="9" fill="#fff"/><circle cx="36.083" cy="36" r="7.5" fill="#fff" stroke="#5c9e31" stroke-miterlimit="10"/><path fill="#fcea2b" d="M38.583 38.5h-2.5V33h3l-.5 5.5z"/><path fill="#61b2e4" stroke="#61b2e4" stroke-linecap="round" stroke-linejoin="round" d="M36.083 41a4.945 4.945 0 002.588-2.23L36 36.1l-2.558 2.558A4.908 4.908 0 0036.083 41z"/><path fill="none" stroke="#000" stroke-linecap="round" stroke-linejoin="round" d="M36.083 41s3-1 3-4v-4h-6v4c0 3 3 4 3 4z"/><g><path fill="none" stroke="#000" stroke-linecap="round" stroke-linejoin="round" stroke-width="2" d="M5.083 17h62v38h-62z"/></g></svg>