<svg viewBox="0 0 72 72" xmlns="http://www.w3.org/2000/svg"><path fill="#5c9e31" d="M5 17h62v38H5z"/><path fill="#fcea2b" stroke="#fcea2b" stroke-linecap="round" stroke-linejoin="round" d="M52.233 39.354l.927-3 .927 3L51.66 37.5h3l-2.427 1.854zM42.5 35.831l-1.113 1.054.111-1.549L40 35.101l1.25-.878-.755-1.347 1.449.455.556-1.446.556 1.446 1.449-.455-.755 1.347 1.25.878-1.498.235.111 1.549-1.113-1.054zM57.5 32.831l-1.113 1.054.111-1.549L55 32.101l1.25-.878-.755-1.347 1.449.455.556-1.446.556 1.446 1.449-.455-.755 1.347 1.25.878-1.498.235.111 1.549-1.113-1.054zM49.5 26.831l-1.113 1.054.111-1.549L47 26.101l1.25-.878-.755-1.347 1.449.455.556-1.446.556 1.446 1.449-.455-.755 1.347 1.25.878-1.498.235.111 1.549-1.113-1.054zM49.5 47.831l-1.113 1.054.111-1.549L47 47.101l1.25-.878-.755-1.347 1.449.455.556-1.446.556 1.446 1.449-.455-.755 1.347 1.25.878-1.498.235.111 1.549-1.113-1.054z"/><circle cx="13" cy="25" r="4" fill="#fcea2b"/><path fill="#fcea2b" stroke="#fcea2b" stroke-linecap="round" stroke-linejoin="round" d="M32.98 42.596A6.596 6.596 0 1136 30.13a8.395 8.395 0 100 11.74 6.652 6.652 0 01-3.02.726z"/><g><path fill="none" stroke="#000" stroke-linecap="round" stroke-linejoin="round" stroke-width="2" d="M5 17h62v38H5z"/></g></svg>