<svg viewBox="0 0 72 72" xmlns="http://www.w3.org/2000/svg"><path fill="#1e50a0" d="M5 17h62v38H5z"/><path fill="#5c9e31" d="M67 17v38L5 17h62z"/><circle cx="36" cy="36" r="9" fill="#f1b31c"/><path fill="#fff" stroke="#fff" stroke-linecap="round" stroke-linejoin="round" d="M18.174 44.737l.696-2.25.695 2.25-1.82-1.391h2.25l-1.821 1.391zM10.875 42.094l-.834.791.082-1.162L9 41.547l.938-.658-.567-1.011 1.087.341.417-1.084.417 1.084 1.087-.341-.566 1.011.937.658-1.123.176.082 1.162-.834-.791zM22.125 39.844l-.834.791.082-1.162-1.123-.176.938-.658-.567-1.011 1.087.341.417-1.084.417 1.084 1.087-.341-.566 1.011.937.658-1.123.176.082 1.162-.834-.791zM16.125 35.344l-.834.791.082-1.162-1.123-.176.938-.658-.567-1.011 1.087.341.417-1.084.417 1.084 1.087-.341-.566 1.011.937.658-1.123.176.082 1.162-.834-.791zM16.125 51.094l-.834.791.082-1.162-1.123-.176.938-.658-.567-1.011 1.087.341.417-1.084.417 1.084 1.087-.341-.566 1.011.937.658-1.123.176.082 1.162-.834-.791z"/><path fill="#5c9e31" stroke="#5c9e31" stroke-linecap="round" stroke-linejoin="round" d="M31.617 33.958a3.922 3.922 0 011.363.618 3.784 3.784 0 004.136.162 7.39 7.39 0 001.383-1.221l1.365-1.425a1.767 1.767 0 001.256.094 5.833 5.833 0 00.604 3.016 7.21 7.21 0 00-2.503 2.733 10.176 10.176 0 00-.47 2.74 2.396 2.396 0 01-.292 1.017.938.938 0 01-.891.47c-.622-.1-.805-.918-.718-1.543s.283-1.324-.082-1.838a2.008 2.008 0 00-1.254-.634l-2.757-.635c-.644-.149-1.461-.235-1.832.312a.55.55 0 01-.178.209c-.248.124-.422-.292-.335-.556a4.248 4.248 0 011.054-1.315c.375-.425.627-1.102.26-1.535-.462-.543-.387-.7-.11-.67z"/><path fill="none" stroke="#f1b31c" stroke-linecap="round" stroke-linejoin="round" stroke-width="2" d="M49.435 30.296l13-4M54.5 24.5l4 3M58.5 21.5l1.35 2.625L58.5 27.5"/><g><path fill="none" stroke="#000" stroke-linecap="round" stroke-linejoin="round" stroke-width="2" d="M5 17h62v38H5z"/></g></svg>