<svg viewBox="0 0 72 72" xmlns="http://www.w3.org/2000/svg"><path fill="#fff" d="M5 17h62v38H5z"/><path fill="#e27022" stroke="#e27022" stroke-linecap="round" stroke-linejoin="round" d="M53.396 25.887a22.457 22.457 0 00-3.912 1.778 1.233 1.233 0 01-1.08.236 8.446 8.446 0 01-2.772 1.677c-.515.188-1.046.325-1.576.462l-1.644.425a15.69 15.69 0 01-2.54.509 15.695 15.695 0 01-2.77-.084l-1.981-.177a4.545 4.545 0 01-2.461-.71 4.95 4.95 0 01.162 2.353c-.118.67-.512 1.423-1.19 1.469a2.816 2.816 0 01-1.23-.425 2.666 2.666 0 00-2.294.106c-.468.448-.66 1.147-1.181 1.533-.637.471-1.133.115-1.74-.107-.937-.345-.483.42-.222 1.052a2.634 2.634 0 01.153 1.492 2.132 2.132 0 011.105 1.922 26.058 26.058 0 002.93 1.315 2.63 2.63 0 00.988.225c.516-.015.996-.317 1.512-.308a1.328 1.328 0 011.236 1.465 3.494 3.494 0 011.24-.028c-.546-.35-.327-1.27.22-1.62a3.888 3.888 0 011.887-.365 8.051 8.051 0 003.78-1.229 1.476 1.476 0 011.16-.363c.55-.34.299-1.22.63-1.775.387-.648 1.366-.569 2.039-.228a1.159 1.159 0 00.58.189 1.322 1.322 0 00.519-.22 2.29 2.29 0 012.339.11 12.348 12.348 0 00-2.371-2.976 3.52 3.52 0 01.156-1.458 1.201 1.201 0 011.123-.804 1.571 1.571 0 00.377.029c.286-.046.434-.355.585-.603.834-1.375 2.81-1.587 3.86-2.807a4.645 4.645 0 01.533-.608 4.944 4.944 0 011.128-.526 1.067 1.067 0 00.722-.926z"/><g fill="none" stroke="#5c9e31" stroke-linecap="round" stroke-linejoin="round" stroke-width="2"><path d="M23.5 42a18.034 18.034 0 0011 4M48.5 42a18.034 18.034 0 01-11 4"/></g><g><path fill="none" stroke="#000" stroke-linecap="round" stroke-linejoin="round" stroke-width="2" d="M5 17h62v38H5z"/></g></svg>