<svg viewBox="0 0 72 72" xmlns="http://www.w3.org/2000/svg"><path fill="#186648" d="M5 17h62v38H5z"/><path fill="#fff" d="M38 17h4v38h-4z"/><path d="M5 34h62v4H5z"/><path fill="#fff" d="M5 38h62v4H5z"/><path fill="#fcea2b" d="M5 30h62v4H5z"/><path d="M34 17h4v38h-4z"/><path fill="#fcea2b" d="M30 17h4v38h-4z"/><circle cx="36" cy="36" r="13" fill="#d22f27"/><path d="M36.367 34.956a5.1 5.1 0 002.914 3.504.257.257 0 00.353-.109.183.183 0 00-.086-.293 4.81 4.81 0 01-2.693-3.141.226.226 0 00-.24-.166.232.232 0 00-.248.205z"/><path fill="#8967aa" d="M38.768 36.93l-.04-.079c-.35-.7-.901-1.247-1.28-1.921-.368-.657.524-1.402 1.153-1.767.735-.426.54-1.883.186-2.432l-1.542-1.936s-.81-1.158-3.568.202c0 0-3.54.856-3.846 1.537 0 0 2.683-.733 2.954.521.271 1.254-1.404 1.7.242 4.69 0 0 1.39 2.969 3.115 3.447a6.2 6.2 0 012.542.423c-.222-.588.171-2.063.084-2.684z"/><path d="M36.546 40.353a.769.769 0 01-.072-.016c-1.88-.522-3.872-3.836-4.093-4.212-1.157-2.193-.677-3.058-.089-3.758.19-.227.19-.235.171-.325-.071-.308-1.465-.825-2.947-.972a.764.764 0 01-.575-.37.747.747 0 01-.035-.683c.126-.281.458-1.022 5.183-1.91a3.116 3.116 0 013.035-.715c1.632.63 2.057 2.905 2.1 3.162a.75.75 0 01-1.479.25c-.075-.436-.45-1.74-1.163-2.014-.521-.203-1.221.221-1.714.611a.746.746 0 01-.329.149 36.39 36.39 0 00-2.462.545 2.579 2.579 0 011.86 1.66 1.759 1.759 0 01-.497 1.577c-.276.328-.514.612.25 2.064.754 1.279 2.258 3.239 3.186 3.496a.75.75 0 01-.33 1.462zm-6.36-9.593z"/><path fill="#186648" d="M36.064 37.755c-.301-2.45 1.415-5.909 3.021-4.277 1.606 1.632.737 11.198.737 11.198s-3.456-4.47-3.758-6.921z"/><path d="M39.892 45.389a.75.75 0 01-.447-.26c-.382-.462-3.746-4.586-4.15-7.154-.301-1.922.464-4.65 1.94-5.425a1.825 1.825 0 012.194.389c1.82 1.729 1.437 10.094 1.343 11.754a.75.75 0 01-.88.696zm-3.116-7.648c.2 1.264 1.484 3.287 2.578 4.804.08-3.89-.221-7.819-.958-8.52-.264-.25-.378-.19-.463-.147-.695.365-1.395 2.342-1.156 3.863z"/><circle cx="36" cy="25" r="1" fill="#186648"/><circle cx="50.285" cy="-3.036" r="1" transform="rotate(36)" fill="#186648"/><circle cx="45.363" cy="-34.113" r="1" transform="rotate(72)" fill="#186648"/><circle cx="23.113" cy="-56.363" r="1" transform="rotate(108)" fill="#186648"/><circle cx="-7.964" cy="-61.285" r="1" transform="rotate(144)" fill="#186648"/><circle cx="-36" cy="-47" r="1" transform="scale(-1)" fill="#186648"/><circle cx="-50.285" cy="-18.964" r="1" transform="rotate(-144)" fill="#186648"/><circle cx="-45.363" cy="12.113" r="1" transform="rotate(-108)" fill="#186648"/><circle cx="-23.113" cy="34.363" r="1" transform="rotate(-72)" fill="#186648"/><circle cx="7.964" cy="39.285" r="1" transform="rotate(-36)" fill="#186648"/><g><path fill="none" stroke="#000" stroke-linecap="round" stroke-linejoin="round" stroke-width="2" d="M5 17h62v38H5z"/></g></svg>