<svg viewBox="0 0 72 72" xmlns="http://www.w3.org/2000/svg"><path fill="#fcea2b" d="M5 17h62v38H5z"/><path fill="#d22f27" d="M5 45h62v10H5z"/><path fill="#1e50a0" d="M5 36h62v9H5z"/><ellipse cx="36" cy="36" rx="4.5" ry="6" fill="#92d3f5"/><path fill="#5c9e31" d="M40.5 36c0 3.314-2.015 6-4.5 6s-4.5-2.686-4.5-6z"/><path fill="none" stroke="#d22f27" stroke-miterlimit="10" stroke-width="2" d="M36 46v-4"/><path fill="none" stroke="#f1b31c" stroke-linecap="round" stroke-linejoin="round" stroke-width="2" d="M42.065 42a10.928 10.928 0 002.435-7v-5H46M26 30h1.5v5a10.928 10.928 0 002.435 7"/><path fill="none" stroke="#6a462f" stroke-linecap="round" stroke-linejoin="round" stroke-width="2" d="M29 26c3.5-1 5.25 0 7 3 1.75-3 3.5-4 7-3"/><ellipse cx="36" cy="36" rx="4.5" ry="6" fill="none" stroke="#d22f27" stroke-miterlimit="10" stroke-width="2"/><g><path fill="none" stroke="#000" stroke-linecap="round" stroke-linejoin="round" stroke-width="2" d="M5 17h62v38H5z"/></g></svg>