<svg viewBox="0 0 72 72" xmlns="http://www.w3.org/2000/svg"><path fill="#5c9e31" d="M5 17h62v38H5z"/><path fill="#fff" d="M5 30h62v12H5z"/><path d="M5 17h62v13H5z"/><path fill="#d22f27" d="M26 36L5 55V17l21 19z"/><path fill="#d22f27" stroke="#d22f27" stroke-linecap="round" stroke-linejoin="round" d="M35.122 36a4.053 4.053 0 013.378-3.924 4.396 4.396 0 00-.81-.076 4.004 4.004 0 100 8 4.396 4.396 0 00.81-.076A4.053 4.053 0 0135.122 36z"/><path fill="#d22f27" stroke="#d22f27" stroke-linecap="round" stroke-linejoin="round" d="M38.707 38l1.328-4 1.145 3.939L38 35.565l4-.098L38.707 38z"/><g><path fill="none" stroke="#000" stroke-linecap="round" stroke-linejoin="round" stroke-width="2" d="M5 17h62v38H5z"/></g></svg>