<svg viewBox="0 0 72 72" xmlns="http://www.w3.org/2000/svg"><path fill="#f1b31c" d="M5 17h62v38H5z"/><path fill="#d22f27" d="M23 33v7a2.006 2.006 0 01-2 2h-4a2.006 2.006 0 01-2-2v-7M5 17h62v9H5zM5 46h62v9H5z"/><path fill="#f1b31c" d="M19 33h4v4h-4z"/><circle cx="19" cy="37" r="1.5" fill="#6a462f"/><g fill="none" stroke="#6a462f" stroke-linecap="round" stroke-linejoin="round" stroke-width="2"><path d="M27 33v9M11 33v9M15 30a8.568 8.568 0 014-1M23 30a8.568 8.568 0 00-4-1M15 33h8M23 33v7a2.006 2.006 0 01-2 2h-4a2.006 2.006 0 01-2-2v-7M10 42h2M26 42h2"/></g><g><path fill="none" stroke="#000" stroke-linecap="round" stroke-linejoin="round" stroke-width="2" d="M5 17h62v38H5z"/></g></svg>