<svg viewBox="0 0 72 72" xmlns="http://www.w3.org/2000/svg"><path fill="#1e50a0" d="M5 17h62v38H5z"/><path fill="#fff" d="M40 28.856V32h10.181L67 21.691V17h-7.654L40 28.856z"/><path fill="#d22f27" d="M67 17h-3.827L40 31.203V32h3.482L67 17.586V17z"/><path fill="#fff" d="M59.347 55H67v-4.692L50.182 40H40v3.143L59.347 55z"/><path fill="#d22f27" d="M67 55v-2.347L46.355 40h-4.787l24.474 15H67z"/><path fill="#fff" d="M32 43.144V40H21.819L5 50.309V55h7.654L32 43.144z"/><path fill="#d22f27" d="M5 55h3.827L32 40.797V40h-3.482L5 54.414V55z"/><path fill="#fff" d="M12.653 17H5v4.692L21.818 32H32v-3.143L12.653 17z"/><path fill="#d22f27" d="M5 17v2.347L25.646 32h4.786L5.958 17H5z"/><path fill="#fff" d="M5 31h62v10H5z"/><path fill="#fff" d="M31 17h10v38H31z"/><path fill="#d22f27" d="M5 33h62v6H5z"/><path fill="#d22f27" d="M33 17h6v38h-6z"/><g><path fill="none" stroke="#000" stroke-linecap="round" stroke-linejoin="round" stroke-width="2" d="M5 17h62v38H5z"/></g></svg>