<svg viewBox="0 0 72 72" xmlns="http://www.w3.org/2000/svg"><path fill="#fcea2b" d="M5 17h62v38H5z"/><path fill="#5c9e31" d="M12 48l24-12-24-12v24zM60 48L36 36l24-12v24z"/><circle cx="36" cy="36" r="5" fill="#d22f27"/><path fill="#fcea2b" stroke="#fcea2b" stroke-linecap="round" stroke-linejoin="round" d="M36 33.5l1.545 5-4.045-3.09h5l-4.045 3.09 1.545-5z"/><path fill="#d22f27" d="M5 17v38h62V17zm55 31H12V24h48z"/><path fill="#fcea2b" stroke="#fcea2b" stroke-linecap="round" stroke-linejoin="round" d="M35.105 22.242l.919-2.695.792 2.653-2.2-1.598 2.768-.067-2.279 1.707zM45.105 22.242l.919-2.695.792 2.653-2.2-1.598 2.768-.067-2.279 1.707zM25.105 22.242l.919-2.695.792 2.653-2.2-1.598 2.768-.067-2.279 1.707zM35.105 52.242l.919-2.695.792 2.653-2.2-1.598 2.768-.067-2.279 1.707zM45.105 52.242l.919-2.695.792 2.653-2.2-1.598 2.768-.067-2.279 1.707zM25.105 52.242l.919-2.695.792 2.653-2.2-1.598 2.768-.067-2.279 1.707z"/><g stroke-linecap="round" stroke-linejoin="round"><path fill="#fcea2b" stroke="#fcea2b" d="M18.63 37.917a6.781 6.781 0 00-1.257-2.622 6.781 6.781 0 002.621 1.258 1.767 1.767 0 00-1.561-2.125l-.075-.003.002-.002H18.213a5.774 5.774 0 01-2.09-.377 5.776 5.776 0 01.377 2.097v.139l.002-.002a1.763 1.763 0 002.128 1.637z"/><path fill="#d22f27" stroke="#d22f27" d="M18.801 36.277a1.77 1.77 0 01.447.893 1.578 1.578 0 01-1.34-1.34 1.77 1.77 0 01.893.447z"/></g><g><path fill="none" stroke="#000" stroke-linecap="round" stroke-linejoin="round" stroke-width="2" d="M5 17h62v38H5z"/></g></svg>