<svg viewBox="0 0 72 72" xmlns="http://www.w3.org/2000/svg"><path d="M5 17h62v38H5z"/><path fill="#1e50a0" d="M5 17h62v13H5z"/><path fill="#5c9e31" stroke="#5c9e31" stroke-linecap="round" stroke-linejoin="round" stroke-width="4" d="M25.284 36.063l21.433 12.374"/><path fill="#f1b31c" stroke="#f1b31c" stroke-linecap="round" stroke-linejoin="round" d="M36 37.832l1.293-2.082.398 2.418 1.991-1.428-.558 2.386 2.386-.558-1.428 1.991 2.418.398-2.082 1.293 2.082 1.293-2.418.398 1.428 1.991-2.386-.558.558 2.386-1.991-1.428-.398 2.418L36 46.668l-1.293 2.082-.398-2.418-1.991 1.428.558-2.386-2.386.558 1.428-1.991-2.418-.398 2.082-1.293-2.082-1.293 2.418-.398-1.428-1.991 2.386.558-.558-2.386 1.991 1.428.398-2.418L36 37.832z"/><g fill="#f1b31c" stroke="#f1b31c" stroke-linecap="round" stroke-linejoin="round" stroke-width="2"><path d="M36 21.25v6M37.5 25.25h-3M23 21.25v6M24.5 25.25h-3"/><g><path d="M49 21.25v6M50.5 25.25h-3"/></g></g><g><path fill="none" stroke="#000" stroke-linecap="round" stroke-linejoin="round" stroke-width="2" d="M5 17h62v38H5z"/></g></svg>