<svg viewBox="0 0 72 72" xmlns="http://www.w3.org/2000/svg"><path fill="#1e50a0" d="M5 17h62v38H5z"/><path fill="none" stroke="#9b9b9a" stroke-linecap="round" stroke-linejoin="round" stroke-width="2" d="M49 25l2-2M49 25l-2-2"/><path fill="#fff" d="M9.887 18H6v2.332L32.113 36H36v-2.332L9.887 18z"/><path fill="#fff" d="M36 20.332V18h-3.887L6 33.668V36h3.887L36 20.332z"/><path fill="#fff" d="M6 24h30v6H6z"/><path fill="#fff" d="M18 18h6v18h-6z"/><path fill="#d22f27" d="M20 18h2v18h-2z"/><path fill="#d22f27" d="M6 26h30v2H6zM36 33.668L29.887 30H26l10 6v-2.332zM36 18h-3.887L24 22.868V24h2.001L36 18.001V18zM6 20.332L12.113 24h3.888l-10-6-.001.001v2.331zM6 36h3.887L18 31.132V30h-2L6 35.999V36z"/><path fill="none" stroke="#e27022" stroke-linecap="round" stroke-linejoin="round" stroke-width="2" d="M50 26h4v1h-4zM54 27v3M50 27v3M49 25l1 1"/><path fill="none" stroke="#f1b31c" stroke-linecap="round" stroke-linejoin="round" stroke-width="2" d="M59.136 49a9.986 9.986 0 00-14.272 0"/><path fill="#5c9e31" stroke="#5c9e31" stroke-linecap="round" stroke-linejoin="round" stroke-width="2" d="M52 42l3-8h-6l3 8z"/><g><path d="M59 31v10a1.003 1.003 0 001 1h1a1.003 1.003 0 001-1v-5a2.094 2.094 0 00-.832-1.555L59 33"/><path fill="none" stroke="#000" stroke-linecap="round" stroke-linejoin="round" stroke-width="2" d="M59 31v10a1.003 1.003 0 001 1h1a1.003 1.003 0 001-1v-5a2.094 2.094 0 00-.832-1.555L59 33"/></g><g><path fill="#9b9b9a" d="M45 31v10a1.003 1.003 0 01-1 1h-1a1.003 1.003 0 01-1-1v-5a2.094 2.094 0 01.832-1.555L45 33"/><path fill="none" stroke="#9b9b9a" stroke-linecap="round" stroke-linejoin="round" stroke-width="2" d="M45 31v10a1.003 1.003 0 01-1 1h-1a1.003 1.003 0 01-1-1v-5a2.094 2.094 0 01.832-1.555L45 33"/></g><g><path fill="none" stroke="#000" stroke-linecap="round" stroke-linejoin="round" stroke-width="2" d="M5 17h62v38H5z"/></g></svg>