<svg viewBox="0 0 72 72" xmlns="http://www.w3.org/2000/svg"><path fill="#1e50a0" d="M5 17h62v38H5z"/><path fill="#92d3f5" stroke="#d22f27" stroke-linecap="round" stroke-linejoin="round" d="M36.002 46.5A11.736 11.736 0 0042 36a11.736 11.736 0 00-6-10.5A11.736 11.736 0 0030 36a11.736 11.736 0 005.998 10.5z"/><path fill="#fcea2b" d="M30.64 40a11.242 11.242 0 005.358 6.5h.004A11.242 11.242 0 0041.36 40z"/><path fill="none" stroke="#d22f27" stroke-miterlimit="10" stroke-width="2" d="M7 19h58v34H7z"/><path fill="none" stroke="#1e50a0" stroke-linecap="round" stroke-linejoin="round" stroke-width="2" d="M28 39h16"/><path fill="none" stroke="#d22f27" stroke-linecap="round" stroke-linejoin="round" stroke-width="2" d="M36.002 46.5A11.736 11.736 0 0042 36a11.736 11.736 0 00-6-10.5A11.736 11.736 0 0030 36a11.736 11.736 0 005.998 10.5z"/><g><path fill="none" stroke="#000" stroke-linecap="round" stroke-linejoin="round" stroke-width="2" d="M5 17h62v38H5z"/></g></svg>