<svg viewBox="0 0 72 72" xmlns="http://www.w3.org/2000/svg"><path fill="#d22f27" d="M5 17h62v38H5z"/><path fill="#fff" stroke="#fff" stroke-linecap="round" stroke-linejoin="round" d="M36.7 31.62c.982-.658 1.256-2.365.72-3.238-.536-.872-.379-2.135-.144-2.686-5.763 1.337-5.569 7.762-2.637 9.448-.36-2.147 1.079-2.866 2.061-3.524z"/><circle cx="35.44" cy="29.67" r=".75" fill="#d22f27" fill-rule="evenodd"/><path fill="#fff" stroke="#fff" stroke-linecap="round" stroke-linejoin="round" d="M40.47 36.18c.93.73 2.638.463 3.302-.316.664-.78 1.913-1.02 2.51-.967-3.052-5.067-9.103-2.898-9.8.412 1.931-1.006 3.059.14 3.988.871z"/><circle cx="45.65" cy="-29.26" r=".75" transform="rotate(72)" fill="#d22f27" fill-rule="evenodd"/><path fill="#fff" stroke="#fff" stroke-linecap="round" stroke-linejoin="round" d="M37.3 41.17c-.407 1.109.374 2.652 1.321 3.042.946.39 1.561 1.505 1.695 2.089 3.876-4.469-.057-9.553-3.42-9.193 1.554 1.526.811 2.953.404 4.062z"/><circle cx="-7.242" cy="-57.19" r=".75" transform="rotate(144)" fill="#d22f27" fill-rule="evenodd"/><path fill="#fff" stroke="#fff" stroke-linecap="round" stroke-linejoin="round" d="M31.57 39.7c-1.181-.045-2.406 1.176-2.485 2.196-.08 1.021-.949 1.95-1.463 2.258 5.448 2.306 9.068-3.006 7.686-6.094-.97 1.949-2.558 1.684-3.738 1.639z"/><circle cx="-50.14" cy="-15.51" r=".75" transform="rotate(216)" fill="#d22f27" fill-rule="evenodd"/><path fill="#fff" stroke="#fff" stroke-linecap="round" stroke-linejoin="round" d="M31.21 33.8c-.323-1.137-1.862-1.925-2.857-1.685s-2.147-.3-2.599-.694c-.51 5.894 5.661 7.695 8.171 5.427-2.154-.32-2.392-1.912-2.714-3.049z"/><circle cx="-23.77" cy="38.16" r=".75" transform="rotate(-72)" fill="#d22f27" fill-rule="evenodd"/><g><path fill="none" stroke="#000" stroke-linecap="round" stroke-linejoin="round" stroke-width="2" d="M5 17h62v38H5z"/></g></svg>