<svg viewBox="0 0 72 72" xmlns="http://www.w3.org/2000/svg"><path fill="#1e50a0" d="M5 17h62v38H5z"/><path fill="#d22f27" d="M5 17h62v13H5z"/><path fill="#fff" d="M5 30h62v12H5z"/><path fill="#d22f27" d="M40.5 43.792A6.71 6.71 0 0042.489 42H40.5z"/><path fill="#fff" d="M37.5 42v2.88a8.438 8.438 0 003-1.088V42z"/><path fill="#d22f27" d="M34.5 42v2.88a9.396 9.396 0 003 0V42z"/><path fill="#fff" d="M31.5 42v1.792a8.438 8.438 0 003 1.088V42z"/><path fill="#d22f27" d="M29.512 42a6.71 6.71 0 001.988 1.792V42z"/><path fill="#fff" d="M40.5 42h1.988a5.088 5.088 0 001.012-3h-3z"/><path fill="#d22f27" d="M37.5 39h3v3h-3z"/><path fill="#fff" d="M34.5 39h3v3h-3z"/><path fill="#d22f27" d="M31.5 39h3v3h-3z"/><path fill="#fff" d="M31.5 39h-3a5.088 5.088 0 001.012 3H31.5z"/><path fill="#d22f27" d="M40.5 36h3v3h-3z"/><path fill="#fff" d="M37.5 36h3v3h-3z"/><path fill="#d22f27" d="M34.5 36h3v3h-3z"/><path fill="#fff" d="M31.5 36h3v3h-3z"/><path fill="#d22f27" d="M28.5 36h3v3h-3z"/><path fill="#fff" d="M40.5 33h3v3h-3z"/><path fill="#d22f27" d="M37.5 33h3v3h-3z"/><path fill="#fff" d="M34.5 33h3v3h-3z"/><path fill="#d22f27" d="M31.5 33h3v3h-3z"/><path fill="#fff" d="M28.5 33h3v3h-3z"/><path fill="#d22f27" d="M40.5 30h3v3h-3z"/><path fill="#fff" d="M37.5 30h3v3h-3z"/><path fill="#d22f27" d="M34.5 30h3v3h-3z"/><path fill="#fff" d="M31.5 30h3v3h-3z"/><path fill="#d22f27" d="M28.5 30h3v3h-3z"/><path fill="none" stroke="#d22f27" stroke-miterlimit="10" d="M43.5 39c0 3.314-3.358 6-7.5 6s-7.5-2.686-7.5-6v-9h15z"/><g><path fill="#61b2e4" stroke="#61b2e4" stroke-linecap="round" stroke-linejoin="round" d="M30.187 24.372l1.653-1.863 2.194 1.232L36 22.178l1.966 1.563 2.194-1.232 1.653 1.863 2.374-.872 1.292 2.104L43.5 30a15.938 15.938 0 00-15 0l-1.98-4.396 1.293-2.104z"/><path fill="#1e50a0" stroke="#1e50a0" stroke-miterlimit="10" stroke-width=".25" d="M37.619 28.21l.347-4.469 2.194-1.232 1.653 1.863-1.139 4.458-3.055-.62zM34.381 28.21l-.347-4.469-2.194-1.232-1.653 1.863 1.139 4.458 3.055-.62z"/><path fill="none" stroke="#1e50a0" stroke-linecap="round" stroke-linejoin="round" d="M30.187 24.372l1.653-1.863 2.194 1.232L36 22.178l1.966 1.563 2.194-1.232 1.653 1.863 2.374-.872 1.292 2.104L43.5 30a15.938 15.938 0 00-15 0l-1.98-4.396 1.293-2.104z"/></g><g><path fill="none" stroke="#000" stroke-linecap="round" stroke-linejoin="round" stroke-width="2" d="M5 17h62v38H5z"/></g></svg>