<svg viewBox="0 0 72 72" xmlns="http://www.w3.org/2000/svg"><path fill="#d22f27" d="M5 17h62v38H5z"/><path fill="#fff" stroke="#fff" stroke-linecap="round" stroke-linejoin="round" d="M42.34 34.23l3.988-6.744 2.792-.648-2.484 1.423-3.372 7.467-6.186.353-5.546 2.496 3.527 6.996-.962 2.697.142-2.857-4.468-6.868 3.191-4.973.235-5.676-7.834.314-2.06-1.992 2.545 1.312 8.106-1.223 3.47 4.805z"/><path fill="none" stroke="#fcea2b" stroke-linecap="round" stroke-linejoin="round" stroke-width="2" d="M35.82 33.58l1.256 2.492M37.42 31.11l-1.603 2.476-2.858-.017"/><path transform="matrix(.6713 -.3266 .3266 .6706 .712 21.38)" fill="#fcea2b" stroke="#fcea2b" stroke-linecap="round" stroke-linejoin="round" stroke-width="1.34" d="M24.21 28.34l.95-3 .9 2.98-2.41-1.82 3-.03z"/><path transform="matrix(.3343 -.6675 .6671 .3338 7.886 51.12)" fill="#fcea2b" stroke="#fcea2b" stroke-linecap="round" stroke-linejoin="round" stroke-width="1.34" d="M51.06 29.32l-2.41-1.82 3-.03-2.44 1.87.95-3z"/><path transform="matrix(.4707 -.5794 .5792 .4701 -7.299 42.64)" fill="#fcea2b" stroke="#fcea2b" stroke-linecap="round" stroke-linejoin="round" stroke-width="1.34" d="M36.16 46.34l.9 2.98-2.41-1.82 3-.03-2.44 1.87z"/><g><path fill="none" stroke="#000" stroke-linecap="round" stroke-linejoin="round" stroke-width="2" d="M5 17h62v38H5z"/></g></svg>