<svg viewBox="0 0 72 72" xmlns="http://www.w3.org/2000/svg"><path fill="#5c9e31" d="M5 17h62v38H5z"/><path d="M5 17h62v13H5z"/><path fill="#d22f27" stroke="#fff" stroke-miterlimit="10" stroke-width="2" d="M5 30.5h62v11H5z"/><path fill="#fff" stroke="#fff" stroke-linecap="round" stroke-linejoin="round" d="M29.25 47.691l13.5-23.382M29.25 24.309l13.5 23.382"/><path fill="#d22f27" d="M36.231 25.057a.496.496 0 00-.462 0A12.299 12.299 0 0029.5 36a12.299 12.299 0 006.267 10.943.5.5 0 00.231.057h.004a.5.5 0 00.23-.057A12.299 12.299 0 0042.5 36a12.299 12.299 0 00-6.269-10.943z"/><path d="M41.703 31.501A6.288 6.288 0 0040 36a6.288 6.288 0 001.704 4.5 13.104 13.104 0 000-8.999zM30.296 40.499A6.288 6.288 0 0032 36a6.288 6.288 0 00-1.703-4.499 13.103 13.103 0 000 8.998z"/><path fill="#fff" stroke="#fff" stroke-linecap="round" stroke-linejoin="round" d="M36 27v18"/><g><path fill="none" stroke="#000" stroke-linecap="round" stroke-linejoin="round" stroke-width="2" d="M5 17h62v38H5z"/></g></svg>