<svg viewBox="0 0 72 72" xmlns="http://www.w3.org/2000/svg"><path fill="#d22f27" d="M5 17h62v38H5z"/><path fill="#f1b31c" stroke="#f1b31c" stroke-linecap="round" stroke-linejoin="round" d="M36 30l1.326-4.92.11 5.094 2.465-4.459-1.113 4.972 3.461-3.74-2.27 4.562 4.255-2.803-3.296 3.886 4.802-1.704-4.13 2.984 5.07-.504-4.724 1.909L47 36l-5.044.723 4.724 1.909-5.07-.504 4.13 2.984-4.802-1.704 3.296 3.886-4.255-2.803 2.27 4.562-3.461-3.74 1.113 4.972-2.465-4.459-.11 5.094L36 42l-1.326 4.92-.11-5.094-2.465 4.459 1.113-4.972-3.461 3.74 2.27-4.562-4.255 2.803 3.296-3.886-4.802 1.704 4.13-2.984-5.07.504 4.724-1.909L25 36l5.044-.723-4.724-1.909 5.07.504-4.13-2.984 4.802 1.704-3.296-3.886 4.255 2.803-2.27-4.562 3.461 3.74-1.113-4.972 2.465 4.459.11-5.094L36 30z"/><circle cx="36" cy="36" r="6" fill="none" stroke="#d22f27" stroke-linecap="round" stroke-linejoin="round"/><path fill="none" stroke="#d22f27" stroke-linecap="round" stroke-linejoin="round" d="M30.55 33.502a5.992 5.992 0 009.47 6.943 10 10 0 00-9.47-6.943z"/><path fill="none" stroke="#d22f27" stroke-linecap="round" stroke-linejoin="round" d="M41.45 33.502a5.992 5.992 0 01-9.47 6.943 10 10 0 019.47-6.943z"/><g><path fill="none" stroke="#000" stroke-linecap="round" stroke-linejoin="round" stroke-width="2" d="M5 17h62v38H5z"/></g></svg>