<svg viewBox="0 0 72 72" xmlns="http://www.w3.org/2000/svg"><path fill="#d22f27" d="M5 17h62v38H5z"/><path fill="#f1b31c" stroke="#f1b31c" stroke-linecap="round" stroke-linejoin="round" d="M36 36l1.326-4.92.11 5.094 2.465-4.459-1.113 4.972 3.461-3.74-2.27 4.562 4.255-2.803-3.296 3.886 4.802-1.704-4.13 2.984 5.07-.504-4.724 1.909L47 42l-5.044.723 4.724 1.909-5.07-.504 4.13 2.984-4.802-1.704 3.296 3.886-4.255-2.803 2.27 4.562-3.461-3.74 1.113 4.972-2.465-4.459-.11 5.094L36 48l-1.326 4.92-.11-5.094-2.465 4.459 1.113-4.972-3.461 3.74 2.27-4.562-4.255 2.803 3.296-3.886-4.802 1.704 4.13-2.984-5.07.504 4.724-1.909L25 42l5.044-.723-4.724-1.909 5.07.504-4.13-2.984 4.802 1.704-3.296-3.886 4.255 2.803-2.27-4.562 3.461 3.74-1.113-4.972 2.465 4.459.11-5.094L36 36z"/><path fill="#fff" d="M67 44a42.589 42.589 0 01-6.2 1c-1.57-.05-4.63-1.05-6.2-1s-4.63 1.05-6.2 1-4.63-1.05-6.2-1-4.63 1.05-6.2 1-4.63-1.05-6.2-1-4.63 1.048-6.2 1-4.63-1.042-6.2-1-4.63 1-6.2 1A50.836 50.836 0 015 44v-2a50.836 50.836 0 006.2 1c1.57 0 4.63-.959 6.2-1s4.63.952 6.2 1 4.63-.95 6.2-1 4.63.95 6.2 1 4.63-.95 6.2-1 4.63.95 6.2 1 4.63-.95 6.2-1 4.63.95 6.2 1a42.589 42.589 0 006.2-1z"/><path fill="#1e50a0" d="M67 46a42.589 42.589 0 01-6.2 1c-1.57-.05-4.63-1.05-6.2-1s-4.63 1.05-6.2 1-4.63-1.05-6.2-1-4.63 1.05-6.2 1-4.63-1.05-6.2-1-4.63 1.048-6.2 1-4.63-1.042-6.2-1-4.63 1-6.2 1A50.836 50.836 0 015 46v-2a50.836 50.836 0 006.2 1c1.57 0 4.63-.959 6.2-1s4.63.952 6.2 1 4.63-.95 6.2-1 4.63.95 6.2 1 4.63-.95 6.2-1 4.63.95 6.2 1 4.63-.95 6.2-1 4.63.95 6.2 1a42.589 42.589 0 006.2-1z"/><path fill="#fff" d="M67 48a42.589 42.589 0 01-6.2 1c-1.57-.05-4.63-1.05-6.2-1s-4.63 1.05-6.2 1-4.63-1.05-6.2-1-4.63 1.05-6.2 1-4.63-1.05-6.2-1-4.63 1.048-6.2 1-4.63-1.042-6.2-1-4.63 1-6.2 1A50.836 50.836 0 015 48v-2a50.836 50.836 0 006.2 1c1.57 0 4.63-.959 6.2-1s4.63.952 6.2 1 4.63-.95 6.2-1 4.63.95 6.2 1 4.63-.95 6.2-1 4.63.95 6.2 1 4.63-.95 6.2-1 4.63.95 6.2 1a42.589 42.589 0 006.2-1z"/><path fill="#1e50a0" d="M67 50a42.589 42.589 0 01-6.2 1c-1.57-.05-4.63-1.05-6.2-1s-4.63 1.05-6.2 1-4.63-1.05-6.2-1-4.63 1.05-6.2 1-4.63-1.05-6.2-1-4.63 1.048-6.2 1-4.63-1.042-6.2-1-4.63 1-6.2 1A50.836 50.836 0 015 50v-2a50.836 50.836 0 006.2 1c1.57 0 4.63-.959 6.2-1s4.63.952 6.2 1 4.63-.95 6.2-1 4.63.95 6.2 1 4.63-.95 6.2-1 4.63.95 6.2 1 4.63-.95 6.2-1 4.63.95 6.2 1a42.589 42.589 0 006.2-1z"/><path fill="#1e50a0" d="M67 55s-4.63-.95-6.2-1-4.63.95-6.2 1-4.63-.95-6.2-1-4.63.95-6.2 1-4.63-.95-6.2-1-4.63.95-6.2 1-4.63-.952-6.2-1-4.63.959-6.2 1-4.63-1-6.2-1A50.836 50.836 0 005 55v-4a50.836 50.836 0 006.2 1c1.57 0 4.63-.959 6.2-1s4.63.952 6.2 1 4.63-.95 6.2-1 4.63.95 6.2 1 4.63-.95 6.2-1 4.63.95 6.2 1 4.63-.95 6.2-1 4.63.95 6.2 1a42.589 42.589 0 006.2-1z"/><path fill="#fff" d="M67 52a42.589 42.589 0 01-6.2 1c-1.57-.05-4.63-1.05-6.2-1s-4.63 1.05-6.2 1-4.63-1.05-6.2-1-4.63 1.05-6.2 1-4.63-1.05-6.2-1-4.63 1.048-6.2 1-4.63-1.042-6.2-1-4.63 1-6.2 1A50.836 50.836 0 015 52v-2a50.836 50.836 0 006.2 1c1.57 0 4.63-.959 6.2-1s4.63.952 6.2 1 4.63-.95 6.2-1 4.63.95 6.2 1 4.63-.95 6.2-1 4.63.95 6.2 1 4.63-.95 6.2-1 4.63.95 6.2 1a42.589 42.589 0 006.2-1z"/><g fill="#f1b31c" stroke="#f1b31c" stroke-linecap="round" stroke-linejoin="round" stroke-width="2"><path d="M45.5 22a17.137 17.137 0 01-8 2M26.5 22a17.137 17.137 0 008 2"/></g><path fill="none" stroke="#f1b31c" stroke-linecap="round" stroke-linejoin="round" stroke-width="2" d="M31.495 25.933a10.986 10.986 0 019.01 0"/><g><path fill="none" stroke="#000" stroke-linecap="round" stroke-linejoin="round" stroke-width="2" d="M5 17h62v38H5z"/></g></svg>