<svg viewBox="0 0 72 72" xmlns="http://www.w3.org/2000/svg"><path fill="#fff" d="M5 17h62v38H5z"/><circle cx="36" cy="36" r="9" fill="#d22f27"/><g fill="#1e50a0"><path d="M28.127 31.676A4.492 4.492 0 0036 36c.023-.04.034-.083.055-.123l.024.014a4.493 4.493 0 017.724 4.59l.003.002a8.992 8.992 0 01-15.68-8.807zM28.331 31.287l.02.011c-.03.046-.067.085-.095.133.027-.047.047-.098.075-.144z"/></g><g fill="none" stroke="#000" stroke-linecap="round" stroke-linejoin="round"><path d="M24.232 41.902l3 5.196M20.768 43.902l3 5.196M22.5 42.902l1 1.732M24.5 46.366l1 1.732"/><g><path d="M45.5 48.098l1-1.732M47.5 44.634l1-1.732M47.232 49.098l1-1.732M49.232 45.634l1-1.732M43.768 47.098l1-1.732M45.768 43.634l1-1.732"/></g><g><path d="M20.768 28.098l3-5.196M22.5 29.098l3-5.196M24.232 30.098l3-5.196"/></g><g><path d="M44.768 24.902l1 1.732M46.768 28.366l1 1.732M48.232 22.902l1 1.732M50.232 26.366l1 1.732M46.5 23.902l3 5.196"/></g></g><g><path fill="none" stroke="#000" stroke-linecap="round" stroke-linejoin="round" stroke-width="2" d="M5 17h62v38H5z"/></g></svg>