<svg viewBox="0 0 72 72" xmlns="http://www.w3.org/2000/svg"><path fill="#61b2e4" d="M5 17h62v38H5z"/><path fill="#fcea2b" stroke="#fcea2b" stroke-linecap="round" stroke-linejoin="round" d="M44.889 28.387l-2.253 2.657 3.287-1.165-2.828 2.041 3.471-.342-3.232 1.308 3.452.493-3.452.493 3.232 1.308-3.471-.343 2.828 2.041-3.287-1.164 2.253 2.657-2.91-1.917 1.554 3.122-2.37-2.56.76 3.403-1.684-3.048-.075 3.486-.911-3.37-.911 3.37-.075-3.486-1.685 3.048.76-3.404-2.37 2.561 1.555-3.122-2.91 1.917 2.253-2.657-3.287 1.164 2.828-2.04-3.472.342 3.232-1.308-3.451-.493 3.451-.493-3.232-1.308 3.472.342-2.828-2.04 3.287 1.164-2.253-2.657 2.91 1.917-1.554-3.123 2.37 2.562-.76-3.404 1.684 3.047.075-3.485.91 3.369.912-3.37.075 3.486 1.685-3.047-.76 3.404 2.369-2.562-1.555 3.123z" stroke-width=".6848"/><path fill="none" stroke="#fcea2b" stroke-linecap="round" stroke-linejoin="round" stroke-width="2" d="M31.09 39.13s2.312 4.125 6.688 4.688c2.768.356 1.376.65-.042 1.065-.824.241-1.676.563-1.676.563s1.315-.52 3.443-.616c2.104-.094 1.47-.069.834-.21-.456-.101-1.57-.196-1.263-.268 4.083-.956 7.427-2.98 8.33-5.222"/><path fill="none" stroke="#fcea2b" stroke-linecap="round" stroke-linejoin="round" stroke-width="3.995" d="M10.5 22.02v27.95"/><g><path fill="none" stroke="#000" stroke-linecap="round" stroke-linejoin="round" stroke-width="2" d="M5 17h62v38H5z"/></g></svg>