<svg viewBox="0 0 72 72" xmlns="http://www.w3.org/2000/svg"><path fill="#d22f27" d="M5 17h62v38H5z"/><path fill="#5c9e31" d="M5 17h11v38H5z"/><path fill="#e27022" d="M16 17h10v38H16z"/><path fill="none" stroke="#f1b31c" stroke-miterlimit="10" stroke-width="2" d="M26 18v36M7 19h58v34H7z"/><path fill="none" stroke="#f1b31c" stroke-linecap="round" stroke-linejoin="round" stroke-width="2" d="M50 45h2l1-2-3-6M41 45h2l1-2-3-6M37 26a7.07 7.07 0 00-1 4v12"/><path fill="#f1b31c" stroke="#f1b31c" stroke-linecap="round" stroke-linejoin="round" stroke-width="2" d="M44 41c3 0 3-2 7-2l5 2c-1-2 2-3 1-6H42s-3 2-3 5h3z"/><path fill="none" stroke="#f1b31c" stroke-linecap="round" stroke-linejoin="round" stroke-width="2" d="M54 45h2l1-2-3-6M35 37l4 3M56 31a2 2 0 010 4M52 31a2 2 0 010-4"/><rect x="42" y="30" rx="1" ry="1" width="4" height="5" fill="#f1b31c"/><rect x="42" y="30" rx="1" ry="1" width="4" height="5" fill="none" stroke="#f1b31c" stroke-linecap="round" stroke-linejoin="round" stroke-width="2"/><path fill="none" stroke="#f1b31c" stroke-linecap="round" stroke-linejoin="round" stroke-width="2" d="M52 31h4M60 24l1-1M31 24l-1-1M43 32l-3-1M43 33l-3 1M60 48l1 1M31 48l-1 1"/><g><path fill="none" stroke="#000" stroke-linecap="round" stroke-linejoin="round" stroke-width="2" d="M5 17h62v38H5z"/></g></svg>