<svg viewBox="0 0 72 72" xmlns="http://www.w3.org/2000/svg"><path fill="#fcea2b" d="M5 17h62v38H5z"/><path fill="#1e50a0" d="M5 17h21v38H5z"/><path fill="#d22f27" d="M46 17h21v38H46z"/><path fill="#a57939" stroke="#a57939" stroke-linecap="round" stroke-linejoin="round" stroke-width="2" d="M34.657 30.566l-.5 1.704h-2.21a2.041 2.041 0 00-2.947 0v8.105l2.947-2.947h2.21L31.828 44h8.485l-2.47-6.572h2.947L43 40.375V32.27a2.041 2.041 0 00-2.947 0h-2.21l-.358-1.704V29.15a2.526 2.526 0 00-1.848-2.686 1.887 1.887 0 00-1.58.258l-1.521 1.014 2.121 1.414z"/><path fill="#d22f27" d="M32.219 31.5h7.764v4.529h-7.764z"/><path fill="#1e50a0" d="M32.22 35.382h7.764c.323 4.53-4.206 6.47-4.206 6.47s-4.853-3.235-3.559-6.47z"/><path fill="#fcea2b" stroke="#fcea2b" stroke-linecap="round" stroke-linejoin="round" stroke-width="2" d="M35.454 35.25h1.294l-.647 1.95-.647-1.95z"/><path fill="none" stroke="#000" stroke-linecap="round" stroke-linejoin="round" d="M35.994 41.852s3.882-1.294 3.882-5.176V31.5h-7.764v5.176c0 3.882 3.882 5.176 3.882 5.176z"/><g><path fill="none" stroke="#000" stroke-linecap="round" stroke-linejoin="round" stroke-width="2" d="M5 17h62v38H5z"/></g></svg>