<svg viewBox="0 0 72 72" xmlns="http://www.w3.org/2000/svg"><path fill="#d22f27" d="M5 17h62v38H5z"/><path fill="#f1b31c" stroke="#f1b31c" stroke-linecap="round" stroke-linejoin="round" stroke-width="2" d="M39 35c1.501 0 3.508-3.556 1.925-7.305A8 8 0 0136 42M36 42l6 2M33 35c-1.501 0-3.508-3.556-1.925-7.305A8 8 0 0036 42M36 42l-6 2M36 43l-2 2.5 2 .5 2-.5-2-2.5z"/><path fill="none" stroke="#f1b31c" stroke-linecap="round" stroke-linejoin="round" stroke-width="2" d="M38 31c-2 0-2 2.442-1 4M34 31c2 0 2 2.442 1 4"/><path fill="#5c9e31" stroke="#5c9e31" stroke-linecap="round" stroke-linejoin="round" stroke-width="2" d="M38 38c0 1.2-.65 1.617-2 2-1.35-.383-2-.8-2-2"/><path fill="#1e50a0" d="M33 34h6v4h-6z"/><path fill="none" stroke="#f1b31c" stroke-linecap="round" stroke-linejoin="round" stroke-width="2" d="M35 28h2"/><g><path fill="none" stroke="#000" stroke-linecap="round" stroke-linejoin="round" stroke-width="2" d="M5 17h62v38H5z"/></g></svg>