<svg viewBox="0 0 72 72" xmlns="http://www.w3.org/2000/svg"><path fill="#1e50a0" d="M5.227 17h62v38h-62z"/><path fill="#d22f27" d="M5.227 17h21v38h-21zM46.227 17h21v38h-21z"/><circle cx="16" cy="29" r="1" fill="#fcea2b" stroke="#fcea2b" stroke-linecap="round" stroke-linejoin="round" stroke-width="2"/><circle cx="16" cy="41" r="1" fill="#fcea2b" stroke="#fcea2b" stroke-linecap="round" stroke-linejoin="round" stroke-width="2"/><path fill="#fcea2b" stroke="#fcea2b" stroke-linecap="round" stroke-linejoin="round" stroke-width="2" d="M17 24a1 1 0 01-2 0l1-1zM15 33h2l-1 1-1-1zM15 48h2l-1 1-1-1zM15 37h2M15 45h2M11 33h1v16h-1zM20 33h1v16h-1z"/><g><path fill="none" stroke="#000" stroke-linecap="round" stroke-linejoin="round" stroke-width="2" d="M5 17h62v38H5z"/></g></svg>