<svg viewBox="0 0 72 72" xmlns="http://www.w3.org/2000/svg"><path fill="#186648" d="M5 17h62v38H5z"/><g stroke-linecap="round" stroke-linejoin="round"><path fill="none" stroke="#fff" d="M32.408 49.977h7M43.908 47.977h-16M25.408 45.977h21"/><path fill="#f1b31c" stroke="#f1b31c" d="M34.467 27.023l1.66-5 1.43 4.923-3.974-2.966 5-.124-4.116 3.167zM42.993 28.307l-.638-3.096 2.221 2.129-2.955-.349 2.561-1.564-1.189 2.88zM46.094 33.047l.996-3 .859 2.954-2.385-1.78 3-.074-2.47 1.9zM29.007 28.155l.638-3.096-2.221 2.129 2.955-.349-2.561-1.564 1.189 2.88zM25.906 32.895l-.996-3-.859 2.954 2.385-1.78-3-.074 2.47 1.9z"/><g fill="#fff" stroke="#fff"><path d="M35.007 41.34c1.382 1.256 4.002 1.832 6.835 1.333s5.098-1.938 5.967-3.591c-1.382-1.256-4.003-1.833-6.836-1.333s-5.097 1.937-5.967 3.59z"/><path d="M24.006 39.083c.87 1.653 3.135 3.09 5.967 3.59s5.454-.077 6.836-1.333c-.869-1.653-3.135-3.091-5.967-3.591s-5.453.077-6.835 1.333z"/><path d="M35.907 29.977c-1.476 1.044-2.5 3.31-2.5 5.937s1.024 4.894 2.5 5.938c1.478-1.044 2.5-3.31 2.5-5.938s-1.022-4.893-2.498-5.937z"/></g></g><g><path fill="none" stroke="#000" stroke-linecap="round" stroke-linejoin="round" stroke-width="2" d="M5 17h62v38H5z"/></g></svg>