<svg viewBox="0 0 72 72" xmlns="http://www.w3.org/2000/svg"><path fill="#5c9e31" d="M5 17h62v38H5z"/><path fill="#d22f27" d="M5 17h62v7H5zM5 48h62v7H5z"/><g fill="#fcea2b" stroke="#fcea2b" stroke-linecap="round" stroke-linejoin="round"><path d="M36 40.885a6.93 6.93 0 01-6.866-5.406A6.456 6.456 0 0029 36.777a7.007 7.007 0 0014 0 6.449 6.449 0 00-.134-1.298A6.93 6.93 0 0136 40.885zM34.707 34.521l1.328-4 1.145 3.939L34 32.086l4-.099-3.293 2.534z"/></g><g><path fill="none" stroke="#000" stroke-linecap="round" stroke-linejoin="round" stroke-width="2" d="M5 17h62v38H5z"/></g></svg>