<svg viewBox="0 0 72 72" xmlns="http://www.w3.org/2000/svg"><path fill="#fff" d="M5 17h62v38H5z"/><path fill="#d22f27" d="M5 17h62v5H5zM5 26h62v4H5zM5 34h62v4H5zM5 42h62v4H5zM5 50h62v5H5z"/><path fill="#1e50a0" d="M5 17h29v21H5z"/><g fill="#f1b31c" stroke="#f1b31c" stroke-linecap="round" stroke-linejoin="round"><path d="M13.845 27.5a6.215 6.215 0 015.405-5.885 7.487 7.487 0 00-1.297-.115c-3.702 0-6.703 2.686-6.703 6s3 6 6.703 6a7.487 7.487 0 001.297-.115 6.215 6.215 0 01-5.405-5.885z"/><path d="M24.612 25.969l2.097-3.418-1.451 3.723 3.409-2.192-2.964 2.74 4.047-.532-3.889 1.214 3.883 1.233-4.044-.552 2.949 2.755-3.398-2.209 1.433 3.73-2.079-3.428L24.236 33l-.348-3.969-2.097 3.418 1.451-3.723-3.409 2.192 2.964-2.74-4.047.532 3.889-1.214-3.883-1.233 4.044.552-2.949-2.755 3.398 2.209-1.433-3.73 2.079 3.428.369-3.967.348 3.969z"/></g><g><path fill="none" stroke="#000" stroke-linecap="round" stroke-linejoin="round" stroke-width="2" d="M5 17h62v38H5z"/></g></svg>