<svg viewBox="0 0 72 72" xmlns="http://www.w3.org/2000/svg"><path fill="#5c9e31" d="M5 17h62v38H5z"/><path fill="#d22f27" d="M5 30h62v12H5z"/><path fill="#1e50a0" d="M5 17h62v13H5z"/><circle cx="25" cy="36.5" r="13" fill="#fcea2b" stroke="#000" stroke-miterlimit="10"/><path fill="none" stroke="#000" stroke-linecap="round" stroke-linejoin="round" d="M25 23.56v25"/><ellipse cx="25" cy="36.93" rx="1.785" ry="1.071"/><ellipse cx="25" cy="42.49" rx="1.162" ry="1.55" stroke="#000" stroke-linecap="round" stroke-linejoin="round" stroke-width=".775"/><circle cx="25" cy="31.29" r="1.353" stroke="#000" stroke-linecap="round" stroke-linejoin="round" stroke-width=".902"/><path fill="none" stroke="#000" stroke-linecap="round" stroke-linejoin="round" d="M22.83 28.61l4.34-2.5"/><path stroke="#000" stroke-miterlimit="10" stroke-width="1.046" d="M25 49.49a10.75 17.05 0 003.694-1.05c-.222-1.632-1.782-2.902-3.694-2.902s-3.472 1.27-3.694 2.902A10.75 17.05 0 0025 49.49z"/><path fill="none" stroke="#000" stroke-linecap="round" stroke-linejoin="round" d="M22.39 42.45c1.114-3.639 4.098-3.639 5.216 0M22.4 31.36c1.11 3.798 4.085 3.798 5.199 0M23.35 35.25h3.3M23.35 38.61h3.3"/><g><path fill="none" stroke="#000" stroke-linecap="round" stroke-linejoin="round" stroke-width="2" d="M5 17h62v38H5z"/></g></svg>