<svg viewBox="0 0 72 72" xmlns="http://www.w3.org/2000/svg"><path fill="#fff" d="M5 17h62v38H5z"/><path fill="#186648" d="M5 17h21v38H5zM46 17h21v38H46z"/><g stroke="#186648" stroke-linecap="round" stroke-linejoin="round" stroke-width="2"><path fill="#186648" d="M36 26l-4 4 4-.8 4 .8-4-4zM36 30l-5 4 5-.8 5 .8-5-4zM36 34l-6 4 6-.8 6 .8-6-4zM36 38l-7 4 7-.8 7 .8-7-4z"/><path fill="none" d="M36 40v6"/></g><g><path fill="none" stroke="#000" stroke-linecap="round" stroke-linejoin="round" stroke-width="2" d="M5 17h62v38H5z"/></g></svg>