<svg viewBox="0 0 72 72" xmlns="http://www.w3.org/2000/svg"><path fill="#1e50a0" d="M5 17h62v38H5z"/><path fill="#f1b31c" d="M5 35h62v2H5z"/><path fill="#fff" stroke="#fff" stroke-linecap="round" stroke-linejoin="round" d="M16.296 44.896L18 42.536l-1.192 2.656L19.464 44l-2.36 1.704L20 46l-2.896.296L19.464 48l-2.656-1.192L18 49.464l-1.704-2.36L16 50l-.296-2.896L14 49.464l1.192-2.656L12.536 48l2.36-1.704L12 46l2.896-.296L12.536 44l2.656 1.192L14 42.536l1.704 2.36L16 42l.296 2.896z"/><g><path fill="none" stroke="#000" stroke-linecap="round" stroke-linejoin="round" stroke-width="2" d="M5 17h62v38H5z"/></g></svg>