<svg viewBox="0 0 72 72" xmlns="http://www.w3.org/2000/svg"><path fill="#fff" d="M5 17h62v38H5z"/><path fill="#d22f27" d="M5 17h62v9H5zM5 46h62v9H5z"/><path fill="#92d3f5" stroke="#92d3f5" stroke-linejoin="round" stroke-width=".933" d="M42 36a7 7 0 01-14 0"/><path fill="#f4aa41" stroke="#f4aa41" stroke-linejoin="round" stroke-width=".933" d="M28 36a7 7 0 0114 0"/><path fill="#d22f27" stroke="#d22f27" stroke-linejoin="round" d="M36.542 31s-3.167 0-3.167 2.111v3.167l3.167 1.583V33.64s-2.111-.528 0-2.639z"/><path fill="none" stroke="#d22f27" stroke-linecap="round" stroke-linejoin="round" d="M33 39.58s-1.044.696-1.74 0l.05-4.82M37.26 39.58s1.044.696 1.74 0l-.05-4.82"/><g><path fill="none" stroke="#000" stroke-linecap="round" stroke-linejoin="round" stroke-width="2" d="M5 17h62v38H5z"/></g></svg>