<svg viewBox="0 0 72 72" xmlns="http://www.w3.org/2000/svg"><path fill="#1e50a0" d="M5 17h62v38H5z"/><path fill="#d22f27" d="M5 36h62v19H5z"/><path fill="#fff" d="M37 36L5 55V17l32 19z"/><circle cx="8" cy="21" r="1.044" fill="#f1b31c"/><circle cx="33" cy="36" r="1.044" fill="#f1b31c"/><circle cx="8" cy="51" r="1.044" fill="#f1b31c"/><path fill="#f1b31c" stroke="#f1b31c" stroke-linecap="round" stroke-linejoin="round" d="M17.907 35.086l2.133-1.496-1.606 2.052 2.566.45-2.586.315 1.496 2.133-2.051-1.606-.451 2.566-.315-2.586-2.133 1.496 1.606-2.051L14 35.908l2.586-.315-1.496-2.133 2.052 1.606.45-2.566.315 2.586z"/><g><path fill="none" stroke="#000" stroke-linecap="round" stroke-linejoin="round" stroke-width="2" d="M5 17h62v38H5z"/></g></svg>