<svg viewBox="0 0 72 72" xmlns="http://www.w3.org/2000/svg"><path fill="#d22f27" d="M5 17h19v13H5z"/><path fill="none" stroke="#5c9e31" stroke-miterlimit="10" stroke-width="2" d="M6 30l18-12M6 18l18 12"/><path stroke="#fff" stroke-miterlimit="10" stroke-width="2" d="M15 30V18M6 24h18"/><path fill="#61b2e4" d="M24 17h43v38H24z"/><path fill="#fff" d="M5 30h19v12H5z"/><path fill="#f1b31c" stroke="#f1b31c" stroke-linecap="round" stroke-linejoin="round" stroke-width="2" d="M36 35c0 3 4 5 7 5s11-1 15-9h2c0 4-3 11-6 13H37l-8-9h7"/><g fill="none" stroke="#fff" stroke-linecap="round" stroke-linejoin="round" stroke-width="2"><path d="M24 46c3 0 3-2 6-2s3 2 6 2M36 46c3 0 3-2 6-2s3 2 6 2M48 46c3 0 3-2 6-2s3 2 6 2M60 46c3 0 3-2 6-2"/></g><path fill="#d22f27" d="M5 42h19v13H5z"/><path fill="none" stroke="#f1b31c" stroke-linecap="round" stroke-linejoin="round" stroke-width="2" d="M10 46h10M10 50h10"/><path fill="#f1b31c" stroke="#f1b31c" stroke-linecap="round" stroke-linejoin="round" stroke-width="2" d="M47 24c-2 4-3 10-2 12l-4-1c0-5 2-9 5-11zM55 24c-2 4-3 10-2 12l-4-1c0-5 2-9 5-11zM33.421 30.105A10.278 10.278 0 0138 24h1a25.06 25.06 0 00-2.16 6.96z"/><g><path fill="none" stroke="#000" stroke-linecap="round" stroke-linejoin="round" stroke-width="2" d="M5 17h62v38H5z"/></g></svg>