<svg viewBox="0 0 72 72" xmlns="http://www.w3.org/2000/svg"><path fill="#781e32" d="M5 17h62v38H5z"/><path fill="#fff" d="M26 19.5l-3.5 1.25L19 22v-5l3.5 1.25L26 19.5z"/><path fill="#fff" d="M26 24.214l-3.5 1.25-3.5 1.25v-5l3.5 1.25 3.5 1.25z"/><path fill="#fff" d="M26 28.929l-3.5 1.25-3.5 1.25v-5l3.5 1.25 3.5 1.25z"/><path fill="#fff" d="M26 33.643l-3.5 1.25-3.5 1.25v-5l3.5 1.25 3.5 1.25z"/><path fill="#fff" d="M26 38.357l-3.5 1.25-3.5 1.25v-5l3.5 1.25 3.5 1.25z"/><path fill="#fff" d="M26 43.071l-3.5 1.25-3.5 1.25v-5l3.5 1.25 3.5 1.25z"/><path fill="#fff" d="M26 47.786l-3.5 1.25-3.5 1.25v-5l3.5 1.25 3.5 1.25z"/><path fill="#fff" d="M26 52.5l-3.5 1.25L19 55v-5l3.5 1.25L26 52.5zM5 17h14v38H5z"/><g><path fill="none" stroke="#000" stroke-linecap="round" stroke-linejoin="round" stroke-width="2" d="M5 17h62v38H5z"/></g></svg>