<svg viewBox="0 0 72 72" xmlns="http://www.w3.org/2000/svg"><path fill="#61b2e4" d="M5 17h62v38H5z"/><path fill="#fcea2b" d="M5 36h62v9H5z"/><path fill="#5c9e31" d="M5 45h62v10H5z"/><path fill="#fcea2b" stroke="#fcea2b" stroke-linecap="round" stroke-linejoin="round" d="M56.296 24.896L58 22.536l-1.192 2.656L59.464 24l-2.36 1.704L60 26l-2.896.296L59.464 28l-2.656-1.192L58 29.464l-1.704-2.36L56 30l-.296-2.896L54 29.464l1.192-2.656L52.536 28l2.36-1.704L52 26l2.896-.296L52.536 24l2.656 1.192L54 22.536l1.704 2.36L56 22l.296 2.896z"/><g><path fill="none" stroke="#000" stroke-linecap="round" stroke-linejoin="round" stroke-width="2" d="M5 17h62v38H5z"/></g></svg>