<svg viewBox="0 0 72 72" xmlns="http://www.w3.org/2000/svg"><path fill="#1e50a0" d="M5 17h62v38H5z"/><path fill="#fff" d="M9.887 18H6v2.332L32.113 36H36v-2.332L9.887 18z"/><path fill="#fff" d="M36 20.332V18h-3.887L6 33.668V36h3.887L36 20.332z"/><path fill="#fff" d="M6 24h30v6H6z"/><path fill="#fff" d="M18 18h6v18h-6z"/><path fill="#d22f27" d="M20 18h2v18h-2z"/><path fill="#d22f27" d="M6 26h30v2H6zM36 33.668L29.887 30h-3.888l10 6 .001-.001v-2.331zM36 18h-3.887L24 22.868V24h2l10-5.999V18zM6 20.332L12.113 24H16L6 18v2.332zM6 36h3.887L18 31.132V30h-2.001L6 35.999V36z"/><path fill="#3f3f3f" d="M58.5 29h-.277c.094.03.184.07.277.101zM45.5 29v.101c.093-.032.183-.07.277-.101z"/><path fill="#fcea2b" d="M52 28a19.956 19.956 0 00-6.223 1h12.446A19.956 19.956 0 0052 28zM58.5 34.5v-5.399c-.093-.032-.183-.07-.277-.101H45.777c-.094.03-.184.07-.277.101V34.5z"/><path fill="#92d3f5" d="M44.956 34.81l13.544.053S60 44 52 47M44.956 34.81S44 45 52 47"/><path fill="#1e50a0" stroke="#1e50a0" stroke-linecap="round" stroke-linejoin="round" stroke-width="2" d="M56 42.919c-2.4-1.557-8 0-8 0L52 47z"/><path fill="none" stroke="#a57939" stroke-linecap="round" stroke-linejoin="round" stroke-width="2" d="M46 37l3 4v3"/><ellipse cx="46.858" cy="40.589" rx=".5" ry="2.647" transform="rotate(-18.17 46.858 40.59)" fill="none" stroke="#a57939" stroke-linecap="round" stroke-linejoin="round" stroke-width="2"/><path fill="#f4aa41" stroke="#a57939" stroke-linecap="round" stroke-linejoin="round" stroke-width="2" d="M53 32h-2l-1-2 3 2z"/><path fill="none" stroke="#f4aa41" stroke-linecap="round" stroke-linejoin="round" stroke-width="2" d="M55 41h-3a2.822 2.822 0 003 0z"/><path fill="none" stroke="#000" stroke-linecap="round" stroke-linejoin="round" d="M58.583 29v9c0 6.75-6.75 9-6.75 9s-6.75-2.25-6.75-9v-9s6.896-3.406 13.5 0zM58.5 34.5h-13"/><g><path fill="none" stroke="#000" stroke-linecap="round" stroke-linejoin="round" stroke-width="2" d="M5 17h62v38H5z"/></g></svg>