<svg viewBox="0 0 72 72" xmlns="http://www.w3.org/2000/svg"><path fill="#d22f27" d="M5 17h62v38H5z"/><path fill="#fff" d="M5 17h62v13H5z"/><path fill="#1e50a0" d="M5 30h62v12H5z"/><path fill="#1e50a0" stroke="#000" stroke-linecap="round" stroke-linejoin="round" d="M22.583 22v9c0 6.75-6.75 9-6.75 9s-6.75-2.25-6.75-9v-9s6.896-3.406 13.5 0z"/><path fill="#fff" stroke="#fff" stroke-miterlimit="10" d="M11.963 33.352l7.975.339A6.816 6.816 0 0116 38c-3 1-4.037-4.649-4.037-4.649"/><path fill="#fff" stroke="#fff" stroke-miterlimit="10" d="M14.5 33.5l1-2 2.265 2.584L14.5 33.5"/><circle cx="13" cy="24" r="1" fill="#fcea2b"/><path fill="none" stroke="#fff" stroke-linecap="round" stroke-linejoin="round" stroke-width="2" d="M21 35l-1-3-2 3-2-5-2 5-2-3-1 3s4 9 10 0z"/><circle cx="16" cy="26" r="1" fill="#fcea2b"/><circle cx="19" cy="24" r="1" fill="#fcea2b"/><path fill="none" stroke="#d22f27" stroke-linecap="round" stroke-linejoin="round" d="M22.583 22v9c0 6.75-6.75 9-6.75 9s-6.75-2.25-6.75-9v-9s6.896-3.406 13.5 0z"/><g><path fill="none" stroke="#000" stroke-linecap="round" stroke-linejoin="round" stroke-width="2" d="M5 17h62v38H5z"/></g></svg>