<svg viewBox="0 0 72 72" xmlns="http://www.w3.org/2000/svg"><path fill="#fff" d="M5 17h62v38H5z"/><path fill="#61b2e4" d="M5 36h62v19H5z"/><path fill="#61b2e4" d="M41 31a7.191 7.191 0 012 5 10.044 10.044 0 01-7 10 10.044 10.044 0 01-7-10 7.191 7.191 0 012-5"/><path fill="#61b2e4" d="M41 31a7.191 7.191 0 012 5 10.044 10.044 0 01-7 10 10.044 10.044 0 01-7-10 7.191 7.191 0 012-5"/><path fill="#fcea2b" stroke="#f1b31c" stroke-linecap="round" stroke-linejoin="round" stroke-width="2" d="M36 22v8"/><path fill="none" stroke="#f1b31c" stroke-linecap="round" stroke-linejoin="round" stroke-width="2" d="M36 28a3 3 0 013-3c1.657 0 4.14 1.472 2 6H31c-2.14-4.527.343-6 2-6a3 3 0 013 3"/><path fill="none" stroke="#6a462f" stroke-linecap="round" stroke-linejoin="round" stroke-width="2" d="M36 35v6"/><path fill="#5c9e31" d="M29.67 40A10.034 10.034 0 0036 46a10.034 10.034 0 006.33-6z"/><path fill="none" stroke="#f1b31c" stroke-linecap="round" stroke-linejoin="round" stroke-width="2" d="M41 31a7.191 7.191 0 012 5 10.044 10.044 0 01-7 10 10.044 10.044 0 01-7-10 7.191 7.191 0 012-5"/><path fill="none" stroke="#186648" stroke-linecap="round" stroke-linejoin="round" stroke-width="2" d="M41 47c3.348-1.738 6-6.228 6-11a12.987 12.987 0 00-1.066-5M31 47c-3.348-1.738-6-6.228-6-11a12.987 12.987 0 011.066-5"/><path fill="none" stroke="#fff" stroke-linecap="round" stroke-linejoin="round" stroke-width="2" d="M43 49l-2-2H31l-2 2"/><g><path fill="none" stroke="#000" stroke-linecap="round" stroke-linejoin="round" stroke-width="2" d="M5 17h62v38H5z"/></g></svg>