<svg viewBox="0 0 72 72" xmlns="http://www.w3.org/2000/svg"><path fill="#d22f27" d="M5 17h62v38H5z"/><path fill="#1e50a0" stroke="#f1b31c" stroke-miterlimit="10" d="M5 48h62v7H5zM5 17h62v7H5z"/><path fill="none" stroke="#fcea2b" stroke-linecap="round" stroke-linejoin="round" stroke-width=".968" d="M19.362 28.927h36.801M16.016 33.109h36.801"/><path fill="none" stroke="#fcea2b" stroke-linecap="round" stroke-linejoin="round" stroke-width=".925" d="M11.676 36.478h48.827"/><path d="M48.648 32.309a17.847 17.847 0 00-25.239 0l-3.955 3.954a.303.303 0 000 .43l3.955 3.954a17.847 17.847 0 0025.239 0l3.955-3.954a.303.303 0 000-.43z"/><path fill="#fff" d="M36.09 45.69a.311.311 0 00.312.31 17.482 17.482 0 0012.153-5.138l4.17-4.169a.304.304 0 000-.43l-4.17-4.168a17.481 17.481 0 00-12.153-5.138.311.311 0 00-.312.31z"/><g fill="none" stroke="#fff" stroke-linecap="round" stroke-linejoin="round" stroke-width="1.936"><path d="M23.89 34.3h9.68M23.89 38.656h9.68"/></g><g fill="none" stroke="#000" stroke-linecap="round" stroke-linejoin="round" stroke-width="1.936"><path d="M38.411 34.3h9.68M38.411 38.656h9.68"/></g><circle cx="31.119" cy="30.645" r="2.904" fill="#1e50a0" stroke="#000" stroke-linecap="round" stroke-linejoin="round" stroke-width=".968"/><circle cx="12.766" cy="38.292" r="2.904" fill="#1e50a0" stroke="#000" stroke-linecap="round" stroke-linejoin="round" stroke-width=".968"/><circle cx="60.178" cy="38.292" r="2.904" fill="#1e50a0" stroke="#000" stroke-linecap="round" stroke-linejoin="round" stroke-width=".968"/><g><path fill="none" stroke="#000" stroke-linecap="round" stroke-linejoin="round" stroke-width="2" d="M5 17h62v38H5z"/></g></svg>