<svg viewBox="0 0 72 72" xmlns="http://www.w3.org/2000/svg"><path fill="#1e50a0" d="M5 17h62v38H5z"/><path fill="#fff" d="M9.887 18H6v2.332L32.113 36H36v-2.332L9.887 18z"/><path fill="#fff" d="M36 20.332V18h-3.887L6 33.668V36h3.887L36 20.332z"/><path fill="#fff" d="M6 24h30v6H6z"/><path fill="#fff" d="M18 18h6v18h-6z"/><path fill="#d22f27" d="M20 18h2v18h-2z"/><path fill="#d22f27" d="M6 26h30v2H6zM36 33.668L29.887 30H26l10 6v-2.332zM36 18h-3.887L24 22.868V24h2.001L36 18.001V18zM6 20.332L12.113 24h3.888l-10-6-.001.001v2.331zM6 36h3.887L18 31.132V30h-2L6 35.999V36z"/><g><path fill="#f1b31c" stroke="#fff" stroke-linecap="round" stroke-linejoin="round" stroke-width="1.009" d="M60.73 29.091H44.618s-1.005 14.09 8.04 18.148v.016l.016-.008.017.008v-.016c9.045-4.057 8.039-18.148 8.039-18.148z"/><path fill="#5c9e31" d="M49.777 42.714s0-5.045 3.027-5.045 3.028 5.045 3.028 5.045-3.028 3.028-6.055 0z"/><circle cx="52.804" cy="37.669" r="1.009" fill="#d22f27" stroke="#d22f27" stroke-miterlimit="10" stroke-width="1.009"/><ellipse cx="47.889" cy="33.506" rx="1.514" ry="2.649" transform="rotate(-25.087 47.89 33.506)" fill="#f4aa41"/><ellipse cx="48.898" cy="33.506" rx="1.514" ry="2.649" fill="#ffa7c0"/><ellipse cx="56.971" cy="33.506" rx="1.514" ry="2.649" fill="#a57939"/></g><g><path fill="none" stroke="#000" stroke-linecap="round" stroke-linejoin="round" stroke-width="2" d="M5 17h62v38H5z"/></g></svg>