<svg viewBox="0 0 72 72" xmlns="http://www.w3.org/2000/svg"><path fill="#1e50a0" d="M5 17h62v38H5z"/><circle cx="46.859" cy="38.872" r=".503" fill="#fff" stroke="#fff" stroke-miterlimit="10" stroke-width="1.007"/><circle cx="58.944" cy="38.872" r=".503" fill="#fff" stroke="#fff" stroke-miterlimit="10" stroke-width="1.007"/><circle cx="56.93" cy="47.936" r=".503" fill="#fff" stroke="#fff" stroke-miterlimit="10" stroke-width="1.007"/><circle cx="48.874" cy="47.936" r=".503" fill="#fff" stroke="#fff" stroke-miterlimit="10" stroke-width="1.007"/><circle cx="52.902" cy="49.95" r=".503" fill="#fff" stroke="#fff" stroke-miterlimit="10" stroke-width="1.007"/><path fill="#fff" d="M58.462 45.477l-2.52-4.364a.838.838 0 00-1.179 0l-1.019 1.765v-2.89h1.05a.665.665 0 00.666-.664v-.385a.665.665 0 00-.666-.665h-1.05v-1.715h2.706a.725.725 0 00.725-.725v-.265a.725.725 0 00-.725-.725h-7.125a.725.725 0 00-.725.725v.265a.725.725 0 00.725.725h2.705v6.61l-1.187-2.056a.838.838 0 00-1.179 0l-2.52 4.364a.534.534 0 00.196.729l.193.111a.534.534 0 00.73-.195l.577-1.002h2.826l.578 1.002a.744.744 0 001.118 0l.578-1.002h2.826l.578 1.002a.533.533 0 00.73.195l.192-.111a.533.533 0 00.196-.73zm-8.877-1.647l.668-1.157.668 1.157zm5.1 0l.668-1.157.668 1.157z"/><path fill="none" stroke="#fff" stroke-linecap="round" stroke-linejoin="round" d="M36.5 17.5v19h-31"/><path fill="#1e50a0" d="M5 17h11v19H5z"/><path fill="#fff" d="M16 17h10v19H16z"/><path fill="#d22f27" d="M26 17h10v19H26z"/><g><path fill="none" stroke="#000" stroke-linecap="round" stroke-linejoin="round" stroke-width="2" d="M5 17h62v38H5z"/></g></svg>