<svg viewBox="0 0 72 72" xmlns="http://www.w3.org/2000/svg"><path fill="#5c9e31" d="M5 17h62v38H5z"/><path fill="#d22f27" d="M5 17h62v13H5z"/><path fill="#fff" d="M5 30h62v12H5z"/><circle cx="36.312" cy="35.155" r=".497" fill="#fcea2b" stroke="#fcea2b" stroke-miterlimit="10" stroke-width=".994"/><rect x="35.848" y="35.155" rx=".306" ry=".306" width=".928" height="3.975" fill="#fcea2b"/><path fill="none" stroke="#fcea2b" stroke-linecap="round" stroke-linejoin="round" stroke-width="1.988" d="M39.293 40.125a4.214 4.214 0 00-5.963 0"/><g fill="#fcea2b" stroke="#fcea2b" stroke-miterlimit="10" stroke-width=".994"><circle cx="41.301" cy="36.964" r=".497"/><circle cx="40.768" cy="34.868" r=".497"/><circle cx="39.399" cy="33.195" r=".497"/><circle cx="37.452" cy="32.257" r=".497"/><circle cx="35.29" cy="32.229" r=".497"/><circle cx="33.319" cy="33.118" r=".497"/><circle cx="31.909" cy="34.757" r=".497"/><circle cx="31.323" cy="36.837" r=".497"/></g><g><path fill="none" stroke="#000" stroke-linecap="round" stroke-linejoin="round" stroke-width="2" d="M5 17h62v38H5z"/></g></svg>