<svg viewBox="0 0 72 72" xmlns="http://www.w3.org/2000/svg"><path fill="#92d3f5" d="M5 17h62v38H5z"/><path fill="#f1b31c" stroke="#f1b31c" stroke-linecap="round" stroke-linejoin="round" d="M58.707 25l1.328-4 1.145 3.939L58 22.565l4-.098L58.707 25zM58.707 41l1.328-4 1.145 3.939L58 38.565l4-.098L58.707 41zM51.709 45l1.328-4 1.144 3.939-3.179-2.374 4-.098L51.709 45zM26.709 52l1.328-4 1.144 3.939-3.179-2.374 4-.098L26.709 52zM47.294 45l-1.327 4-1.145-3.939 3.18 2.374-4 .098L47.294 45zM37.294 46l-1.327 4-1.145-3.939 3.18 2.374-4 .098L37.294 46zM37.294 39l-1.327 4-1.145-3.939 3.18 2.374-4 .098L37.294 39zM50.891 29.207l-.85-4.128 2.961 2.839-3.941-.466 3.415-2.086-1.585 3.841zM44.891 31.207l-.85-4.128 2.961 2.839-3.941-.466 3.415-2.086-1.585 3.841z"/><path fill="#1e50a0" d="M5 17h31v19H5z"/><path fill="#fff" d="M9.887 18H6v2.332L32.113 36H36v-2.332L9.887 18z"/><path fill="#fff" d="M36 20.332V18h-3.887L6 33.668V36h3.887L36 20.332z"/><path fill="#fff" d="M6 24h30v6H6z"/><path fill="#fff" d="M18 18h6v18h-6z"/><path fill="#d22f27" d="M20 18h2v18h-2z"/><path fill="#d22f27" d="M6 26h30v2H6zM36 33.668L29.887 30H26l10 6v-2.332zM36 18h-3.887L24 22.868V24h2.001L36 18.001V18zM6 20.332L12.113 24h3.888l-10-6-.001.001v2.331zM6 36h3.887L18 31.132V30h-2L6 35.999V36z"/><g><path fill="none" stroke="#000" stroke-linecap="round" stroke-linejoin="round" stroke-width="2" d="M5 17h62v38H5z"/></g></svg>