<svg viewBox="0 0 72 72" xmlns="http://www.w3.org/2000/svg"><path fill="#d22f27" d="M5 17h62v38H5z"/><path fill="#1e50a0" d="M5.001 17.001h31.998v19.997H5.001z"/><path fill="#fff" stroke="#fff" stroke-linecap="round" stroke-linejoin="round" d="M19.523 25.523l-1.199-3.524 2.452 2.801.724-3.652.723 3.652 2.452-2.801-1.199 3.524 3.524-1.2-2.801 2.453 3.652.723-3.652.724L27 30.675l-3.524-1.2L24.675 33l-2.452-2.801-.723 3.652-.724-3.652L18.324 33l1.199-3.525-3.524 1.2 2.801-2.452-3.652-.724 3.652-.723-2.801-2.453 3.524 1.2z"/><circle cx="21.5" cy="27.499" r="4.089" fill="none" stroke="#1e50a0" stroke-miterlimit="10"/><g><path fill="none" stroke="#000" stroke-linecap="round" stroke-linejoin="round" stroke-width="2" d="M5 17h62v38H5z"/></g></svg>