<svg viewBox="0 0 72 72" xmlns="http://www.w3.org/2000/svg"><path d="M5 17h62v38H5z"/><path fill="#f1b31c" d="M5 42h62v6H5z"/><path fill="#d22f27" d="M5 30h62v6H5zM5 48h62v7H5z"/><path fill="#f1b31c" d="M5 24h62v6H5z"/><circle cx="36" cy="36" r="6" fill="#fff"/><circle cx="35.215" cy="32.664" r=".993" stroke="#000" stroke-miterlimit="10" stroke-width="1.335"/><circle cx="36.705" cy="36.14" r=".993" stroke="#000" stroke-miterlimit="10" stroke-width="1.668"/><path stroke="#000" stroke-linecap="round" stroke-linejoin="round" stroke-width="1.001" d="M32.732 33.161h2.98"/><path stroke="#000" stroke-linecap="round" stroke-linejoin="round" stroke-width="1.668" d="M35.712 36.14v-2.979"/><path stroke="#000" stroke-linecap="round" stroke-linejoin="round" stroke-width="1.001" d="M36.705 40.114v-2.98"/><path stroke="#000" stroke-linecap="round" stroke-linejoin="round" stroke-width=".334" d="M38.582 34.963c-1.203-.676-2.548-.566-3.004.246l4.356 2.448c.456-.812-.149-2.018-1.352-2.694z"/><g><path fill="none" stroke="#000" stroke-linecap="round" stroke-linejoin="round" stroke-width="2" d="M5 17h62v38H5z"/></g></svg>