<svg viewBox="0 0 72 72" xmlns="http://www.w3.org/2000/svg"><path fill="#fff" d="M5 17h62v38H5z"/><path fill="#d22f27" d="M5 17h62v5H5zM5 26h62v4H5zM5 34h62v4H5z"/><path fill="#1e50a0" d="M5 17h32v21H5z"/><path fill="#d22f27" d="M5 42h62v4H5z"/><circle cx="9" cy="22" r="1.75" fill="#fff"/><circle cx="17" cy="22" r="1.75" fill="#fff"/><circle cx="25" cy="22" r="1.75" fill="#fff"/><circle cx="33" cy="22" r="1.75" fill="#fff"/><circle cx="29" cy="26" r="1.75" fill="#fff"/><circle cx="21" cy="26" r="1.75" fill="#fff"/><circle cx="13" cy="26" r="1.75" fill="#fff"/><circle cx="9" cy="30" r="1.75" fill="#fff"/><circle cx="17" cy="30" r="1.75" fill="#fff"/><circle cx="25" cy="30" r="1.75" fill="#fff"/><circle cx="33" cy="30" r="1.75" fill="#fff"/><circle cx="29" cy="34" r="1.75" fill="#fff"/><circle cx="21" cy="34" r="1.75" fill="#fff"/><circle cx="13" cy="34" r="1.75" fill="#fff"/><path fill="#d22f27" d="M5 50h62v5H5z"/><g><path fill="none" stroke="#000" stroke-linecap="round" stroke-linejoin="round" stroke-width="2" d="M5 17h62v38H5z"/></g></svg>