<svg viewBox="0 0 72 72" xmlns="http://www.w3.org/2000/svg"><path fill="#1e50a0" d="M5 17h62v38H5z"/><path fill="#fff" d="M5 17h62v5H5zM5 26h62v4H5zM5 34h62v4H5zM5 42h62v4H5zM5 50h62v5H5z"/><path fill="#fff" d="M5.001 17.002H26v20.997H5.001z"/><path fill="#f1b31c" stroke="#f1b31c" stroke-linecap="round" stroke-linejoin="round" d="M15.296 26.896L17 24.536l-1.192 2.656L18.464 26l-2.36 1.704L19 28l-2.896.296L18.464 30l-2.656-1.192L17 31.464l-1.704-2.36L15 32l-.296-2.896L13 31.464l1.192-2.656L11.536 30l2.36-1.704L11 28l2.896-.296L11.536 26l2.656 1.192L13 24.536l1.704 2.36L15 24l.296 2.896z"/><g><path fill="none" stroke="#000" stroke-linecap="round" stroke-linejoin="round" stroke-width="2" d="M5 17h62v38H5z"/></g></svg>