<svg viewBox="0 0 72 72" xmlns="http://www.w3.org/2000/svg"><path fill="#fff" d="M17 17h38v38H17z"/><path fill="#fcea2b" d="M17 17h19v38H17z"/><ellipse cx="44.727" cy="29.86" rx="1.946" ry="2.703" fill="#9b9b9a"/><g fill="none" stroke="#fcea2b" stroke-linecap="round" stroke-linejoin="round" stroke-width=".91"><path d="M43.612 28.745h2.23M43.612 29.86h2.23M43.612 30.975h2.23"/></g><path fill="none" stroke="#d22f27" stroke-linecap="round" stroke-linejoin="round" stroke-width="1.147" d="M40.202 42.284c2.54 2.54 6.899 2.29 9.747-.557"/><g fill="#9b9b9a"><path d="M47.934 36.139a3.262 3.262 0 103.965 2.358 3.262 3.262 0 00-3.965-2.358zm1.3 5.119a2.02 2.02 0 111.46-2.455 2.02 2.02 0 01-1.46 2.455z"/><rect x="42.845" y="30.369" rx=".416" ry=".416" width="1.469" height="8.811" transform="rotate(-48.848 43.58 34.774)"/><rect x="39.704" y="32.336" rx=".369" ry=".369" width="1.469" height="1.81" transform="rotate(41.152 40.438 33.24)"/><rect x="41.268" y="33.703" rx=".369" ry=".369" width="1.469" height="1.81" transform="rotate(41.152 42.002 34.607)"/></g><g fill="#fcea2b"><path d="M37.518 38.819a3.262 3.262 0 103.835-2.565 3.262 3.262 0 00-3.835 2.565zm1.219.242a2.02 2.02 0 111.587 2.374 2.02 2.02 0 01-1.587-2.374z"/><rect x="44.895" y="30.257" rx=".416" ry=".416" width="1.469" height="8.811" transform="rotate(-134.174 45.63 34.662)"/><rect x="47.951" y="32.06" rx=".369" ry=".369" width="1.469" height="1.81" transform="rotate(135.826 48.685 32.965)"/><rect x="46.462" y="33.507" rx=".369" ry=".369" width="1.469" height="1.81" transform="rotate(135.826 47.196 34.412)"/></g><g><path fill="none" stroke="#000" stroke-linecap="round" stroke-linejoin="round" stroke-width="2" d="M17 17h38v38H17z"/></g></svg>