<svg viewBox="0 0 72 72" xmlns="http://www.w3.org/2000/svg"><path fill="#fff" d="M5 17h62v38H5z"/><path fill="#3f3f3f" d="M24.468 38.624a5.622 5.622 0 00.872-1.952.111.111 0 01.09-.12.832.832 0 00.607-.303c.056-.079.162-.042.175.062a2.517 2.517 0 01-1.37 2.84.093.093 0 01-.107-.033l-.26-.332a.144.144 0 01-.008-.162z"/><ellipse cx="19.747" cy="38.953" rx="1.791" ry="4.782" transform="rotate(-43.286 19.747 38.953)" fill="#5c9e31"/><path fill="none" stroke="#5c9e31" stroke-linecap="round" stroke-linejoin="round" stroke-width="1.998" d="M17.476 36.577l12.198 12.669"/><g fill="none" stroke="#61b2e4" stroke-linecap="round" stroke-linejoin="round" stroke-width=".999"><path d="M54.363 39.254l-11.584 9.429M53.362 36.622l-9.046 14.329M51.344 35.573L46.335 52"/></g><path fill="#fcea2b" stroke="#fcea2b" stroke-linecap="round" stroke-linejoin="round" stroke-width="1.798" d="M59.828 22.331a1.331 1.331 0 00-1.708-.346c-3.185 1.283-11.073 3.263-13.037 4.327a1.641 1.641 0 00-1.011 1.391 1.467 1.467 0 00.697 1.248l-.008.075a6.277 6.277 0 01-4.722-.938l-.222-.222c-.634-1.452-.616-5.65-2.963-6.013a1.464 1.464 0 00-.326-.039c-2.945 0-4.417 2.945-3.681 2.208s3.68-.736 1.666 2.6a5.433 5.433 0 01-.344.495l-.97.971a6.277 6.277 0 01-4.722.938l-.009-.075a1.467 1.467 0 00.698-1.248 1.641 1.641 0 00-1.011-1.391c-1.964-1.064-9.852-3.044-13.038-4.327a1.331 1.331 0 00-1.708.346 1.35 1.35 0 00-.435.844 2.145 2.145 0 00.252.94c.573 1.49 6.989 6.458 11.133 9.401a10.655 10.655 0 011.703 1.561 2.203 2.203 0 001.037.643 4.334 4.334 0 011.478.664c.458.347.99.795 1.53 1.27-.315.157-2.357 1.26-1.677 3.3.548 1.645-.945 1.656-1.743 1.555a1.468 1.468 0 101.007 1.39 2.723 2.723 0 012.208-1.473 1.442 1.442 0 001.473-1.472 2.57 2.57 0 011.472-.736l.557.557-2.091 2.092a1.458 1.458 0 000 2.063l4.183 4.184a1.45 1.45 0 001.187.412 1.435 1.435 0 001.058-.412l4.184-4.184a1.458 1.458 0 000-2.063l-2.092-2.092.558-.557a2.57 2.57 0 011.472.736 1.442 1.442 0 001.472 1.472 2.723 2.723 0 012.209 1.473 1.497 1.497 0 101.007-1.39c-.798.101-2.292.09-1.743-1.555.68-2.04-1.362-3.144-1.677-3.3a28.4 28.4 0 011.53-1.27 4.333 4.333 0 011.478-.664 2.203 2.203 0 001.037-.643 10.65 10.65 0 011.703-1.56c4.144-2.945 10.56-7.911 11.132-9.402a2.147 2.147 0 00.252-.94 1.351 1.351 0 00-.435-.844z"/><path fill="none" stroke="#61b2e4" stroke-linecap="round" stroke-linejoin="round" stroke-width="1.998" d="M61.638 31.265v7.992"/><g fill="none" stroke="#61b2e4" stroke-linecap="round" stroke-linejoin="round" stroke-width="1.998"><path d="M8.374 31.265l2.65 7.74M14.07 31.265l-2.649 7.74"/></g><g><path fill="#1e50a0" d="M27.563 27.6h17.98v5.993h-17.98z"/><path fill="#781e32" d="M27.586 34.068a8.965 8.965 0 00.228 1.624 14.777 14.777 0 007.909 10.513 1.842 1.842 0 001.66 0 14.778 14.778 0 007.909-10.513 8.983 8.983 0 00.228-1.624c.02-.285.023-.453.023-.453h-17.98s.002.168.023.453z"/><g fill="#fff"><path d="M33.079 33.575V44.49q.453.356.956.691V33.575zM30.072 33.575v7.713a14.353 14.353 0 00.936 1.22v-8.934zM39.092 33.575v11.608q.48-.32.915-.658v-10.95zM36.106 33.575v12.73a1.897 1.897 0 00.915 0v-12.73zM42.077 33.575v8.986a14.316 14.316 0 00.957-1.239v-7.748z"/></g></g><g><path fill="none" stroke="#000" stroke-linecap="round" stroke-linejoin="round" stroke-width="2" d="M5 17h62v38H5z"/></g></svg>