<svg viewBox="0 0 72 72" xmlns="http://www.w3.org/2000/svg"><path fill="#d22f27" d="M5 17h62v38H5z"/><path fill="#1e50a0" d="M5 17h32v21H5z"/><path fill="#fff" stroke="#fff" stroke-linecap="round" stroke-linejoin="round" d="M20.081 24.089l1.232-4 1.24 3.998-3.238-2.469 4-.003-3.234 2.474zM20.081 35.971l1.232-4 1.24 3.998-3.238-2.469 4-.003-3.234 2.474zM26.581 27.471l1.232-4 1.24 3.998L25.815 25l4-.003-3.234 2.474zM13.581 27.471l1.232-4 1.24 3.998L12.815 25l4-.003-3.234 2.474z"/><circle cx="24.75" cy="30" r=".5" fill="#fff"/><g><path fill="none" stroke="#000" stroke-linecap="round" stroke-linejoin="round" stroke-width="2" d="M5 17h62v38H5z"/></g></svg>