<svg viewBox="0 0 72 72" xmlns="http://www.w3.org/2000/svg"><path fill="#fff" d="M5 17h62v38H5z"/><path fill="#1e50a0" d="M28.63 36.7a1.357 1.357 0 001.21 1.346v.015h12.1v-.015a1.342 1.342 0 00.151.015 1.362 1.362 0 000-2.723 1.342 1.342 0 00-.151.016v-.031a1.342 1.342 0 00.151.015 1.362 1.362 0 100-2.723 1.324 1.324 0 00-.151.016V32.6a1.324 1.324 0 00.151.015 1.362 1.362 0 10-1.346-1.513h-.333a1.354 1.354 0 00-2.693 0h-.332a1.354 1.354 0 00-2.693 0h-.333a1.354 1.354 0 00-2.692 0h-.334a1.358 1.358 0 10-1.498 1.498v.031a1.354 1.354 0 000 2.692v.031a1.357 1.357 0 00-1.21 1.346z"/><path fill="#d22f27" d="M43.45 39.43a1.357 1.357 0 00-1.21-1.346v-.015h-12.1v.015a1.342 1.342 0 00-.151-.015 1.362 1.362 0 000 2.723 1.324 1.324 0 00.151-.016v.031a1.324 1.324 0 00-.151-.015 1.362 1.362 0 000 2.723 1.342 1.342 0 00.151-.016v.031a1.342 1.342 0 00-.151-.015 1.362 1.362 0 101.346 1.513h.333a1.354 1.354 0 002.692 0h.333a1.354 1.354 0 002.693 0h.333a1.354 1.354 0 002.693 0h.333a1.358 1.358 0 101.498-1.498v-.031a1.354 1.354 0 000-2.692v-.031a1.357 1.357 0 001.21-1.346z"/><path fill="#fff" stroke="#fff" stroke-linecap="round" stroke-linejoin="round" stroke-width=".741" d="M36.04 35.5a2.382 2.382 0 01-2.306-1.986 2.581 2.581 0 00-.045.477 2.354 2.354 0 104.703 0 2.588 2.588 0 00-.045-.477 2.382 2.382 0 01-2.306 1.986z"/><path fill="#f1b31c" d="M33.5 39.46a.354.354 0 01.354.354v2.83a.354.354 0 01-.354.353.354.354 0 01-.354-.353v-2.83a.354.354 0 01.354-.354z"/><path fill="#f1b31c" d="M31.97 40.34a.354.354 0 01.483-.13l2.451 1.416a.354.354 0 01.13.483.354.354 0 01-.484.13l-2.45-1.416a.354.354 0 01-.13-.483z"/><path fill="#f1b31c" d="M31.97 42.11a.354.354 0 01.13-.483l2.45-1.415a.354.354 0 01.484.13.354.354 0 01-.13.483l-2.45 1.414a.354.354 0 01-.484-.129zM38.58 39.46a.354.354 0 01.354.354v2.83a.354.354 0 01-.354.353.354.354 0 01-.354-.353v-2.83a.354.354 0 01.354-.354z"/><path fill="#f1b31c" d="M37.04 40.34a.354.354 0 01.483-.13l2.451 1.416a.354.354 0 01.13.483.354.354 0 01-.484.13l-2.45-1.416a.354.354 0 01-.13-.483z"/><path fill="#f1b31c" d="M37.04 42.11a.354.354 0 01.13-.483l2.45-1.415a.354.354 0 01.484.13.354.354 0 01-.13.483l-2.45 1.415a.354.354 0 01-.483-.13z"/><path fill="#9b9b9a" stroke="#9b9b9a" stroke-linecap="round" stroke-linejoin="round" stroke-width=".741" d="M50.78 40.82c1.466-.636 2.694-2.471 3.014-2.864.79-.972 1.58-4.797-1.038-7.285a5.519 5.519 0 00-1.245-.867c-2.557-1.347-2.557-.447-2.557-.447a1.538 1.538 0 011.076.661c.538.662 0 .662-1.076 1.323s-.538 1.985-1.076 2.646c-.538.661-1.076.661-.538 1.323.538.661 2.282-1.038 2.282-1.038l.004-.003a1.412 1.412 0 00.941.38 1.781 1.781 0 001.597-1.79.387.387 0 01.285.135c.537.66.054 2.13-3.738 3.955-4.91 2.362-4.68 7.095-4.385 8.916a3.977 3.977 0 00.435 1.27c.14.258.284.507.428.743a5.625 5.625 0 005.11 2.977c2.197 0 3.985-2.163 4.031-4.853.001-.064-.005-.128-.009-.192-.104 2.259-1.622 4.053-3.485 4.053-.063 0-.124-.008-.186-.012-.052-.002-.104-.004-.156-.01-1.77-.211-3.153-2.046-3.153-4.279a5.271 5.271 0 013.44-4.743zM21.28 40.82c-1.466-.636-2.694-2.471-3.014-2.864-.79-.972-1.58-4.797 1.038-7.285a5.521 5.521 0 011.245-.867c2.557-1.347 2.557-.447 2.557-.447a1.538 1.538 0 00-1.076.661c-.538.662 0 .662 1.076 1.323s.538 1.985 1.076 2.646c.538.661 1.076.661.538 1.323-.538.661-2.282-1.038-2.282-1.038l-.004-.003a1.412 1.412 0 01-.941.38 1.781 1.781 0 01-1.597-1.79.388.388 0 00-.285.135c-.536.66-.053 2.13 3.738 3.955 4.91 2.362 4.68 7.095 4.385 8.916a3.977 3.977 0 01-.434 1.27c-.14.258-.285.507-.43.743a5.625 5.625 0 01-5.108 2.977c-2.198 0-3.986-2.163-4.032-4.853-.001-.064.005-.128.01-.192.104 2.259 1.622 4.053 3.484 4.053.063 0 .124-.008.186-.012.052-.002.104-.004.156-.01 1.77-.211 3.154-2.046 3.154-4.279a5.271 5.271 0 00-3.44-4.743z"/><path fill="#3f3f3f" d="M18.25 39.7c-.446-.643-1.984-2.941-2.03-4.092a.238.238 0 00-.203-.25 1.778 1.778 0 01-1.32-.594c-.127-.164-.35-.077-.37.148-.13 1.516-.019 4.816 3.168 5.944a.199.199 0 00.227-.081l.524-.731a.308.308 0 00.004-.344zM53.75 39.7c.446-.643 1.984-2.941 2.03-4.092a.238.238 0 01.203-.25 1.778 1.778 0 001.32-.594c.127-.164.35-.077.37.148.13 1.516.019 4.816-3.168 5.944a.199.199 0 01-.227-.081l-.523-.731a.308.308 0 01-.005-.344z"/><path fill="none" stroke="#d22f27" stroke-linecap="round" stroke-linejoin="round" stroke-width="2.997" d="M20.67 23.34l30.66.115"/><g><path fill="none" stroke="#000" stroke-linecap="round" stroke-linejoin="round" stroke-width="2" d="M5 17h62v38H5z"/></g></svg>