<svg viewBox="0 0 72 72" xmlns="http://www.w3.org/2000/svg"><path d="M5 17h62v38H5z"/><path fill="#5c9e31" d="M5 49h62v6H5z"/><path fill="#f1b31c" d="M5 44h62v5H5z"/><path fill="#d22f27" d="M5 39h62v5H5z"/><path fill="#5c9e31" d="M5 17h62v6H5z"/><path fill="#f1b31c" d="M5 23h62v5H5z"/><path fill="#d22f27" d="M5 28h62v5H5z"/><path fill="#fff" stroke="#000" stroke-linecap="round" stroke-linejoin="round" d="M26 36L5 55V17l21 19z"/><path fill="#d22f27" stroke="#d22f27" stroke-linecap="round" stroke-linejoin="round" stroke-width=".54" d="M15.266 35.67L19 32.795l-4.536.112-1.298-4.466-1.506 4.536-4.537.112 3.606 2.691-.974 2.935a2.283 2.283 0 011.08.362l2.123-1.633 3.606 2.692z"/><path fill="#fcea2b" d="M10.701 30.94a.885.885 0 00-1.424.7v8.743a.885.885 0 00.885.885h6.047a.885.885 0 00.885-.885v-4.09a.885.885 0 00-.345-.702z"/><g><path fill="none" stroke="#000" stroke-linecap="round" stroke-linejoin="round" stroke-width="2" d="M5 17h62v38H5z"/></g></svg>