<svg width="2092" height="527" viewBox="0 0 2092 527" fill="none" xmlns="http://www.w3.org/2000/svg">
<path d="M43.6574 337.143V271.548L60.213 281.214L85.7361 260.5H101.602L142.991 290.19L183 246L180.931 274.31V290.19L175.412 308.833L170.583 312.286V337.143L165.065 347.5V370.286L153.338 381.333L142.991 388.929L147.13 409.643L149.889 442.095H142.991L127.815 444.857L125.056 464.19L112.639 478L91.2546 457.976L70.5602 468.333L67.8009 439.333L62.9722 433.81L41.588 421.381L43.6574 413.786V397.214L47.7963 391.69V378.571L34 357.857L43.6574 337.143Z" fill="white"/>
<path d="M54.2705 8.944L37 55.728L58.4155 86H170.328L180 46.784L164.111 2.064L144.077 54.352L106.082 0L86.7391 61.92L54.2705 8.944Z" fill="#0A4481"/>
<path d="M24 110.09V132.855C56.0928 146.421 132.745 163.207 182.615 121.817C183.08 121.431 183.541 121.045 184 120.658V110.09H24ZM61.4026 78.2751L24 28V110.09H184V78.2751L181.229 44.556L178.459 30.0695L168.762 70.0799L144.519 28L116.814 84.5664L87.0303 36.278L61.4026 78.2751Z" fill="#0091FF"/>
<path d="M84.424 204.762C84.424 227.826 65.5255 246.523 42.212 246.523C18.8985 246.523 0 227.826 0 204.762C0 181.697 18.8985 163 42.212 163C65.5255 163 84.424 181.697 84.424 204.762ZM173 210.238C173 233.303 154.101 252 130.788 252C107.475 252 88.576 233.303 88.576 210.238C88.576 187.174 107.475 168.477 130.788 168.477C154.101 168.477 173 187.174 173 210.238Z" fill="#544E4E"/>
<path d="M92 193.019L82 192L82.6157 215.649L88.8692 217L92 193.019Z" fill="#544E4E"/>
<path d="M37 234C53.0163 234 66 221.016 66 205C66 188.984 53.0163 176 37 176C20.9837 176 8 188.984 8 205C8 221.016 20.9837 234 37 234Z" fill="#C9CFCF"/>
<path d="M126 240C142.016 240 155 227.016 155 211C155 194.984 142.016 182 126 182C109.984 182 97 194.984 97 211C97 227.016 109.984 240 126 240Z" fill="#C9CFCF"/>
<path d="M384.391 230.646L339.859 67.0103H385.776L411.131 176.953H412.622L439.043 67.0103H484.107L510.953 176.314H512.338L537.267 67.0103H583.077L538.652 230.646H490.605L462.48 127.734H460.456L432.331 230.646H384.391ZM607.287 230.646V67.0103H652.67V230.646H607.287ZM630.085 45.9163C623.338 45.9163 617.549 43.6793 612.72 39.2045C607.961 34.6591 605.582 29.2258 605.582 22.9048C605.582 16.6548 607.961 11.2926 612.72 6.8182C617.549 2.2727 623.338 0 630.085 0C636.832 0 642.585 2.2727 647.343 6.8182C652.173 11.2926 654.588 16.6548 654.588 22.9048C654.588 29.2258 652.173 34.6591 647.343 39.2045C642.585 43.6793 636.832 45.9163 630.085 45.9163ZM825.175 113.672L783.627 116.228C782.917 112.677 781.39 109.481 779.046 106.64C776.702 103.728 773.613 101.42 769.778 99.7163C766.013 97.9403 761.504 97.0523 756.248 97.0523C749.217 97.0523 743.286 98.5443 738.457 101.527C733.627 104.439 731.212 108.345 731.212 113.245C731.212 117.152 732.775 120.454 735.9 123.153C739.025 125.852 744.387 128.018 751.987 129.652L781.603 135.618C797.512 138.885 809.373 144.14 817.185 151.385C824.998 158.629 828.904 168.146 828.904 179.936C828.904 190.66 825.744 200.071 819.423 208.167C813.173 216.264 804.579 222.585 793.641 227.13C782.775 231.605 770.239 233.842 756.035 233.842C734.373 233.842 717.114 229.332 704.259 220.312C691.475 211.221 683.982 198.863 681.781 183.238L726.418 180.895C727.768 187.5 731.035 192.542 736.219 196.022C741.404 199.432 748.045 201.136 756.141 201.136C764.096 201.136 770.488 199.609 775.317 196.555C780.218 193.43 782.704 189.417 782.775 184.517C782.704 180.397 780.964 177.024 777.555 174.396C774.146 171.697 768.89 169.637 761.788 168.217L733.45 162.571C717.469 159.375 705.573 153.835 697.761 145.951C690.019 138.068 686.148 128.018 686.148 115.802C686.148 105.291 688.989 96.2353 694.671 88.6363C700.424 81.0373 708.485 75.1773 718.854 71.0583C729.295 66.9393 741.511 64.8793 755.502 64.8793C776.17 64.8793 792.434 69.2473 804.295 77.9833C816.227 86.7183 823.187 98.6153 825.175 113.672ZM932.056 233.842C915.223 233.842 900.735 230.433 888.59 223.615C876.516 216.726 867.212 206.995 860.678 194.424C854.144 181.782 850.877 166.832 850.877 149.574C850.877 132.741 854.144 117.968 860.678 105.255C867.212 92.5423 876.409 82.6353 888.27 75.5323C900.202 68.4303 914.194 64.8793 930.245 64.8793C941.04 64.8793 951.09 66.6193 960.394 70.0993C969.769 73.5083 977.936 78.6573 984.897 85.5473C991.928 92.4363 997.397 101.101 1001.3 111.541C1005.21 121.91 1007.16 134.055 1007.16 147.976V160.44H868.988V132.315H964.442C964.442 125.781 963.022 119.993 960.181 114.95C957.34 109.907 953.398 105.966 948.355 103.125C943.384 100.213 937.596 98.7573 930.99 98.7573C924.101 98.7573 917.993 100.355 912.667 103.551C907.411 106.676 903.292 110.902 900.309 116.228C897.326 121.484 895.799 127.343 895.728 133.807V160.547C895.728 168.643 897.219 175.639 900.202 181.534C903.256 187.429 907.553 191.974 913.093 195.17C918.632 198.366 925.202 199.964 932.801 199.964C937.844 199.964 942.461 199.254 946.651 197.834C950.841 196.413 954.428 194.282 957.411 191.441C960.394 188.601 962.667 185.12 964.229 181.001L1006.2 183.771C1004.07 193.856 999.705 202.663 993.1 210.191C986.566 217.649 978.114 223.473 967.745 227.663C957.446 231.782 945.55 233.842 932.056 233.842ZM1110.71 233.842C1094.17 233.842 1079.85 230.326 1067.78 223.295C1055.78 216.193 1046.51 206.321 1039.97 193.679C1033.44 180.966 1030.17 166.228 1030.17 149.467C1030.17 132.564 1033.44 117.791 1039.97 105.149C1046.51 92.4363 1055.78 82.5643 1067.78 75.5323C1079.85 68.4303 1094.17 64.8793 1110.71 64.8793C1127.26 64.8793 1141.54 68.4303 1153.54 75.5323C1165.61 82.5643 1174.92 92.4363 1181.45 105.149C1187.99 117.791 1191.25 132.564 1191.25 149.467C1191.25 166.228 1187.99 180.966 1181.45 193.679C1174.92 206.321 1165.61 216.193 1153.54 223.295C1141.54 230.326 1127.26 233.842 1110.71 233.842ZM1110.93 198.686C1118.45 198.686 1124.74 196.555 1129.78 192.294C1134.83 187.961 1138.63 182.066 1141.18 174.609C1143.81 167.152 1145.12 158.664 1145.12 149.147C1145.12 139.63 1143.81 131.143 1141.18 123.686C1138.63 116.228 1134.83 110.333 1129.78 106.001C1124.74 101.669 1118.45 99.5033 1110.93 99.5033C1103.33 99.5033 1096.94 101.669 1091.75 106.001C1086.64 110.333 1082.77 116.228 1080.14 123.686C1077.58 131.143 1076.3 139.63 1076.3 149.147C1076.3 158.664 1077.58 167.152 1080.14 174.609C1082.77 182.066 1086.64 187.961 1091.75 192.294C1096.94 196.555 1103.33 198.686 1110.93 198.686ZM1266.15 12.4645V230.646H1220.76V12.4645H1266.15ZM1362.8 233.309C1350.37 233.309 1339.11 230.113 1329.03 223.721C1319.01 217.258 1311.06 207.777 1305.16 195.277C1299.34 182.706 1296.43 167.294 1296.43 149.041C1296.43 130.291 1299.45 114.701 1305.48 102.272C1311.52 89.7723 1319.55 80.4333 1329.56 74.2543C1339.65 68.0043 1350.69 64.8793 1362.69 64.8793C1371.86 64.8793 1379.49 66.4413 1385.6 69.5663C1391.78 72.6203 1396.75 76.4563 1400.51 81.0723C1404.35 85.6183 1407.26 90.0923 1409.25 94.4953H1410.63V12.4645H1455.91V230.646H1411.17V204.439H1409.25C1407.12 208.984 1404.1 213.494 1400.19 217.968C1396.36 222.372 1391.35 226.03 1385.17 228.941C1379.06 231.853 1371.61 233.309 1362.8 233.309ZM1377.18 197.194C1384.5 197.194 1390.68 195.206 1395.72 191.228C1400.83 187.18 1404.74 181.534 1407.44 174.289C1410.21 167.045 1411.59 158.558 1411.59 148.828C1411.59 139.098 1410.24 130.646 1407.54 123.473C1404.85 116.299 1400.94 110.76 1395.83 106.853C1390.71 102.947 1384.5 100.994 1377.18 100.994C1369.72 100.994 1363.44 103.018 1358.33 107.066C1353.21 111.115 1349.34 116.726 1346.71 123.899C1344.09 131.072 1342.77 139.382 1342.77 148.828C1342.77 158.345 1344.09 166.761 1346.71 174.076C1349.41 181.321 1353.28 187.003 1358.33 191.122C1363.44 195.17 1369.72 197.194 1377.18 197.194ZM1493.22 230.646V67.0103H1536.48V95.8803H1538.39C1541.8 86.2923 1547.49 78.7283 1555.44 73.1893C1563.39 67.6493 1572.91 64.8793 1583.99 64.8793C1595.21 64.8793 1604.77 67.6843 1612.65 73.2953C1620.53 78.8353 1625.79 86.3633 1628.42 95.8803H1630.12C1633.46 86.5053 1639.5 79.0123 1648.23 73.4023C1657.04 67.7203 1667.44 64.8793 1679.45 64.8793C1694.72 64.8793 1707.11 69.7443 1716.63 79.4743C1726.21 89.1333 1731.01 102.841 1731.01 120.596V230.646H1685.73V129.545C1685.73 120.454 1683.32 113.636 1678.49 109.091C1673.66 104.545 1667.62 102.272 1660.38 102.272C1652.14 102.272 1645.71 104.9 1641.09 110.156C1636.48 115.341 1634.17 122.194 1634.17 130.717V230.646H1590.17V128.586C1590.17 120.561 1587.86 114.169 1583.25 109.41C1578.7 104.652 1572.7 102.272 1565.24 102.272C1560.2 102.272 1555.65 103.551 1551.6 106.108C1547.63 108.593 1544.47 112.109 1542.12 116.655C1539.78 121.129 1538.61 126.385 1538.61 132.422V230.646H1493.22ZM1813.52 233.735C1803.08 233.735 1793.77 231.924 1785.61 228.302C1777.44 224.609 1770.98 219.176 1766.22 212.003C1761.53 204.758 1759.19 195.738 1759.19 184.943C1759.19 175.852 1760.86 168.217 1764.19 162.038C1767.53 155.859 1772.08 150.887 1777.83 147.123C1783.58 143.359 1790.12 140.518 1797.43 138.601C1804.82 136.683 1812.56 135.334 1820.66 134.552C1830.17 133.558 1837.84 132.635 1843.67 131.782C1849.49 130.859 1853.72 129.51 1856.35 127.734C1858.97 125.958 1860.29 123.331 1860.29 119.851V119.211C1860.29 112.464 1858.16 107.244 1853.9 103.551C1849.7 99.8583 1843.74 98.0113 1836 98.0113C1827.83 98.0113 1821.33 99.8223 1816.5 103.444C1811.67 106.995 1808.48 111.47 1806.91 116.868L1764.94 113.458C1767.07 103.515 1771.26 94.9223 1777.51 87.6773C1783.76 80.3623 1791.82 74.7513 1801.69 70.8453C1811.64 66.8683 1823.14 64.8793 1836.21 64.8793C1845.3 64.8793 1854 65.9443 1862.31 68.0753C1870.69 70.2063 1878.11 73.5083 1884.58 77.9833C1891.11 82.4573 1896.26 88.2103 1900.02 95.2413C1903.79 102.201 1905.67 110.547 1905.67 120.277V230.646H1862.63V207.954H1861.35C1858.72 213.068 1855.21 217.578 1850.81 221.484C1846.4 225.319 1841.11 228.338 1834.93 230.539C1828.75 232.67 1821.62 233.735 1813.52 233.735ZM1826.52 202.414C1833.19 202.414 1839.09 201.101 1844.2 198.473C1849.31 195.774 1853.33 192.152 1856.24 187.606C1859.15 183.061 1860.61 177.912 1860.61 172.159V154.794C1859.19 155.717 1857.23 156.569 1854.75 157.351C1852.33 158.061 1849.6 158.735 1846.54 159.375C1843.49 159.943 1840.44 160.476 1837.38 160.973C1834.33 161.399 1831.56 161.789 1829.07 162.145C1823.75 162.926 1819.09 164.169 1815.12 165.873C1811.14 167.578 1808.05 169.886 1805.85 172.798C1803.65 175.639 1802.55 179.19 1802.55 183.451C1802.55 189.63 1804.78 194.353 1809.26 197.62C1813.8 200.816 1819.56 202.414 1826.52 202.414ZM1986.26 136.044V230.646H1940.88V67.0103H1984.13V95.8803H1986.05C1989.67 86.3633 1995.75 78.8353 2004.27 73.2953C2012.79 67.6843 2023.12 64.8793 2035.27 64.8793C2046.63 64.8793 2056.54 67.3653 2064.99 72.3363C2073.44 77.3083 2080.01 84.4103 2084.7 93.6433C2089.39 102.805 2091.73 113.743 2091.73 126.456V230.646H2046.35V134.552C2046.42 124.538 2043.86 116.726 2038.68 111.115C2033.49 105.433 2026.36 102.592 2017.27 102.592C2011.16 102.592 2005.76 103.906 2001.07 106.534C1996.46 109.162 1992.83 112.997 1990.21 118.039C1987.65 123.011 1986.33 129.012 1986.26 136.044Z" fill="white"/>
<path d="M397.5 475.953C388.385 475.953 380.13 473.609 372.734 468.922C365.391 464.182 359.557 457.229 355.234 448.062C350.964 438.844 348.828 427.542 348.828 414.156C348.828 400.406 351.042 388.974 355.469 379.859C359.896 370.693 365.781 363.844 373.125 359.313C380.521 354.729 388.62 352.438 397.422 352.438C404.141 352.438 409.74 353.583 414.219 355.875C418.75 358.115 422.396 360.927 425.156 364.312C427.969 367.646 430.104 370.927 431.563 374.156H432.578V314H465.781V474H432.969V454.781H431.563C430 458.115 427.786 461.422 424.922 464.703C422.109 467.932 418.438 470.615 413.906 472.75C409.427 474.885 403.958 475.953 397.5 475.953ZM408.047 449.469C413.411 449.469 417.943 448.01 421.641 445.094C425.391 442.125 428.255 437.984 430.234 432.672C432.266 427.359 433.281 421.135 433.281 414C433.281 406.865 432.292 400.667 430.313 395.406C428.333 390.146 425.469 386.083 421.719 383.219C417.969 380.354 413.411 378.922 408.047 378.922C402.578 378.922 397.969 380.406 394.219 383.375C390.469 386.344 387.63 390.458 385.703 395.719C383.776 400.979 382.813 407.073 382.813 414C382.813 420.979 383.776 427.151 385.703 432.516C387.682 437.828 390.521 441.995 394.219 445.016C397.969 447.984 402.578 449.469 408.047 449.469ZM547.363 476.344C535.228 476.344 524.733 473.766 515.879 468.609C507.077 463.401 500.28 456.161 495.488 446.891C490.697 437.568 488.301 426.76 488.301 414.469C488.301 402.073 490.697 391.24 495.488 381.969C500.28 372.646 507.077 365.406 515.879 360.25C524.733 355.042 535.228 352.438 547.363 352.438C559.499 352.438 569.967 355.042 578.77 360.25C587.624 365.406 594.447 372.646 599.238 381.969C604.03 391.24 606.426 402.073 606.426 414.469C606.426 426.76 604.03 437.568 599.238 446.891C594.447 456.161 587.624 463.401 578.77 468.609C569.967 473.766 559.499 476.344 547.363 476.344ZM547.52 450.562C553.04 450.562 557.65 449 561.348 445.875C565.046 442.698 567.832 438.375 569.707 432.906C571.634 427.437 572.598 421.214 572.598 414.234C572.598 407.255 571.634 401.031 569.707 395.562C567.832 390.094 565.046 385.771 561.348 382.594C557.65 379.417 553.04 377.828 547.52 377.828C541.947 377.828 537.259 379.417 533.457 382.594C529.707 385.771 526.868 390.094 524.941 395.562C523.066 401.031 522.129 407.255 522.129 414.234C522.129 421.214 523.066 427.437 524.941 432.906C526.868 438.375 529.707 442.698 533.457 445.875C537.259 449 541.947 450.562 547.52 450.562ZM682.285 476.344C669.993 476.344 659.421 473.74 650.566 468.531C641.764 463.271 634.993 455.979 630.254 446.656C625.566 437.333 623.223 426.604 623.223 414.469C623.223 402.177 625.592 391.396 630.332 382.125C635.124 372.802 641.921 365.536 650.723 360.328C659.525 355.068 669.993 352.438 682.129 352.438C692.598 352.438 701.764 354.339 709.629 358.141C717.493 361.943 723.717 367.281 728.301 374.156C732.884 381.031 735.41 389.104 735.879 398.375H704.473C703.587 392.385 701.243 387.568 697.441 383.922C693.691 380.224 688.77 378.375 682.676 378.375C677.52 378.375 673.014 379.781 669.16 382.594C665.358 385.354 662.389 389.391 660.254 394.703C658.118 400.016 657.051 406.448 657.051 414C657.051 421.656 658.092 428.167 660.176 433.531C662.311 438.896 665.306 442.984 669.16 445.797C673.014 448.609 677.52 450.016 682.676 450.016C686.478 450.016 689.889 449.234 692.91 447.672C695.983 446.109 698.509 443.844 700.488 440.875C702.52 437.854 703.848 434.234 704.473 430.016H735.879C735.358 439.182 732.858 447.255 728.379 454.234C723.952 461.161 717.832 466.578 710.02 470.484C702.207 474.391 692.962 476.344 682.285 476.344ZM857.031 388.219L826.563 390.094C826.042 387.49 824.922 385.146 823.203 383.062C821.484 380.927 819.219 379.234 816.406 377.984C813.646 376.682 810.339 376.031 806.484 376.031C801.328 376.031 796.979 377.125 793.438 379.312C789.896 381.448 788.125 384.312 788.125 387.906C788.125 390.771 789.271 393.193 791.563 395.172C793.854 397.151 797.786 398.74 803.359 399.937L825.078 404.312C836.745 406.708 845.443 410.562 851.172 415.875C856.901 421.187 859.766 428.167 859.766 436.812C859.766 444.677 857.448 451.578 852.813 457.516C848.229 463.453 841.927 468.089 833.906 471.422C825.938 474.703 816.745 476.344 806.328 476.344C790.443 476.344 777.786 473.036 768.359 466.422C758.984 459.755 753.49 450.693 751.875 439.234L784.609 437.516C785.599 442.359 787.995 446.057 791.797 448.609C795.599 451.109 800.469 452.359 806.406 452.359C812.24 452.359 816.927 451.24 820.469 449C824.063 446.708 825.885 443.766 825.938 440.172C825.885 437.151 824.609 434.677 822.109 432.75C819.609 430.771 815.755 429.26 810.547 428.219L789.766 424.078C778.047 421.734 769.323 417.672 763.594 411.891C757.917 406.109 755.078 398.74 755.078 389.781C755.078 382.073 757.161 375.432 761.328 369.859C765.547 364.286 771.458 359.99 779.063 356.969C786.719 353.948 795.677 352.438 805.938 352.438C821.094 352.438 833.021 355.641 841.719 362.047C850.469 368.453 855.573 377.177 857.031 388.219Z" fill="#0091FF"/>
</svg>
